<svg xmlns="http://www.w3.org/2000/svg" fill="none" viewBox="0 0 24 24"
    id="Paypal-Logo--Streamline-Logos.svg">
    <desc>Paypal Logo Streamline Icon: https://streamlinehq.com</desc>
    <path fill="#fdfdff" fill-rule="evenodd"
        d="M4.6221 0.6944C4.6617 0.4332 4.8861 0.2402 5.1502 0.24H12.6071C15.0014 0.2393 17.1571 1.6905 18.0573 3.9091C17.728 3.8073 17.3854 3.7543 17.0406 3.752H7.7802C7.5156 3.7516 7.2906 3.9448 7.251 4.2063L5.0166 18.9491H2.4775C2.1505 18.9489 1.9003 18.6577 1.9493 18.3344L4.6221 0.6944ZM6.0739 19.4644L6.1519 18.9491V18.9448L7.2317 11.4654H13.6441C16.7317 11.4654 19.2162 8.9852 19.4985 6.0794C23.2332 8.6368 22.7989 14.2781 18.7167 16.2338C17.9226 16.6142 17.0531 16.8115 16.1725 16.8109H11.8481L10.8485 23.3067C10.8084 23.5674 10.5841 23.7599 10.3203 23.76H6.044C5.7165 23.7604 5.4656 23.469 5.5148 23.1453L5.7125 21.8463L6.0728 19.4644ZM18.4187 5.2113C18.4337 5.3064 18.4454 5.4016 18.4561 5.4967C18.4743 8.0775 16.3243 10.3964 13.6441 10.3964H7.3942L8.2388 4.821H17.0406C17.4822 4.821 17.9494 4.9643 18.4187 5.2113Z"
        clip-rule="evenodd" stroke-width="1"></path>
</svg>