<svg xmlns="http://www.w3.org/2000/svg" version="1.1" xmlns:xlink="http://www.w3.org/1999/xlink" xmlns:svgjs="http://svgjs.dev/svgjs" width="1420" height="560" preserveAspectRatio="none" viewBox="0 0 1420 560"><g mask="url(&quot;#SvgjsMask1097&quot;)" fill="none"><rect width="1420" height="560" x="0" y="0" fill="rgba(255, 255, 255, 1)"></rect><g><path d="M670 10L530 150L530 210L430 310L350 310" stroke-width="3.33" stroke="rgba(126, 87, 194, 1)"></path><path d="M666.67 10 a3.33 3.33 0 1 0 6.66 0 a3.33 3.33 0 1 0 -6.66 0zM346.67 310 a3.33 3.33 0 1 0 6.66 0 a3.33 3.33 0 1 0 -6.66 0z" fill="rgba(126, 87, 194, 1)"></path><path d="M350 210L150 10L10 10" stroke-width="3.33" stroke="rgba(126, 87, 194, 1)"></path><path d="M346.67 210 a3.33 3.33 0 1 0 6.66 0 a3.33 3.33 0 1 0 -6.66 0zM6.67 10 a3.33 3.33 0 1 0 6.66 0 a3.33 3.33 0 1 0 -6.66 0z" fill="rgba(126, 87, 194, 1)"></path><path d="M270 30L290 10L650 10" stroke-width="3.33" stroke="rgba(126, 87, 194, 1)"></path><path d="M266.67 30 a3.33 3.33 0 1 0 6.66 0 a3.33 3.33 0 1 0 -6.66 0zM646.67 10 a3.33 3.33 0 1 0 6.66 0 a3.33 3.33 0 1 0 -6.66 0z" fill="rgba(126, 87, 194, 1)"></path><path d="M1390 270L1150 270L1010 130" stroke-width="3.33" stroke="rgba(126, 87, 194, 1)"></path><path d="M1386.67 270 a3.33 3.33 0 1 0 6.66 0 a3.33 3.33 0 1 0 -6.66 0zM1006.67 130 a3.33 3.33 0 1 0 6.66 0 a3.33 3.33 0 1 0 -6.66 0z" fill="rgba(126, 87, 194, 1)"></path><path d="M650 530L630 510L630 450L470 290" stroke-width="3.33" stroke="rgba(126, 87, 194, 1)"></path><path d="M646.67 530 a3.33 3.33 0 1 0 6.66 0 a3.33 3.33 0 1 0 -6.66 0zM466.67 290 a3.33 3.33 0 1 0 6.66 0 a3.33 3.33 0 1 0 -6.66 0z" fill="rgba(126, 87, 194, 1)"></path><path d="M670 250L570 150L570 130L690 10L830 10" stroke-width="3.33" stroke="rgba(126, 87, 194, 1)"></path><path d="M666.67 250 a3.33 3.33 0 1 0 6.66 0 a3.33 3.33 0 1 0 -6.66 0zM826.67 10 a3.33 3.33 0 1 0 6.66 0 a3.33 3.33 0 1 0 -6.66 0z" fill="rgba(126, 87, 194, 1)"></path><path d="M1330 410L1190 550L950 550" stroke-width="3.33" stroke="rgba(126, 87, 194, 1)"></path><path d="M1326.67 410 a3.33 3.33 0 1 0 6.66 0 a3.33 3.33 0 1 0 -6.66 0zM946.67 550 a3.33 3.33 0 1 0 6.66 0 a3.33 3.33 0 1 0 -6.66 0z" fill="rgba(126, 87, 194, 1)"></path><path d="M910 230L790 350L730 350L550 170L550 150" stroke-width="3.33" stroke="rgba(126, 87, 194, 1)"></path><path d="M906.67 230 a3.33 3.33 0 1 0 6.66 0 a3.33 3.33 0 1 0 -6.66 0zM546.67 150 a3.33 3.33 0 1 0 6.66 0 a3.33 3.33 0 1 0 -6.66 0z" fill="rgba(126, 87, 194, 1)"></path><path d="M1410 510L1370 470L1290 470L1270 490L1270 510L1230 550L1210 550" stroke-width="3.33" stroke="rgba(126, 87, 194, 1)"></path><path d="M1406.67 510 a3.33 3.33 0 1 0 6.66 0 a3.33 3.33 0 1 0 -6.66 0zM1206.67 550 a3.33 3.33 0 1 0 6.66 0 a3.33 3.33 0 1 0 -6.66 0z" fill="rgba(126, 87, 194, 1)"></path><path d="M1190 70L1250 10L1370 10L1410 50L1410 210" stroke-width="3.33" stroke="rgba(126, 87, 194, 1)"></path><path d="M1186.67 70 a3.33 3.33 0 1 0 6.66 0 a3.33 3.33 0 1 0 -6.66 0zM1406.67 210 a3.33 3.33 0 1 0 6.66 0 a3.33 3.33 0 1 0 -6.66 0z" fill="rgba(126, 87, 194, 1)"></path><path d="M1250 310L1270 290L1410 290" stroke-width="3.33" stroke="rgba(126, 87, 194, 1)"></path><path d="M1246.67 310 a3.33 3.33 0 1 0 6.66 0 a3.33 3.33 0 1 0 -6.66 0zM1406.67 290 a3.33 3.33 0 1 0 6.66 0 a3.33 3.33 0 1 0 -6.66 0z" fill="rgba(126, 87, 194, 1)"></path><path d="M990 530L1030 490L1030 330L970 270L890 270L850 310" stroke-width="3.33" stroke="rgba(126, 87, 194, 1)"></path><path d="M986.67 530 a3.33 3.33 0 1 0 6.66 0 a3.33 3.33 0 1 0 -6.66 0zM846.67 310 a3.33 3.33 0 1 0 6.66 0 a3.33 3.33 0 1 0 -6.66 0z" fill="rgba(126, 87, 194, 1)"></path><path d="M1150 450L1290 310L1330 310L1350 330L1350 450" stroke-width="3.33" stroke="rgba(126, 87, 194, 1)"></path><path d="M1146.67 450 a3.33 3.33 0 1 0 6.66 0 a3.33 3.33 0 1 0 -6.66 0zM1346.67 450 a3.33 3.33 0 1 0 6.66 0 a3.33 3.33 0 1 0 -6.66 0z" fill="rgba(126, 87, 194, 1)"></path><path d="M50 70L50 50L70 30L150 30L270 150L270 290" stroke-width="3.33" stroke="rgba(126, 87, 194, 1)"></path><path d="M46.67 70 a3.33 3.33 0 1 0 6.66 0 a3.33 3.33 0 1 0 -6.66 0zM266.67 290 a3.33 3.33 0 1 0 6.66 0 a3.33 3.33 0 1 0 -6.66 0z" fill="rgba(126, 87, 194, 1)"></path><path d="M1390 130L1390 50L1370 30L1250 30L1150 130L1150 150L1170 170L1170 190" stroke-width="3.33" stroke="rgba(126, 87, 194, 1)"></path><path d="M1386.67 130 a3.33 3.33 0 1 0 6.66 0 a3.33 3.33 0 1 0 -6.66 0zM1166.67 190 a3.33 3.33 0 1 0 6.66 0 a3.33 3.33 0 1 0 -6.66 0z" fill="rgba(126, 87, 194, 1)"></path><path d="M450 230L430 250L350 250L330 270L290 270" stroke-width="3.33" stroke="rgba(126, 87, 194, 1)"></path><path d="M446.67 230 a3.33 3.33 0 1 0 6.66 0 a3.33 3.33 0 1 0 -6.66 0zM286.67 270 a3.33 3.33 0 1 0 6.66 0 a3.33 3.33 0 1 0 -6.66 0z" fill="rgba(126, 87, 194, 1)"></path><path d="M1370 330L1410 370L1410 490" stroke-width="3.33" stroke="rgba(126, 87, 194, 1)"></path><path d="M1366.67 330 a3.33 3.33 0 1 0 6.66 0 a3.33 3.33 0 1 0 -6.66 0zM1406.67 490 a3.33 3.33 0 1 0 6.66 0 a3.33 3.33 0 1 0 -6.66 0z" fill="rgba(126, 87, 194, 1)"></path><path d="M350 450L450 550L730 550" stroke-width="3.33" stroke="rgba(126, 87, 194, 1)"></path><path d="M346.67 450 a3.33 3.33 0 1 0 6.66 0 a3.33 3.33 0 1 0 -6.66 0zM726.67 550 a3.33 3.33 0 1 0 6.66 0 a3.33 3.33 0 1 0 -6.66 0z" fill="rgba(126, 87, 194, 1)"></path><path d="M910 330L910 290" stroke-width="3.33" stroke="rgba(126, 87, 194, 1)"></path><path d="M906.67 330 a3.33 3.33 0 1 0 6.66 0 a3.33 3.33 0 1 0 -6.66 0zM906.67 290 a3.33 3.33 0 1 0 6.66 0 a3.33 3.33 0 1 0 -6.66 0z" fill="rgba(126, 87, 194, 1)"></path><path d="M770 190L770 330" stroke-width="3.33" stroke="rgba(126, 87, 194, 1)"></path><path d="M766.67 190 a3.33 3.33 0 1 0 6.66 0 a3.33 3.33 0 1 0 -6.66 0zM766.67 330 a3.33 3.33 0 1 0 6.66 0 a3.33 3.33 0 1 0 -6.66 0z" fill="rgba(126, 87, 194, 1)"></path><path d="M850 170L850 10" stroke-width="3.33" stroke="rgba(126, 87, 194, 1)"></path><path d="M846.67 170 a3.33 3.33 0 1 0 6.66 0 a3.33 3.33 0 1 0 -6.66 0zM846.67 10 a3.33 3.33 0 1 0 6.66 0 a3.33 3.33 0 1 0 -6.66 0z" fill="rgba(126, 87, 194, 1)"></path><path d="M890 110L910 90L910 10" stroke-width="3.33" stroke="rgba(126, 87, 194, 1)"></path><path d="M886.67 110 a3.33 3.33 0 1 0 6.66 0 a3.33 3.33 0 1 0 -6.66 0zM906.67 10 a3.33 3.33 0 1 0 6.66 0 a3.33 3.33 0 1 0 -6.66 0z" fill="rgba(126, 87, 194, 1)"></path><path d="M1250 150L1170 150" stroke-width="3.33" stroke="rgba(126, 87, 194, 1)"></path><path d="M1246.67 150 a3.33 3.33 0 1 0 6.66 0 a3.33 3.33 0 1 0 -6.66 0zM1166.67 150 a3.33 3.33 0 1 0 6.66 0 a3.33 3.33 0 1 0 -6.66 0z" fill="rgba(126, 87, 194, 1)"></path><path d="M490 190L330 30L290 30L250 70L250 90L270 110L370 110" stroke-width="3.33" stroke="rgba(126, 87, 194, 1)"></path><path d="M486.67 190 a3.33 3.33 0 1 0 6.66 0 a3.33 3.33 0 1 0 -6.66 0zM366.67 110 a3.33 3.33 0 1 0 6.66 0 a3.33 3.33 0 1 0 -6.66 0z" fill="rgba(126, 87, 194, 1)"></path><path d="M1250 290L1010 290L990 270L990 150" stroke-width="3.33" stroke="rgba(126, 87, 194, 1)"></path><path d="M1246.67 290 a3.33 3.33 0 1 0 6.66 0 a3.33 3.33 0 1 0 -6.66 0zM986.67 150 a3.33 3.33 0 1 0 6.66 0 a3.33 3.33 0 1 0 -6.66 0z" fill="rgba(126, 87, 194, 1)"></path><path d="M30 170L230 170L250 190L250 250L150 350" stroke-width="3.33" stroke="rgba(126, 87, 194, 1)"></path><path d="M26.67 170 a3.33 3.33 0 1 0 6.66 0 a3.33 3.33 0 1 0 -6.66 0zM146.67 350 a3.33 3.33 0 1 0 6.66 0 a3.33 3.33 0 1 0 -6.66 0z" fill="rgba(126, 87, 194, 1)"></path><path d="M790 290L790 210L830 170L830 30" stroke-width="3.33" stroke="rgba(126, 87, 194, 1)"></path><path d="M786.67 290 a3.33 3.33 0 1 0 6.66 0 a3.33 3.33 0 1 0 -6.66 0zM826.67 30 a3.33 3.33 0 1 0 6.66 0 a3.33 3.33 0 1 0 -6.66 0z" fill="rgba(126, 87, 194, 1)"></path><path d="M550 230L550 350L750 550L810 550" stroke-width="3.33" stroke="rgba(126, 87, 194, 1)"></path><path d="M546.67 230 a3.33 3.33 0 1 0 6.66 0 a3.33 3.33 0 1 0 -6.66 0zM806.67 550 a3.33 3.33 0 1 0 6.66 0 a3.33 3.33 0 1 0 -6.66 0z" fill="rgba(126, 87, 194, 1)"></path><path d="M530 50L570 50L590 30L630 30" stroke-width="3.33" stroke="rgba(126, 87, 194, 1)"></path><path d="M526.67 50 a3.33 3.33 0 1 0 6.66 0 a3.33 3.33 0 1 0 -6.66 0zM626.67 30 a3.33 3.33 0 1 0 6.66 0 a3.33 3.33 0 1 0 -6.66 0z" fill="rgba(126, 87, 194, 1)"></path><path d="M1270 370L1330 370" stroke-width="3.33" stroke="rgba(126, 87, 194, 1)"></path><path d="M1266.67 370 a3.33 3.33 0 1 0 6.66 0 a3.33 3.33 0 1 0 -6.66 0zM1326.67 370 a3.33 3.33 0 1 0 6.66 0 a3.33 3.33 0 1 0 -6.66 0z" fill="rgba(126, 87, 194, 1)"></path><path d="M850 330L830 330L750 410L750 430L870 550L930 550L1010 470" stroke-width="3.33" stroke="rgba(126, 87, 194, 1)"></path><path d="M846.67 330 a3.33 3.33 0 1 0 6.66 0 a3.33 3.33 0 1 0 -6.66 0zM1006.67 470 a3.33 3.33 0 1 0 6.66 0 a3.33 3.33 0 1 0 -6.66 0z" fill="rgba(126, 87, 194, 1)"></path><path d="M970 170L970 250" stroke-width="3.33" stroke="rgba(126, 87, 194, 1)"></path><path d="M966.67 170 a3.33 3.33 0 1 0 6.66 0 a3.33 3.33 0 1 0 -6.66 0zM966.67 250 a3.33 3.33 0 1 0 6.66 0 a3.33 3.33 0 1 0 -6.66 0z" fill="rgba(126, 87, 194, 1)"></path><path d="M90 270L150 330" stroke-width="3.33" stroke="rgba(126, 87, 194, 1)"></path><path d="M86.67 270 a3.33 3.33 0 1 0 6.66 0 a3.33 3.33 0 1 0 -6.66 0zM146.67 330 a3.33 3.33 0 1 0 6.66 0 a3.33 3.33 0 1 0 -6.66 0z" fill="rgba(126, 87, 194, 1)"></path><path d="M310 350L310 310L290 290" stroke-width="3.33" stroke="rgba(126, 87, 194, 1)"></path><path d="M306.67 350 a3.33 3.33 0 1 0 6.66 0 a3.33 3.33 0 1 0 -6.66 0zM286.67 290 a3.33 3.33 0 1 0 6.66 0 a3.33 3.33 0 1 0 -6.66 0z" fill="rgba(126, 87, 194, 1)"></path><path d="M410 190L350 130L290 130" stroke-width="3.33" stroke="rgba(126, 87, 194, 1)"></path><path d="M406.67 190 a3.33 3.33 0 1 0 6.66 0 a3.33 3.33 0 1 0 -6.66 0zM286.67 130 a3.33 3.33 0 1 0 6.66 0 a3.33 3.33 0 1 0 -6.66 0z" fill="rgba(126, 87, 194, 1)"></path><path d="M890 190L950 250" stroke-width="3.33" stroke="rgba(126, 87, 194, 1)"></path><path d="M886.67 190 a3.33 3.33 0 1 0 6.66 0 a3.33 3.33 0 1 0 -6.66 0zM946.67 250 a3.33 3.33 0 1 0 6.66 0 a3.33 3.33 0 1 0 -6.66 0z" fill="rgba(126, 87, 194, 1)"></path><path d="M670 90L670 50L690 30L810 30" stroke-width="3.33" stroke="rgba(126, 87, 194, 1)"></path><path d="M666.67 90 a3.33 3.33 0 1 0 6.66 0 a3.33 3.33 0 1 0 -6.66 0zM806.67 30 a3.33 3.33 0 1 0 6.66 0 a3.33 3.33 0 1 0 -6.66 0z" fill="rgba(126, 87, 194, 1)"></path><path d="M130 130L70 70L70 50" stroke-width="3.33" stroke="rgba(126, 87, 194, 1)"></path><path d="M126.67 130 a3.33 3.33 0 1 0 6.66 0 a3.33 3.33 0 1 0 -6.66 0zM66.67 50 a3.33 3.33 0 1 0 6.66 0 a3.33 3.33 0 1 0 -6.66 0z" fill="rgba(126, 87, 194, 1)"></path><path d="M790 190L690 90L690 50" stroke-width="3.33" stroke="rgba(126, 87, 194, 1)"></path><path d="M786.67 190 a3.33 3.33 0 1 0 6.66 0 a3.33 3.33 0 1 0 -6.66 0zM686.67 50 a3.33 3.33 0 1 0 6.66 0 a3.33 3.33 0 1 0 -6.66 0z" fill="rgba(126, 87, 194, 1)"></path><path d="M1110 30L1090 10L930 10" stroke-width="3.33" stroke="rgba(126, 87, 194, 1)"></path><path d="M1106.67 30 a3.33 3.33 0 1 0 6.66 0 a3.33 3.33 0 1 0 -6.66 0zM926.67 10 a3.33 3.33 0 1 0 6.66 0 a3.33 3.33 0 1 0 -6.66 0z" fill="rgba(126, 87, 194, 1)"></path><path d="M330 50L370 90" stroke-width="3.33" stroke="rgba(126, 87, 194, 1)"></path><path d="M326.67 50 a3.33 3.33 0 1 0 6.66 0 a3.33 3.33 0 1 0 -6.66 0zM366.67 90 a3.33 3.33 0 1 0 6.66 0 a3.33 3.33 0 1 0 -6.66 0z" fill="rgba(126, 87, 194, 1)"></path><path d="M190 270L110 190L10 190" stroke-width="3.33" stroke="rgba(126, 87, 194, 1)"></path><path d="M186.67 270 a3.33 3.33 0 1 0 6.66 0 a3.33 3.33 0 1 0 -6.66 0zM6.67 190 a3.33 3.33 0 1 0 6.66 0 a3.33 3.33 0 1 0 -6.66 0z" fill="rgba(126, 87, 194, 1)"></path><path d="M150 510L90 510L50 550L10 550" stroke-width="3.33" stroke="rgba(126, 87, 194, 1)"></path><path d="M146.67 510 a3.33 3.33 0 1 0 6.66 0 a3.33 3.33 0 1 0 -6.66 0zM6.67 550 a3.33 3.33 0 1 0 6.66 0 a3.33 3.33 0 1 0 -6.66 0z" fill="rgba(126, 87, 194, 1)"></path><path d="M190 450L210 470L350 470L370 490L370 550" stroke-width="3.33" stroke="rgba(126, 87, 194, 1)"></path><path d="M186.67 450 a3.33 3.33 0 1 0 6.66 0 a3.33 3.33 0 1 0 -6.66 0zM366.67 550 a3.33 3.33 0 1 0 6.66 0 a3.33 3.33 0 1 0 -6.66 0z" fill="rgba(126, 87, 194, 1)"></path><path d="M1330 190L1190 190L1150 230L1150 250" stroke-width="3.33" stroke="rgba(126, 87, 194, 1)"></path><path d="M1326.67 190 a3.33 3.33 0 1 0 6.66 0 a3.33 3.33 0 1 0 -6.66 0zM1146.67 250 a3.33 3.33 0 1 0 6.66 0 a3.33 3.33 0 1 0 -6.66 0z" fill="rgba(126, 87, 194, 1)"></path><path d="M1030 270L1070 270L1090 250L1110 250L1130 270" stroke-width="3.33" stroke="rgba(126, 87, 194, 1)"></path><path d="M1026.67 270 a3.33 3.33 0 1 0 6.66 0 a3.33 3.33 0 1 0 -6.66 0zM1126.67 270 a3.33 3.33 0 1 0 6.66 0 a3.33 3.33 0 1 0 -6.66 0z" fill="rgba(126, 87, 194, 1)"></path><path d="M130 470L10 470" stroke-width="3.33" stroke="rgba(126, 87, 194, 1)"></path><path d="M126.67 470 a3.33 3.33 0 1 0 6.66 0 a3.33 3.33 0 1 0 -6.66 0zM6.67 470 a3.33 3.33 0 1 0 6.66 0 a3.33 3.33 0 1 0 -6.66 0z" fill="rgba(126, 87, 194, 1)"></path><path d="M350 350L370 330L490 330L610 450L610 530" stroke-width="3.33" stroke="rgba(126, 87, 194, 1)"></path><path d="M346.67 350 a3.33 3.33 0 1 0 6.66 0 a3.33 3.33 0 1 0 -6.66 0zM606.67 530 a3.33 3.33 0 1 0 6.66 0 a3.33 3.33 0 1 0 -6.66 0z" fill="rgba(126, 87, 194, 1)"></path><path d="M1070 350L1070 310" stroke-width="3.33" stroke="rgba(126, 87, 194, 1)"></path><path d="M1066.67 350 a3.33 3.33 0 1 0 6.66 0 a3.33 3.33 0 1 0 -6.66 0zM1066.67 310 a3.33 3.33 0 1 0 6.66 0 a3.33 3.33 0 1 0 -6.66 0z" fill="rgba(126, 87, 194, 1)"></path><path d="M690 290L730 290L750 270L750 170L690 110L610 110L590 130L590 150L630 190" stroke-width="3.33" stroke="rgba(126, 87, 194, 1)"></path><path d="M686.67 290 a3.33 3.33 0 1 0 6.66 0 a3.33 3.33 0 1 0 -6.66 0zM626.67 190 a3.33 3.33 0 1 0 6.66 0 a3.33 3.33 0 1 0 -6.66 0z" fill="rgba(126, 87, 194, 1)"></path><path d="M670 170L650 190L650 210L710 270L730 270" stroke-width="3.33" stroke="rgba(126, 87, 194, 1)"></path><path d="M666.67 170 a3.33 3.33 0 1 0 6.66 0 a3.33 3.33 0 1 0 -6.66 0zM726.67 270 a3.33 3.33 0 1 0 6.66 0 a3.33 3.33 0 1 0 -6.66 0z" fill="rgba(126, 87, 194, 1)"></path><path d="M430 410L430 430L530 530L590 530" stroke-width="3.33" stroke="rgba(126, 87, 194, 1)"></path><path d="M426.67 410 a3.33 3.33 0 1 0 6.66 0 a3.33 3.33 0 1 0 -6.66 0zM586.67 530 a3.33 3.33 0 1 0 6.66 0 a3.33 3.33 0 1 0 -6.66 0z" fill="rgba(126, 87, 194, 1)"></path><path d="M1170 310L1090 310" stroke-width="3.33" stroke="rgba(126, 87, 194, 1)"></path><path d="M1166.67 310 a3.33 3.33 0 1 0 6.66 0 a3.33 3.33 0 1 0 -6.66 0zM1086.67 310 a3.33 3.33 0 1 0 6.66 0 a3.33 3.33 0 1 0 -6.66 0z" fill="rgba(126, 87, 194, 1)"></path><path d="M1070 170L1210 30L1210 10" stroke-width="3.33" stroke="rgba(126, 87, 194, 1)"></path><path d="M1066.67 170 a3.33 3.33 0 1 0 6.66 0 a3.33 3.33 0 1 0 -6.66 0zM1206.67 10 a3.33 3.33 0 1 0 6.66 0 a3.33 3.33 0 1 0 -6.66 0z" fill="rgba(126, 87, 194, 1)"></path><path d="M650 290L750 390" stroke-width="3.33" stroke="rgba(126, 87, 194, 1)"></path><path d="M646.67 290 a3.33 3.33 0 1 0 6.66 0 a3.33 3.33 0 1 0 -6.66 0zM746.67 390 a3.33 3.33 0 1 0 6.66 0 a3.33 3.33 0 1 0 -6.66 0z" fill="rgba(126, 87, 194, 1)"></path><path d="M1130 210L1110 210L1090 190L1090 170L1130 130" stroke-width="3.33" stroke="rgba(126, 87, 194, 1)"></path><path d="M1126.67 210 a3.33 3.33 0 1 0 6.66 0 a3.33 3.33 0 1 0 -6.66 0zM1126.67 130 a3.33 3.33 0 1 0 6.66 0 a3.33 3.33 0 1 0 -6.66 0z" fill="rgba(126, 87, 194, 1)"></path><path d="M1110 370L1150 410L1170 410L1250 330" stroke-width="3.33" stroke="rgba(126, 87, 194, 1)"></path><path d="M1106.67 370 a3.33 3.33 0 1 0 6.66 0 a3.33 3.33 0 1 0 -6.66 0zM1246.67 330 a3.33 3.33 0 1 0 6.66 0 a3.33 3.33 0 1 0 -6.66 0z" fill="rgba(126, 87, 194, 1)"></path><path d="M1390 210L1390 150L1290 50L1250 50L1190 110L1190 130" stroke-width="3.33" stroke="rgba(126, 87, 194, 1)"></path><path d="M1386.67 210 a3.33 3.33 0 1 0 6.66 0 a3.33 3.33 0 1 0 -6.66 0zM1186.67 130 a3.33 3.33 0 1 0 6.66 0 a3.33 3.33 0 1 0 -6.66 0z" fill="rgba(126, 87, 194, 1)"></path><path d="M950 50L950 230" stroke-width="3.33" stroke="rgba(126, 87, 194, 1)"></path><path d="M946.67 50 a3.33 3.33 0 1 0 6.66 0 a3.33 3.33 0 1 0 -6.66 0zM946.67 230 a3.33 3.33 0 1 0 6.66 0 a3.33 3.33 0 1 0 -6.66 0z" fill="rgba(126, 87, 194, 1)"></path><path d="M1070 130L1130 70L1150 70L1190 30L1190 10" stroke-width="3.33" stroke="rgba(126, 87, 194, 1)"></path><path d="M1066.67 130 a3.33 3.33 0 1 0 6.66 0 a3.33 3.33 0 1 0 -6.66 0zM1186.67 10 a3.33 3.33 0 1 0 6.66 0 a3.33 3.33 0 1 0 -6.66 0z" fill="rgba(126, 87, 194, 1)"></path><path d="M210 210L190 230L190 250L210 270" stroke-width="3.33" stroke="rgba(126, 87, 194, 1)"></path><path d="M206.67 210 a3.33 3.33 0 1 0 6.66 0 a3.33 3.33 0 1 0 -6.66 0zM206.67 270 a3.33 3.33 0 1 0 6.66 0 a3.33 3.33 0 1 0 -6.66 0z" fill="rgba(126, 87, 194, 1)"></path><path d="M110 130L10 130" stroke-width="3.33" stroke="rgba(126, 87, 194, 1)"></path><path d="M106.67 130 a3.33 3.33 0 1 0 6.66 0 a3.33 3.33 0 1 0 -6.66 0zM6.67 130 a3.33 3.33 0 1 0 6.66 0 a3.33 3.33 0 1 0 -6.66 0z" fill="rgba(126, 87, 194, 1)"></path><path d="M710 190L710 250" stroke-width="3.33" stroke="rgba(126, 87, 194, 1)"></path><path d="M706.67 190 a3.33 3.33 0 1 0 6.66 0 a3.33 3.33 0 1 0 -6.66 0zM706.67 250 a3.33 3.33 0 1 0 6.66 0 a3.33 3.33 0 1 0 -6.66 0z" fill="rgba(126, 87, 194, 1)"></path><path d="M1270 70L1210 130" stroke-width="3.33" stroke="rgba(126, 87, 194, 1)"></path><path d="M1266.67 70 a3.33 3.33 0 1 0 6.66 0 a3.33 3.33 0 1 0 -6.66 0zM1206.67 130 a3.33 3.33 0 1 0 6.66 0 a3.33 3.33 0 1 0 -6.66 0z" fill="rgba(126, 87, 194, 1)"></path><path d="M450 530L290 370L150 370L70 290" stroke-width="3.33" stroke="rgba(126, 87, 194, 1)"></path><path d="M446.67 530 a3.33 3.33 0 1 0 6.66 0 a3.33 3.33 0 1 0 -6.66 0zM66.67 290 a3.33 3.33 0 1 0 6.66 0 a3.33 3.33 0 1 0 -6.66 0z" fill="rgba(126, 87, 194, 1)"></path><path d="M710 150L730 170L730 250" stroke-width="3.33" stroke="rgba(126, 87, 194, 1)"></path><path d="M706.67 150 a3.33 3.33 0 1 0 6.66 0 a3.33 3.33 0 1 0 -6.66 0zM726.67 250 a3.33 3.33 0 1 0 6.66 0 a3.33 3.33 0 1 0 -6.66 0z" fill="rgba(126, 87, 194, 1)"></path><path d="M170 530L170 390" stroke-width="3.33" stroke="rgba(126, 87, 194, 1)"></path><path d="M166.67 530 a3.33 3.33 0 1 0 6.66 0 a3.33 3.33 0 1 0 -6.66 0zM166.67 390 a3.33 3.33 0 1 0 6.66 0 a3.33 3.33 0 1 0 -6.66 0z" fill="rgba(126, 87, 194, 1)"></path><path d="M1130 30L1170 30" stroke-width="3.33" stroke="rgba(126, 87, 194, 1)"></path><path d="M1126.67 30 a3.33 3.33 0 1 0 6.66 0 a3.33 3.33 0 1 0 -6.66 0zM1166.67 30 a3.33 3.33 0 1 0 6.66 0 a3.33 3.33 0 1 0 -6.66 0z" fill="rgba(126, 87, 194, 1)"></path><path d="M1230 390L1090 530L1050 530L1030 510" stroke-width="3.33" stroke="rgba(126, 87, 194, 1)"></path><path d="M1226.67 390 a3.33 3.33 0 1 0 6.66 0 a3.33 3.33 0 1 0 -6.66 0zM1026.67 510 a3.33 3.33 0 1 0 6.66 0 a3.33 3.33 0 1 0 -6.66 0z" fill="rgba(126, 87, 194, 1)"></path><path d="M30 90L10 70L10 30" stroke-width="3.33" stroke="rgba(126, 87, 194, 1)"></path><path d="M26.67 90 a3.33 3.33 0 1 0 6.66 0 a3.33 3.33 0 1 0 -6.66 0zM6.67 30 a3.33 3.33 0 1 0 6.66 0 a3.33 3.33 0 1 0 -6.66 0z" fill="rgba(126, 87, 194, 1)"></path><path d="M870 150L890 150L930 190L930 210" stroke-width="3.33" stroke="rgba(126, 87, 194, 1)"></path><path d="M866.67 150 a3.33 3.33 0 1 0 6.66 0 a3.33 3.33 0 1 0 -6.66 0zM926.67 210 a3.33 3.33 0 1 0 6.66 0 a3.33 3.33 0 1 0 -6.66 0z" fill="rgba(126, 87, 194, 1)"></path><path d="M430 30L570 30" stroke-width="3.33" stroke="rgba(126, 87, 194, 1)"></path><path d="M426.67 30 a3.33 3.33 0 1 0 6.66 0 a3.33 3.33 0 1 0 -6.66 0zM566.67 30 a3.33 3.33 0 1 0 6.66 0 a3.33 3.33 0 1 0 -6.66 0z" fill="rgba(126, 87, 194, 1)"></path><path d="M270 390L290 410L310 410L330 430L330 450" stroke-width="3.33" stroke="rgba(126, 87, 194, 1)"></path><path d="M266.67 390 a3.33 3.33 0 1 0 6.66 0 a3.33 3.33 0 1 0 -6.66 0zM326.67 450 a3.33 3.33 0 1 0 6.66 0 a3.33 3.33 0 1 0 -6.66 0z" fill="rgba(126, 87, 194, 1)"></path><path d="M150 310L170 310L190 290" stroke-width="3.33" stroke="rgba(126, 87, 194, 1)"></path><path d="M146.67 310 a3.33 3.33 0 1 0 6.66 0 a3.33 3.33 0 1 0 -6.66 0zM186.67 290 a3.33 3.33 0 1 0 6.66 0 a3.33 3.33 0 1 0 -6.66 0z" fill="rgba(126, 87, 194, 1)"></path><path d="M230 330L250 350L290 350" stroke-width="3.33" stroke="rgba(126, 87, 194, 1)"></path><path d="M226.67 330 a3.33 3.33 0 1 0 6.66 0 a3.33 3.33 0 1 0 -6.66 0zM286.67 350 a3.33 3.33 0 1 0 6.66 0 a3.33 3.33 0 1 0 -6.66 0z" fill="rgba(126, 87, 194, 1)"></path><path d="M1070 90L1090 90L1130 50L1150 50" stroke-width="3.33" stroke="rgba(126, 87, 194, 1)"></path><path d="M1066.67 90 a3.33 3.33 0 1 0 6.66 0 a3.33 3.33 0 1 0 -6.66 0zM1146.67 50 a3.33 3.33 0 1 0 6.66 0 a3.33 3.33 0 1 0 -6.66 0z" fill="rgba(126, 87, 194, 1)"></path><path d="M990 410L910 490L830 490L810 470L810 450L890 370L890 290" stroke-width="3.33" stroke="rgba(126, 87, 194, 1)"></path><path d="M986.67 410 a3.33 3.33 0 1 0 6.66 0 a3.33 3.33 0 1 0 -6.66 0zM886.67 290 a3.33 3.33 0 1 0 6.66 0 a3.33 3.33 0 1 0 -6.66 0z" fill="rgba(126, 87, 194, 1)"></path><path d="M1330 490L1290 530L1290 550" stroke-width="3.33" stroke="rgba(126, 87, 194, 1)"></path><path d="M1326.67 490 a3.33 3.33 0 1 0 6.66 0 a3.33 3.33 0 1 0 -6.66 0zM1286.67 550 a3.33 3.33 0 1 0 6.66 0 a3.33 3.33 0 1 0 -6.66 0z" fill="rgba(126, 87, 194, 1)"></path><path d="M670 430L670 450L750 530L830 530L850 550" stroke-width="3.33" stroke="rgba(126, 87, 194, 1)"></path><path d="M666.67 430 a3.33 3.33 0 1 0 6.66 0 a3.33 3.33 0 1 0 -6.66 0zM846.67 550 a3.33 3.33 0 1 0 6.66 0 a3.33 3.33 0 1 0 -6.66 0z" fill="rgba(126, 87, 194, 1)"></path><path d="M630 270L610 270L550 210L550 190" stroke-width="3.33" stroke="rgba(126, 87, 194, 1)"></path><path d="M626.67 270 a3.33 3.33 0 1 0 6.66 0 a3.33 3.33 0 1 0 -6.66 0zM546.67 190 a3.33 3.33 0 1 0 6.66 0 a3.33 3.33 0 1 0 -6.66 0z" fill="rgba(126, 87, 194, 1)"></path><path d="M170 150L10 150" stroke-width="3.33" stroke="rgba(126, 87, 194, 1)"></path><path d="M166.67 150 a3.33 3.33 0 1 0 6.66 0 a3.33 3.33 0 1 0 -6.66 0zM6.67 150 a3.33 3.33 0 1 0 6.66 0 a3.33 3.33 0 1 0 -6.66 0z" fill="rgba(126, 87, 194, 1)"></path><path d="M310 90L350 90" stroke-width="3.33" stroke="rgba(126, 87, 194, 1)"></path><path d="M306.67 90 a3.33 3.33 0 1 0 6.66 0 a3.33 3.33 0 1 0 -6.66 0zM346.67 90 a3.33 3.33 0 1 0 6.66 0 a3.33 3.33 0 1 0 -6.66 0z" fill="rgba(126, 87, 194, 1)"></path><path d="M1270 250L1310 210L1370 210L1410 250L1410 270" stroke-width="3.33" stroke="rgba(126, 87, 194, 1)"></path><path d="M1266.67 250 a3.33 3.33 0 1 0 6.66 0 a3.33 3.33 0 1 0 -6.66 0zM1406.67 270 a3.33 3.33 0 1 0 6.66 0 a3.33 3.33 0 1 0 -6.66 0z" fill="rgba(126, 87, 194, 1)"></path><path d="M1030 90L1030 130L1050 150L1070 150" stroke-width="3.33" stroke="rgba(126, 87, 194, 1)"></path><path d="M1026.67 90 a3.33 3.33 0 1 0 6.66 0 a3.33 3.33 0 1 0 -6.66 0zM1066.67 150 a3.33 3.33 0 1 0 6.66 0 a3.33 3.33 0 1 0 -6.66 0z" fill="rgba(126, 87, 194, 1)"></path><path d="M370 410L410 410L470 350L490 350L590 450L590 510" stroke-width="3.33" stroke="rgba(126, 87, 194, 1)"></path><path d="M366.67 410 a3.33 3.33 0 1 0 6.66 0 a3.33 3.33 0 1 0 -6.66 0zM586.67 510 a3.33 3.33 0 1 0 6.66 0 a3.33 3.33 0 1 0 -6.66 0z" fill="rgba(126, 87, 194, 1)"></path><path d="M1370 410L1390 430L1390 470" stroke-width="3.33" stroke="rgba(126, 87, 194, 1)"></path><path d="M1366.67 410 a3.33 3.33 0 1 0 6.66 0 a3.33 3.33 0 1 0 -6.66 0zM1386.67 470 a3.33 3.33 0 1 0 6.66 0 a3.33 3.33 0 1 0 -6.66 0z" fill="rgba(126, 87, 194, 1)"></path><path d="M230 550L190 510L190 470" stroke-width="3.33" stroke="rgba(126, 87, 194, 1)"></path><path d="M226.67 550 a3.33 3.33 0 1 0 6.66 0 a3.33 3.33 0 1 0 -6.66 0zM186.67 470 a3.33 3.33 0 1 0 6.66 0 a3.33 3.33 0 1 0 -6.66 0z" fill="rgba(126, 87, 194, 1)"></path><path d="M1090 230L1010 150" stroke-width="3.33" stroke="rgba(126, 87, 194, 1)"></path><path d="M1086.67 230 a3.33 3.33 0 1 0 6.66 0 a3.33 3.33 0 1 0 -6.66 0zM1006.67 150 a3.33 3.33 0 1 0 6.66 0 a3.33 3.33 0 1 0 -6.66 0z" fill="rgba(126, 87, 194, 1)"></path><path d="M750 450L690 450" stroke-width="3.33" stroke="rgba(126, 87, 194, 1)"></path><path d="M746.67 450 a3.33 3.33 0 1 0 6.66 0 a3.33 3.33 0 1 0 -6.66 0zM686.67 450 a3.33 3.33 0 1 0 6.66 0 a3.33 3.33 0 1 0 -6.66 0z" fill="rgba(126, 87, 194, 1)"></path><path d="M1210 430L1250 470" stroke-width="3.33" stroke="rgba(126, 87, 194, 1)"></path><path d="M1206.67 430 a3.33 3.33 0 1 0 6.66 0 a3.33 3.33 0 1 0 -6.66 0zM1246.67 470 a3.33 3.33 0 1 0 6.66 0 a3.33 3.33 0 1 0 -6.66 0z" fill="rgba(126, 87, 194, 1)"></path><path d="M10 530L50 530L90 490L150 490" stroke-width="3.33" stroke="rgba(126, 87, 194, 1)"></path><path d="M6.67 530 a3.33 3.33 0 1 0 6.66 0 a3.33 3.33 0 1 0 -6.66 0zM146.67 490 a3.33 3.33 0 1 0 6.66 0 a3.33 3.33 0 1 0 -6.66 0z" fill="rgba(126, 87, 194, 1)"></path><path d="M430 230L470 190" stroke-width="3.33" stroke="rgba(126, 87, 194, 1)"></path><path d="M426.67 230 a3.33 3.33 0 1 0 6.66 0 a3.33 3.33 0 1 0 -6.66 0zM466.67 190 a3.33 3.33 0 1 0 6.66 0 a3.33 3.33 0 1 0 -6.66 0z" fill="rgba(126, 87, 194, 1)"></path><path d="M610 370L650 330L670 330" stroke-width="3.33" stroke="rgba(126, 87, 194, 1)"></path><path d="M606.67 370 a3.33 3.33 0 1 0 6.66 0 a3.33 3.33 0 1 0 -6.66 0zM666.67 330 a3.33 3.33 0 1 0 6.66 0 a3.33 3.33 0 1 0 -6.66 0z" fill="rgba(126, 87, 194, 1)"></path><path d="M210 30L230 10L270 10" stroke-width="3.33" stroke="rgba(126, 87, 194, 1)"></path><path d="M206.67 30 a3.33 3.33 0 1 0 6.66 0 a3.33 3.33 0 1 0 -6.66 0zM266.67 10 a3.33 3.33 0 1 0 6.66 0 a3.33 3.33 0 1 0 -6.66 0z" fill="rgba(126, 87, 194, 1)"></path><path d="M270 450L310 450" stroke-width="3.33" stroke="rgba(126, 87, 194, 1)"></path><path d="M266.67 450 a3.33 3.33 0 1 0 6.66 0 a3.33 3.33 0 1 0 -6.66 0zM306.67 450 a3.33 3.33 0 1 0 6.66 0 a3.33 3.33 0 1 0 -6.66 0z" fill="rgba(126, 87, 194, 1)"></path><path d="M250 310L250 270" stroke-width="3.33" stroke="rgba(126, 87, 194, 1)"></path><path d="M246.67 310 a3.33 3.33 0 1 0 6.66 0 a3.33 3.33 0 1 0 -6.66 0zM246.67 270 a3.33 3.33 0 1 0 6.66 0 a3.33 3.33 0 1 0 -6.66 0z" fill="rgba(126, 87, 194, 1)"></path><path d="M910 390L950 430" stroke-width="3.33" stroke="rgba(126, 87, 194, 1)"></path><path d="M906.67 390 a3.33 3.33 0 1 0 6.66 0 a3.33 3.33 0 1 0 -6.66 0zM946.67 430 a3.33 3.33 0 1 0 6.66 0 a3.33 3.33 0 1 0 -6.66 0z" fill="rgba(126, 87, 194, 1)"></path><path d="M1050 70L1050 130" stroke-width="3.33" stroke="rgba(126, 87, 194, 1)"></path><path d="M1046.67 70 a3.33 3.33 0 1 0 6.66 0 a3.33 3.33 0 1 0 -6.66 0zM1046.67 130 a3.33 3.33 0 1 0 6.66 0 a3.33 3.33 0 1 0 -6.66 0z" fill="rgba(126, 87, 194, 1)"></path><path d="M230 290L170 350" stroke-width="3.33" stroke="rgba(126, 87, 194, 1)"></path><path d="M226.67 290 a3.33 3.33 0 1 0 6.66 0 a3.33 3.33 0 1 0 -6.66 0zM166.67 350 a3.33 3.33 0 1 0 6.66 0 a3.33 3.33 0 1 0 -6.66 0z" fill="rgba(126, 87, 194, 1)"></path><path d="M250 450L210 450L190 430L190 390" stroke-width="3.33" stroke="rgba(126, 87, 194, 1)"></path><path d="M246.67 450 a3.33 3.33 0 1 0 6.66 0 a3.33 3.33 0 1 0 -6.66 0zM186.67 390 a3.33 3.33 0 1 0 6.66 0 a3.33 3.33 0 1 0 -6.66 0z" fill="rgba(126, 87, 194, 1)"></path><path d="M930 510L850 510" stroke-width="3.33" stroke="rgba(126, 87, 194, 1)"></path><path d="M926.67 510 a3.33 3.33 0 1 0 6.66 0 a3.33 3.33 0 1 0 -6.66 0zM846.67 510 a3.33 3.33 0 1 0 6.66 0 a3.33 3.33 0 1 0 -6.66 0z" fill="rgba(126, 87, 194, 1)"></path><path d="M1010 330L950 390L930 390L910 370L910 350L970 290" stroke-width="3.33" stroke="rgba(126, 87, 194, 1)"></path><path d="M1006.67 330 a3.33 3.33 0 1 0 6.66 0 a3.33 3.33 0 1 0 -6.66 0zM966.67 290 a3.33 3.33 0 1 0 6.66 0 a3.33 3.33 0 1 0 -6.66 0z" fill="rgba(126, 87, 194, 1)"></path><path d="M250 390L230 390L210 410L210 430" stroke-width="3.33" stroke="rgba(126, 87, 194, 1)"></path><path d="M246.67 390 a3.33 3.33 0 1 0 6.66 0 a3.33 3.33 0 1 0 -6.66 0zM206.67 430 a3.33 3.33 0 1 0 6.66 0 a3.33 3.33 0 1 0 -6.66 0z" fill="rgba(126, 87, 194, 1)"></path><path d="M110 210L150 250L150 290" stroke-width="3.33" stroke="rgba(126, 87, 194, 1)"></path><path d="M106.67 210 a3.33 3.33 0 1 0 6.66 0 a3.33 3.33 0 1 0 -6.66 0zM146.67 290 a3.33 3.33 0 1 0 6.66 0 a3.33 3.33 0 1 0 -6.66 0z" fill="rgba(126, 87, 194, 1)"></path><path d="M150 190L150 210L170 230" stroke-width="3.33" stroke="rgba(126, 87, 194, 1)"></path><path d="M146.67 190 a3.33 3.33 0 1 0 6.66 0 a3.33 3.33 0 1 0 -6.66 0zM166.67 230 a3.33 3.33 0 1 0 6.66 0 a3.33 3.33 0 1 0 -6.66 0z" fill="rgba(126, 87, 194, 1)"></path><path d="M1030 210L1030 190L1010 170" stroke-width="3.33" stroke="rgba(126, 87, 194, 1)"></path><path d="M1026.67 210 a3.33 3.33 0 1 0 6.66 0 a3.33 3.33 0 1 0 -6.66 0zM1006.67 170 a3.33 3.33 0 1 0 6.66 0 a3.33 3.33 0 1 0 -6.66 0z" fill="rgba(126, 87, 194, 1)"></path><path d="M390 550L390 510" stroke-width="3.33" stroke="rgba(126, 87, 194, 1)"></path><path d="M386.67 550 a3.33 3.33 0 1 0 6.66 0 a3.33 3.33 0 1 0 -6.66 0zM386.67 510 a3.33 3.33 0 1 0 6.66 0 a3.33 3.33 0 1 0 -6.66 0z" fill="rgba(126, 87, 194, 1)"></path><path d="M390 430L490 530L510 530" stroke-width="3.33" stroke="rgba(126, 87, 194, 1)"></path><path d="M386.67 430 a3.33 3.33 0 1 0 6.66 0 a3.33 3.33 0 1 0 -6.66 0zM506.67 530 a3.33 3.33 0 1 0 6.66 0 a3.33 3.33 0 1 0 -6.66 0z" fill="rgba(126, 87, 194, 1)"></path><path d="M1010 70L1010 90L970 130L970 150" stroke-width="3.33" stroke="rgba(126, 87, 194, 1)"></path><path d="M1006.67 70 a3.33 3.33 0 1 0 6.66 0 a3.33 3.33 0 1 0 -6.66 0zM966.67 150 a3.33 3.33 0 1 0 6.66 0 a3.33 3.33 0 1 0 -6.66 0z" fill="rgba(126, 87, 194, 1)"></path><path d="M650 350L670 370L690 370L730 410L730 430" stroke-width="3.33" stroke="rgba(126, 87, 194, 1)"></path><path d="M646.67 350 a3.33 3.33 0 1 0 6.66 0 a3.33 3.33 0 1 0 -6.66 0zM726.67 430 a3.33 3.33 0 1 0 6.66 0 a3.33 3.33 0 1 0 -6.66 0z" fill="rgba(126, 87, 194, 1)"></path><path d="M10 490L70 490" stroke-width="3.33" stroke="rgba(126, 87, 194, 1)"></path><path d="M6.67 490 a3.33 3.33 0 1 0 6.66 0 a3.33 3.33 0 1 0 -6.66 0zM66.67 490 a3.33 3.33 0 1 0 6.66 0 a3.33 3.33 0 1 0 -6.66 0z" fill="rgba(126, 87, 194, 1)"></path><path d="M470 430L450 410L450 390L470 370L490 370L570 450L570 510" stroke-width="3.33" stroke="rgba(126, 87, 194, 1)"></path><path d="M466.67 430 a3.33 3.33 0 1 0 6.66 0 a3.33 3.33 0 1 0 -6.66 0zM566.67 510 a3.33 3.33 0 1 0 6.66 0 a3.33 3.33 0 1 0 -6.66 0z" fill="rgba(126, 87, 194, 1)"></path><path d="M1070 490L1070 410L1090 390L1090 330" stroke-width="3.33" stroke="rgba(126, 87, 194, 1)"></path><path d="M1066.67 490 a3.33 3.33 0 1 0 6.66 0 a3.33 3.33 0 1 0 -6.66 0zM1086.67 330 a3.33 3.33 0 1 0 6.66 0 a3.33 3.33 0 1 0 -6.66 0z" fill="rgba(126, 87, 194, 1)"></path><path d="M1310 130L1310 170" stroke-width="3.33" stroke="rgba(126, 87, 194, 1)"></path><path d="M1306.67 130 a3.33 3.33 0 1 0 6.66 0 a3.33 3.33 0 1 0 -6.66 0zM1306.67 170 a3.33 3.33 0 1 0 6.66 0 a3.33 3.33 0 1 0 -6.66 0z" fill="rgba(126, 87, 194, 1)"></path><path d="M510 210L470 210" stroke-width="3.33" stroke="rgba(126, 87, 194, 1)"></path><path d="M506.67 210 a3.33 3.33 0 1 0 6.66 0 a3.33 3.33 0 1 0 -6.66 0zM466.67 210 a3.33 3.33 0 1 0 6.66 0 a3.33 3.33 0 1 0 -6.66 0z" fill="rgba(126, 87, 194, 1)"></path><path d="M990 390L970 390L950 410" stroke-width="3.33" stroke="rgba(126, 87, 194, 1)"></path><path d="M986.67 390 a3.33 3.33 0 1 0 6.66 0 a3.33 3.33 0 1 0 -6.66 0zM946.67 410 a3.33 3.33 0 1 0 6.66 0 a3.33 3.33 0 1 0 -6.66 0z" fill="rgba(126, 87, 194, 1)"></path><path d="M630 310L590 350L570 350" stroke-width="3.33" stroke="rgba(126, 87, 194, 1)"></path><path d="M626.67 310 a3.33 3.33 0 1 0 6.66 0 a3.33 3.33 0 1 0 -6.66 0zM566.67 350 a3.33 3.33 0 1 0 6.66 0 a3.33 3.33 0 1 0 -6.66 0z" fill="rgba(126, 87, 194, 1)"></path><path d="M790 50L790 170" stroke-width="3.33" stroke="rgba(126, 87, 194, 1)"></path><path d="M786.67 50 a3.33 3.33 0 1 0 6.66 0 a3.33 3.33 0 1 0 -6.66 0zM786.67 170 a3.33 3.33 0 1 0 6.66 0 a3.33 3.33 0 1 0 -6.66 0z" fill="rgba(126, 87, 194, 1)"></path><path d="M570 270L570 310L590 330" stroke-width="3.33" stroke="rgba(126, 87, 194, 1)"></path><path d="M566.67 270 a3.33 3.33 0 1 0 6.66 0 a3.33 3.33 0 1 0 -6.66 0zM586.67 330 a3.33 3.33 0 1 0 6.66 0 a3.33 3.33 0 1 0 -6.66 0z" fill="rgba(126, 87, 194, 1)"></path><path d="M410 230L450 190L450 170L430 150L390 150L370 130" stroke-width="3.33" stroke="rgba(126, 87, 194, 1)"></path><path d="M406.67 230 a3.33 3.33 0 1 0 6.66 0 a3.33 3.33 0 1 0 -6.66 0zM366.67 130 a3.33 3.33 0 1 0 6.66 0 a3.33 3.33 0 1 0 -6.66 0z" fill="rgba(126, 87, 194, 1)"></path><path d="M930 90L930 170" stroke-width="3.33" stroke="rgba(126, 87, 194, 1)"></path><path d="M926.67 90 a3.33 3.33 0 1 0 6.66 0 a3.33 3.33 0 1 0 -6.66 0zM926.67 170 a3.33 3.33 0 1 0 6.66 0 a3.33 3.33 0 1 0 -6.66 0z" fill="rgba(126, 87, 194, 1)"></path><path d="M1290 390L1330 390" stroke-width="3.33" stroke="rgba(126, 87, 194, 1)"></path><path d="M1286.67 390 a3.33 3.33 0 1 0 6.66 0 a3.33 3.33 0 1 0 -6.66 0zM1326.67 390 a3.33 3.33 0 1 0 6.66 0 a3.33 3.33 0 1 0 -6.66 0z" fill="rgba(126, 87, 194, 1)"></path><path d="M470 50L430 90L430 110L470 150L510 150L610 50" stroke-width="3.33" stroke="rgba(126, 87, 194, 1)"></path><path d="M466.67 50 a3.33 3.33 0 1 0 6.66 0 a3.33 3.33 0 1 0 -6.66 0zM606.67 50 a3.33 3.33 0 1 0 6.66 0 a3.33 3.33 0 1 0 -6.66 0z" fill="rgba(126, 87, 194, 1)"></path><path d="M1350 310L1410 310" stroke-width="3.33" stroke="rgba(126, 87, 194, 1)"></path><path d="M1346.67 310 a3.33 3.33 0 1 0 6.66 0 a3.33 3.33 0 1 0 -6.66 0zM1406.67 310 a3.33 3.33 0 1 0 6.66 0 a3.33 3.33 0 1 0 -6.66 0z" fill="rgba(126, 87, 194, 1)"></path><path d="M630 410L630 390L650 370" stroke-width="3.33" stroke="rgba(126, 87, 194, 1)"></path><path d="M626.67 410 a3.33 3.33 0 1 0 6.66 0 a3.33 3.33 0 1 0 -6.66 0zM646.67 370 a3.33 3.33 0 1 0 6.66 0 a3.33 3.33 0 1 0 -6.66 0z" fill="rgba(126, 87, 194, 1)"></path><path d="M510 250L510 310L530 330" stroke-width="3.33" stroke="rgba(126, 87, 194, 1)"></path><path d="M506.67 250 a3.33 3.33 0 1 0 6.66 0 a3.33 3.33 0 1 0 -6.66 0zM526.67 330 a3.33 3.33 0 1 0 6.66 0 a3.33 3.33 0 1 0 -6.66 0z" fill="rgba(126, 87, 194, 1)"></path><path d="M1010 430L1010 350" stroke-width="3.33" stroke="rgba(126, 87, 194, 1)"></path><path d="M1006.67 430 a3.33 3.33 0 1 0 6.66 0 a3.33 3.33 0 1 0 -6.66 0zM1006.67 350 a3.33 3.33 0 1 0 6.66 0 a3.33 3.33 0 1 0 -6.66 0z" fill="rgba(126, 87, 194, 1)"></path><path d="M90 430L70 450L10 450" stroke-width="3.33" stroke="rgba(126, 87, 194, 1)"></path><path d="M86.67 430 a3.33 3.33 0 1 0 6.66 0 a3.33 3.33 0 1 0 -6.66 0zM6.67 450 a3.33 3.33 0 1 0 6.66 0 a3.33 3.33 0 1 0 -6.66 0z" fill="rgba(126, 87, 194, 1)"></path><path d="M330 290L330 390L350 410" stroke-width="3.33" stroke="rgba(126, 87, 194, 1)"></path><path d="M326.67 290 a3.33 3.33 0 1 0 6.66 0 a3.33 3.33 0 1 0 -6.66 0zM346.67 410 a3.33 3.33 0 1 0 6.66 0 a3.33 3.33 0 1 0 -6.66 0z" fill="rgba(126, 87, 194, 1)"></path><path d="M510 70L510 90L530 110" stroke-width="3.33" stroke="rgba(126, 87, 194, 1)"></path><path d="M506.67 70 a3.33 3.33 0 1 0 6.66 0 a3.33 3.33 0 1 0 -6.66 0zM526.67 110 a3.33 3.33 0 1 0 6.66 0 a3.33 3.33 0 1 0 -6.66 0z" fill="rgba(126, 87, 194, 1)"></path><path d="M1370 550L1310 550" stroke-width="3.33" stroke="rgba(126, 87, 194, 1)"></path><path d="M1366.67 550 a3.33 3.33 0 1 0 6.66 0 a3.33 3.33 0 1 0 -6.66 0zM1306.67 550 a3.33 3.33 0 1 0 6.66 0 a3.33 3.33 0 1 0 -6.66 0z" fill="rgba(126, 87, 194, 1)"></path><path d="M650 410L710 410" stroke-width="3.33" stroke="rgba(126, 87, 194, 1)"></path><path d="M646.67 410 a3.33 3.33 0 1 0 6.66 0 a3.33 3.33 0 1 0 -6.66 0zM706.67 410 a3.33 3.33 0 1 0 6.66 0 a3.33 3.33 0 1 0 -6.66 0z" fill="rgba(126, 87, 194, 1)"></path><path d="M70 350L10 410L10 430" stroke-width="3.33" stroke="rgba(126, 87, 194, 1)"></path><path d="M66.67 350 a3.33 3.33 0 1 0 6.66 0 a3.33 3.33 0 1 0 -6.66 0zM6.67 430 a3.33 3.33 0 1 0 6.66 0 a3.33 3.33 0 1 0 -6.66 0z" fill="rgba(126, 87, 194, 1)"></path><path d="M810 410L770 410" stroke-width="3.33" stroke="rgba(126, 87, 194, 1)"></path><path d="M806.67 410 a3.33 3.33 0 1 0 6.66 0 a3.33 3.33 0 1 0 -6.66 0zM766.67 410 a3.33 3.33 0 1 0 6.66 0 a3.33 3.33 0 1 0 -6.66 0z" fill="rgba(126, 87, 194, 1)"></path><path d="M30 210L30 370L10 390" stroke-width="3.33" stroke="rgba(126, 87, 194, 1)"></path><path d="M26.67 210 a3.33 3.33 0 1 0 6.66 0 a3.33 3.33 0 1 0 -6.66 0zM6.67 390 a3.33 3.33 0 1 0 6.66 0 a3.33 3.33 0 1 0 -6.66 0z" fill="rgba(126, 87, 194, 1)"></path><path d="M890 450L870 470L850 470L830 450" stroke-width="3.33" stroke="rgba(126, 87, 194, 1)"></path><path d="M886.67 450 a3.33 3.33 0 1 0 6.66 0 a3.33 3.33 0 1 0 -6.66 0zM826.67 450 a3.33 3.33 0 1 0 6.66 0 a3.33 3.33 0 1 0 -6.66 0z" fill="rgba(126, 87, 194, 1)"></path><path d="M370 230L350 230L330 250L290 250" stroke-width="3.33" stroke="rgba(126, 87, 194, 1)"></path><path d="M366.67 230 a3.33 3.33 0 1 0 6.66 0 a3.33 3.33 0 1 0 -6.66 0zM286.67 250 a3.33 3.33 0 1 0 6.66 0 a3.33 3.33 0 1 0 -6.66 0z" fill="rgba(126, 87, 194, 1)"></path><path d="M1370 150L1350 170L1330 170" stroke-width="3.33" stroke="rgba(126, 87, 194, 1)"></path><path d="M1366.67 150 a3.33 3.33 0 1 0 6.66 0 a3.33 3.33 0 1 0 -6.66 0zM1326.67 170 a3.33 3.33 0 1 0 6.66 0 a3.33 3.33 0 1 0 -6.66 0z" fill="rgba(126, 87, 194, 1)"></path><path d="M950 350L950 330L970 310L990 310" stroke-width="3.33" stroke="rgba(126, 87, 194, 1)"></path><path d="M946.67 350 a3.33 3.33 0 1 0 6.66 0 a3.33 3.33 0 1 0 -6.66 0zM986.67 310 a3.33 3.33 0 1 0 6.66 0 a3.33 3.33 0 1 0 -6.66 0z" fill="rgba(126, 87, 194, 1)"></path><path d="M1230 410L1230 430L1250 450L1270 450L1310 410" stroke-width="3.33" stroke="rgba(126, 87, 194, 1)"></path><path d="M1226.67 410 a3.33 3.33 0 1 0 6.66 0 a3.33 3.33 0 1 0 -6.66 0zM1306.67 410 a3.33 3.33 0 1 0 6.66 0 a3.33 3.33 0 1 0 -6.66 0z" fill="rgba(126, 87, 194, 1)"></path><path d="M730 330L750 310L750 290" stroke-width="3.33" stroke="rgba(126, 87, 194, 1)"></path><path d="M726.67 330 a3.33 3.33 0 1 0 6.66 0 a3.33 3.33 0 1 0 -6.66 0zM746.67 290 a3.33 3.33 0 1 0 6.66 0 a3.33 3.33 0 1 0 -6.66 0z" fill="rgba(126, 87, 194, 1)"></path><path d="M470 250L430 290L410 290" stroke-width="3.33" stroke="rgba(126, 87, 194, 1)"></path><path d="M466.67 250 a3.33 3.33 0 1 0 6.66 0 a3.33 3.33 0 1 0 -6.66 0zM406.67 290 a3.33 3.33 0 1 0 6.66 0 a3.33 3.33 0 1 0 -6.66 0z" fill="rgba(126, 87, 194, 1)"></path><path d="M1230 330L1170 390L1150 390" stroke-width="3.33" stroke="rgba(126, 87, 194, 1)"></path><path d="M1226.67 330 a3.33 3.33 0 1 0 6.66 0 a3.33 3.33 0 1 0 -6.66 0zM1146.67 390 a3.33 3.33 0 1 0 6.66 0 a3.33 3.33 0 1 0 -6.66 0z" fill="rgba(126, 87, 194, 1)"></path><path d="M710 70L770 130L770 150" stroke-width="3.33" stroke="rgba(126, 87, 194, 1)"></path><path d="M706.67 70 a3.33 3.33 0 1 0 6.66 0 a3.33 3.33 0 1 0 -6.66 0zM766.67 150 a3.33 3.33 0 1 0 6.66 0 a3.33 3.33 0 1 0 -6.66 0z" fill="rgba(126, 87, 194, 1)"></path><path d="M230 490L290 550L350 550" stroke-width="3.33" stroke="rgba(126, 87, 194, 1)"></path><path d="M226.67 490 a3.33 3.33 0 1 0 6.66 0 a3.33 3.33 0 1 0 -6.66 0zM346.67 550 a3.33 3.33 0 1 0 6.66 0 a3.33 3.33 0 1 0 -6.66 0z" fill="rgba(126, 87, 194, 1)"></path><path d="M810 90L810 170" stroke-width="3.33" stroke="rgba(126, 87, 194, 1)"></path><path d="M806.67 90 a3.33 3.33 0 1 0 6.66 0 a3.33 3.33 0 1 0 -6.66 0zM806.67 170 a3.33 3.33 0 1 0 6.66 0 a3.33 3.33 0 1 0 -6.66 0z" fill="rgba(126, 87, 194, 1)"></path><path d="M750 90L750 50" stroke-width="3.33" stroke="rgba(126, 87, 194, 1)"></path><path d="M746.67 90 a3.33 3.33 0 1 0 6.66 0 a3.33 3.33 0 1 0 -6.66 0zM746.67 50 a3.33 3.33 0 1 0 6.66 0 a3.33 3.33 0 1 0 -6.66 0z" fill="rgba(126, 87, 194, 1)"></path><path d="M1110 430L1130 450L1130 470L1110 490L1090 490" stroke-width="3.33" stroke="rgba(126, 87, 194, 1)"></path><path d="M1106.67 430 a3.33 3.33 0 1 0 6.66 0 a3.33 3.33 0 1 0 -6.66 0zM1086.67 490 a3.33 3.33 0 1 0 6.66 0 a3.33 3.33 0 1 0 -6.66 0z" fill="rgba(126, 87, 194, 1)"></path><path d="M170 90L250 170" stroke-width="3.33" stroke="rgba(126, 87, 194, 1)"></path><path d="M166.67 90 a3.33 3.33 0 1 0 6.66 0 a3.33 3.33 0 1 0 -6.66 0zM246.67 170 a3.33 3.33 0 1 0 6.66 0 a3.33 3.33 0 1 0 -6.66 0z" fill="rgba(126, 87, 194, 1)"></path><path d="M850 270L810 270" stroke-width="3.33" stroke="rgba(126, 87, 194, 1)"></path><path d="M846.67 270 a3.33 3.33 0 1 0 6.66 0 a3.33 3.33 0 1 0 -6.66 0zM806.67 270 a3.33 3.33 0 1 0 6.66 0 a3.33 3.33 0 1 0 -6.66 0z" fill="rgba(126, 87, 194, 1)"></path><path d="M990 430L990 470L950 510" stroke-width="3.33" stroke="rgba(126, 87, 194, 1)"></path><path d="M986.67 430 a3.33 3.33 0 1 0 6.66 0 a3.33 3.33 0 1 0 -6.66 0zM946.67 510 a3.33 3.33 0 1 0 6.66 0 a3.33 3.33 0 1 0 -6.66 0z" fill="rgba(126, 87, 194, 1)"></path><path d="M670 190L670 210L690 230" stroke-width="3.33" stroke="rgba(126, 87, 194, 1)"></path><path d="M666.67 190 a3.33 3.33 0 1 0 6.66 0 a3.33 3.33 0 1 0 -6.66 0zM686.67 230 a3.33 3.33 0 1 0 6.66 0 a3.33 3.33 0 1 0 -6.66 0z" fill="rgba(126, 87, 194, 1)"></path><path d="M870 70L870 30" stroke-width="3.33" stroke="rgba(126, 87, 194, 1)"></path><path d="M866.67 70 a3.33 3.33 0 1 0 6.66 0 a3.33 3.33 0 1 0 -6.66 0zM866.67 30 a3.33 3.33 0 1 0 6.66 0 a3.33 3.33 0 1 0 -6.66 0z" fill="rgba(126, 87, 194, 1)"></path><path d="M1290 90L1330 130L1330 150" stroke-width="3.33" stroke="rgba(126, 87, 194, 1)"></path><path d="M1286.67 90 a3.33 3.33 0 1 0 6.66 0 a3.33 3.33 0 1 0 -6.66 0zM1326.67 150 a3.33 3.33 0 1 0 6.66 0 a3.33 3.33 0 1 0 -6.66 0z" fill="rgba(126, 87, 194, 1)"></path><path d="M1150 490L1130 510L1130 530" stroke-width="3.33" stroke="rgba(126, 87, 194, 1)"></path><path d="M1146.67 490 a3.33 3.33 0 1 0 6.66 0 a3.33 3.33 0 1 0 -6.66 0zM1126.67 530 a3.33 3.33 0 1 0 6.66 0 a3.33 3.33 0 1 0 -6.66 0z" fill="rgba(126, 87, 194, 1)"></path><path d="M650 130L670 130L710 170" stroke-width="3.33" stroke="rgba(126, 87, 194, 1)"></path><path d="M646.67 130 a3.33 3.33 0 1 0 6.66 0 a3.33 3.33 0 1 0 -6.66 0zM706.67 170 a3.33 3.33 0 1 0 6.66 0 a3.33 3.33 0 1 0 -6.66 0z" fill="rgba(126, 87, 194, 1)"></path><path d="M1090 410L1130 410L1150 430" stroke-width="3.33" stroke="rgba(126, 87, 194, 1)"></path><path d="M1086.67 410 a3.33 3.33 0 1 0 6.66 0 a3.33 3.33 0 1 0 -6.66 0zM1146.67 430 a3.33 3.33 0 1 0 6.66 0 a3.33 3.33 0 1 0 -6.66 0z" fill="rgba(126, 87, 194, 1)"></path><path d="M1250 110L1290 150L1290 170" stroke-width="3.33" stroke="rgba(126, 87, 194, 1)"></path><path d="M1246.67 110 a3.33 3.33 0 1 0 6.66 0 a3.33 3.33 0 1 0 -6.66 0zM1286.67 170 a3.33 3.33 0 1 0 6.66 0 a3.33 3.33 0 1 0 -6.66 0z" fill="rgba(126, 87, 194, 1)"></path><path d="M150 390L70 310" stroke-width="3.33" stroke="rgba(126, 87, 194, 1)"></path><path d="M146.67 390 a3.33 3.33 0 1 0 6.66 0 a3.33 3.33 0 1 0 -6.66 0zM66.67 310 a3.33 3.33 0 1 0 6.66 0 a3.33 3.33 0 1 0 -6.66 0z" fill="rgba(126, 87, 194, 1)"></path><path d="M470 130L510 130" stroke-width="3.33" stroke="rgba(126, 87, 194, 1)"></path><path d="M466.67 130 a3.33 3.33 0 1 0 6.66 0 a3.33 3.33 0 1 0 -6.66 0zM506.67 130 a3.33 3.33 0 1 0 6.66 0 a3.33 3.33 0 1 0 -6.66 0z" fill="rgba(126, 87, 194, 1)"></path><path d="M10 90L30 110L90 110" stroke-width="3.33" stroke="rgba(126, 87, 194, 1)"></path><path d="M6.67 90 a3.33 3.33 0 1 0 6.66 0 a3.33 3.33 0 1 0 -6.66 0zM86.67 110 a3.33 3.33 0 1 0 6.66 0 a3.33 3.33 0 1 0 -6.66 0z" fill="rgba(126, 87, 194, 1)"></path><path d="M10 250L10 370" stroke-width="3.33" stroke="rgba(126, 87, 194, 1)"></path><path d="M6.67 250 a3.33 3.33 0 1 0 6.66 0 a3.33 3.33 0 1 0 -6.66 0zM6.67 370 a3.33 3.33 0 1 0 6.66 0 a3.33 3.33 0 1 0 -6.66 0z" fill="rgba(126, 87, 194, 1)"></path><path d="M1050 470L1050 510" stroke-width="3.33" stroke="rgba(126, 87, 194, 1)"></path><path d="M1046.67 470 a3.33 3.33 0 1 0 6.66 0 a3.33 3.33 0 1 0 -6.66 0zM1046.67 510 a3.33 3.33 0 1 0 6.66 0 a3.33 3.33 0 1 0 -6.66 0z" fill="rgba(126, 87, 194, 1)"></path><path d="M270 70L330 70" stroke-width="3.33" stroke="rgba(126, 87, 194, 1)"></path><path d="M266.67 70 a3.33 3.33 0 1 0 6.66 0 a3.33 3.33 0 1 0 -6.66 0zM326.67 70 a3.33 3.33 0 1 0 6.66 0 a3.33 3.33 0 1 0 -6.66 0z" fill="rgba(126, 87, 194, 1)"></path><path d="M70 390L70 430" stroke-width="3.33" stroke="rgba(126, 87, 194, 1)"></path><path d="M66.67 390 a3.33 3.33 0 1 0 6.66 0 a3.33 3.33 0 1 0 -6.66 0zM66.67 430 a3.33 3.33 0 1 0 6.66 0 a3.33 3.33 0 1 0 -6.66 0z" fill="rgba(126, 87, 194, 1)"></path><path d="M1030 70L1030 50L1010 30L930 30" stroke-width="3.33" stroke="rgba(126, 87, 194, 1)"></path><path d="M1026.67 70 a3.33 3.33 0 1 0 6.66 0 a3.33 3.33 0 1 0 -6.66 0zM926.67 30 a3.33 3.33 0 1 0 6.66 0 a3.33 3.33 0 1 0 -6.66 0z" fill="rgba(126, 87, 194, 1)"></path><path d="M150 450L150 410L90 350" stroke-width="3.33" stroke="rgba(126, 87, 194, 1)"></path><path d="M146.67 450 a3.33 3.33 0 1 0 6.66 0 a3.33 3.33 0 1 0 -6.66 0zM86.67 350 a3.33 3.33 0 1 0 6.66 0 a3.33 3.33 0 1 0 -6.66 0z" fill="rgba(126, 87, 194, 1)"></path><path d="M1190 510L1170 490L1170 470" stroke-width="3.33" stroke="rgba(126, 87, 194, 1)"></path><path d="M1186.67 510 a3.33 3.33 0 1 0 6.66 0 a3.33 3.33 0 1 0 -6.66 0zM1166.67 470 a3.33 3.33 0 1 0 6.66 0 a3.33 3.33 0 1 0 -6.66 0z" fill="rgba(126, 87, 194, 1)"></path><path d="M910 410L870 410L850 430L850 450" stroke-width="3.33" stroke="rgba(126, 87, 194, 1)"></path><path d="M906.67 410 a3.33 3.33 0 1 0 6.66 0 a3.33 3.33 0 1 0 -6.66 0zM846.67 450 a3.33 3.33 0 1 0 6.66 0 a3.33 3.33 0 1 0 -6.66 0z" fill="rgba(126, 87, 194, 1)"></path><path d="M890 430L930 430" stroke-width="3.33" stroke="rgba(126, 87, 194, 1)"></path><path d="M886.67 430 a3.33 3.33 0 1 0 6.66 0 a3.33 3.33 0 1 0 -6.66 0zM926.67 430 a3.33 3.33 0 1 0 6.66 0 a3.33 3.33 0 1 0 -6.66 0z" fill="rgba(126, 87, 194, 1)"></path><path d="M470 410L550 490L550 510" stroke-width="3.33" stroke="rgba(126, 87, 194, 1)"></path><path d="M466.67 410 a3.33 3.33 0 1 0 6.66 0 a3.33 3.33 0 1 0 -6.66 0zM546.67 510 a3.33 3.33 0 1 0 6.66 0 a3.33 3.33 0 1 0 -6.66 0z" fill="rgba(126, 87, 194, 1)"></path><path d="M830 390L790 390" stroke-width="3.33" stroke="rgba(126, 87, 194, 1)"></path><path d="M826.67 390 a3.33 3.33 0 1 0 6.66 0 a3.33 3.33 0 1 0 -6.66 0zM786.67 390 a3.33 3.33 0 1 0 6.66 0 a3.33 3.33 0 1 0 -6.66 0z" fill="rgba(126, 87, 194, 1)"></path><path d="M110 550L130 530L150 530L170 550L210 550" stroke-width="3.33" stroke="rgba(126, 87, 194, 1)"></path><path d="M106.67 550 a3.33 3.33 0 1 0 6.66 0 a3.33 3.33 0 1 0 -6.66 0zM206.67 550 a3.33 3.33 0 1 0 6.66 0 a3.33 3.33 0 1 0 -6.66 0z" fill="rgba(126, 87, 194, 1)"></path><path d="M390 30L350 30" stroke-width="3.33" stroke="rgba(126, 87, 194, 1)"></path><path d="M386.67 30 a3.33 3.33 0 1 0 6.66 0 a3.33 3.33 0 1 0 -6.66 0zM346.67 30 a3.33 3.33 0 1 0 6.66 0 a3.33 3.33 0 1 0 -6.66 0z" fill="rgba(126, 87, 194, 1)"></path><path d="M830 210L850 230L890 230" stroke-width="3.33" stroke="rgba(126, 87, 194, 1)"></path><path d="M826.67 210 a3.33 3.33 0 1 0 6.66 0 a3.33 3.33 0 1 0 -6.66 0zM886.67 230 a3.33 3.33 0 1 0 6.66 0 a3.33 3.33 0 1 0 -6.66 0z" fill="rgba(126, 87, 194, 1)"></path><path d="M530 270L530 310" stroke-width="3.33" stroke="rgba(126, 87, 194, 1)"></path><path d="M526.67 270 a3.33 3.33 0 1 0 6.66 0 a3.33 3.33 0 1 0 -6.66 0zM526.67 310 a3.33 3.33 0 1 0 6.66 0 a3.33 3.33 0 1 0 -6.66 0z" fill="rgba(126, 87, 194, 1)"></path><path d="M810 510L750 510L710 470" stroke-width="3.33" stroke="rgba(126, 87, 194, 1)"></path><path d="M806.67 510 a3.33 3.33 0 1 0 6.66 0 a3.33 3.33 0 1 0 -6.66 0zM706.67 470 a3.33 3.33 0 1 0 6.66 0 a3.33 3.33 0 1 0 -6.66 0z" fill="rgba(126, 87, 194, 1)"></path><path d="M530 450L530 430L490 390L470 390" stroke-width="3.33" stroke="rgba(126, 87, 194, 1)"></path><path d="M526.67 450 a3.33 3.33 0 1 0 6.66 0 a3.33 3.33 0 1 0 -6.66 0zM466.67 390 a3.33 3.33 0 1 0 6.66 0 a3.33 3.33 0 1 0 -6.66 0z" fill="rgba(126, 87, 194, 1)"></path><path d="M330 510L310 530L290 530L250 490" stroke-width="3.33" stroke="rgba(126, 87, 194, 1)"></path><path d="M326.67 510 a3.33 3.33 0 1 0 6.66 0 a3.33 3.33 0 1 0 -6.66 0zM246.67 490 a3.33 3.33 0 1 0 6.66 0 a3.33 3.33 0 1 0 -6.66 0z" fill="rgba(126, 87, 194, 1)"></path><path d="M430 370L410 390L350 390" stroke-width="3.33" stroke="rgba(126, 87, 194, 1)"></path><path d="M426.67 370 a3.33 3.33 0 1 0 6.66 0 a3.33 3.33 0 1 0 -6.66 0zM346.67 390 a3.33 3.33 0 1 0 6.66 0 a3.33 3.33 0 1 0 -6.66 0z" fill="rgba(126, 87, 194, 1)"></path><path d="M670 150L610 150" stroke-width="3.33" stroke="rgba(126, 87, 194, 1)"></path><path d="M666.67 150 a3.33 3.33 0 1 0 6.66 0 a3.33 3.33 0 1 0 -6.66 0zM606.67 150 a3.33 3.33 0 1 0 6.66 0 a3.33 3.33 0 1 0 -6.66 0z" fill="rgba(126, 87, 194, 1)"></path><path d="M870 350L830 350L810 370" stroke-width="3.33" stroke="rgba(126, 87, 194, 1)"></path><path d="M866.67 350 a3.33 3.33 0 1 0 6.66 0 a3.33 3.33 0 1 0 -6.66 0zM806.67 370 a3.33 3.33 0 1 0 6.66 0 a3.33 3.33 0 1 0 -6.66 0z" fill="rgba(126, 87, 194, 1)"></path><path d="M230 530L250 550L270 550" stroke-width="3.33" stroke="rgba(126, 87, 194, 1)"></path><path d="M226.67 530 a3.33 3.33 0 1 0 6.66 0 a3.33 3.33 0 1 0 -6.66 0zM266.67 550 a3.33 3.33 0 1 0 6.66 0 a3.33 3.33 0 1 0 -6.66 0z" fill="rgba(126, 87, 194, 1)"></path><path d="M1210 250L1170 250" stroke-width="3.33" stroke="rgba(126, 87, 194, 1)"></path><path d="M1206.67 250 a3.33 3.33 0 1 0 6.66 0 a3.33 3.33 0 1 0 -6.66 0zM1166.67 250 a3.33 3.33 0 1 0 6.66 0 a3.33 3.33 0 1 0 -6.66 0z" fill="rgba(126, 87, 194, 1)"></path><path d="M1350 490L1370 510L1390 510" stroke-width="3.33" stroke="rgba(126, 87, 194, 1)"></path><path d="M1346.67 490 a3.33 3.33 0 1 0 6.66 0 a3.33 3.33 0 1 0 -6.66 0zM1386.67 510 a3.33 3.33 0 1 0 6.66 0 a3.33 3.33 0 1 0 -6.66 0z" fill="rgba(126, 87, 194, 1)"></path><path d="M530 90L550 70L570 70" stroke-width="3.33" stroke="rgba(126, 87, 194, 1)"></path><path d="M526.67 90 a3.33 3.33 0 1 0 6.66 0 a3.33 3.33 0 1 0 -6.66 0zM566.67 70 a3.33 3.33 0 1 0 6.66 0 a3.33 3.33 0 1 0 -6.66 0z" fill="rgba(126, 87, 194, 1)"></path><path d="M870 90L890 70L890 30" stroke-width="3.33" stroke="rgba(126, 87, 194, 1)"></path><path d="M866.67 90 a3.33 3.33 0 1 0 6.66 0 a3.33 3.33 0 1 0 -6.66 0zM886.67 30 a3.33 3.33 0 1 0 6.66 0 a3.33 3.33 0 1 0 -6.66 0z" fill="rgba(126, 87, 194, 1)"></path><path d="M1230 230L1170 230" stroke-width="3.33" stroke="rgba(126, 87, 194, 1)"></path><path d="M1226.67 230 a3.33 3.33 0 1 0 6.66 0 a3.33 3.33 0 1 0 -6.66 0zM1166.67 230 a3.33 3.33 0 1 0 6.66 0 a3.33 3.33 0 1 0 -6.66 0z" fill="rgba(126, 87, 194, 1)"></path><path d="M1050 350L1050 310" stroke-width="3.33" stroke="rgba(126, 87, 194, 1)"></path><path d="M1046.67 350 a3.33 3.33 0 1 0 6.66 0 a3.33 3.33 0 1 0 -6.66 0zM1046.67 310 a3.33 3.33 0 1 0 6.66 0 a3.33 3.33 0 1 0 -6.66 0z" fill="rgba(126, 87, 194, 1)"></path><path d="M190 350L230 350" stroke-width="3.33" stroke="rgba(126, 87, 194, 1)"></path><path d="M186.67 350 a3.33 3.33 0 1 0 6.66 0 a3.33 3.33 0 1 0 -6.66 0zM226.67 350 a3.33 3.33 0 1 0 6.66 0 a3.33 3.33 0 1 0 -6.66 0z" fill="rgba(126, 87, 194, 1)"></path><path d="M330 490L290 490" stroke-width="3.33" stroke="rgba(126, 87, 194, 1)"></path><path d="M326.67 490 a3.33 3.33 0 1 0 6.66 0 a3.33 3.33 0 1 0 -6.66 0zM286.67 490 a3.33 3.33 0 1 0 6.66 0 a3.33 3.33 0 1 0 -6.66 0z" fill="rgba(126, 87, 194, 1)"></path><path d="M130 90L150 70L170 70" stroke-width="3.33" stroke="rgba(126, 87, 194, 1)"></path><path d="M126.67 90 a3.33 3.33 0 1 0 6.66 0 a3.33 3.33 0 1 0 -6.66 0zM166.67 70 a3.33 3.33 0 1 0 6.66 0 a3.33 3.33 0 1 0 -6.66 0z" fill="rgba(126, 87, 194, 1)"></path><path d="M90 50L150 50" stroke-width="3.33" stroke="rgba(126, 87, 194, 1)"></path><path d="M86.67 50 a3.33 3.33 0 1 0 6.66 0 a3.33 3.33 0 1 0 -6.66 0zM146.67 50 a3.33 3.33 0 1 0 6.66 0 a3.33 3.33 0 1 0 -6.66 0z" fill="rgba(126, 87, 194, 1)"></path><path d="M1190 210L1290 210" stroke-width="3.33" stroke="rgba(126, 87, 194, 1)"></path><path d="M1186.67 210 a3.33 3.33 0 1 0 6.66 0 a3.33 3.33 0 1 0 -6.66 0zM1286.67 210 a3.33 3.33 0 1 0 6.66 0 a3.33 3.33 0 1 0 -6.66 0z" fill="rgba(126, 87, 194, 1)"></path><path d="M1010 230L1010 270" stroke-width="3.33" stroke="rgba(126, 87, 194, 1)"></path><path d="M1006.67 230 a3.33 3.33 0 1 0 6.66 0 a3.33 3.33 0 1 0 -6.66 0zM1006.67 270 a3.33 3.33 0 1 0 6.66 0 a3.33 3.33 0 1 0 -6.66 0z" fill="rgba(126, 87, 194, 1)"></path><path d="M110 230L130 250L130 290" stroke-width="3.33" stroke="rgba(126, 87, 194, 1)"></path><path d="M106.67 230 a3.33 3.33 0 1 0 6.66 0 a3.33 3.33 0 1 0 -6.66 0zM126.67 290 a3.33 3.33 0 1 0 6.66 0 a3.33 3.33 0 1 0 -6.66 0z" fill="rgba(126, 87, 194, 1)"></path><path d="M210 190L190 210L170 210" stroke-width="3.33" stroke="rgba(126, 87, 194, 1)"></path><path d="M206.67 190 a3.33 3.33 0 1 0 6.66 0 a3.33 3.33 0 1 0 -6.66 0zM166.67 210 a3.33 3.33 0 1 0 6.66 0 a3.33 3.33 0 1 0 -6.66 0z" fill="rgba(126, 87, 194, 1)"></path><path d="M50 210L90 210" stroke-width="3.33" stroke="rgba(126, 87, 194, 1)"></path><path d="M46.67 210 a3.33 3.33 0 1 0 6.66 0 a3.33 3.33 0 1 0 -6.66 0zM86.67 210 a3.33 3.33 0 1 0 6.66 0 a3.33 3.33 0 1 0 -6.66 0z" fill="rgba(126, 87, 194, 1)"></path><path d="M70 230L90 230L110 250" stroke-width="3.33" stroke="rgba(126, 87, 194, 1)"></path><path d="M66.67 230 a3.33 3.33 0 1 0 6.66 0 a3.33 3.33 0 1 0 -6.66 0zM106.67 250 a3.33 3.33 0 1 0 6.66 0 a3.33 3.33 0 1 0 -6.66 0z" fill="rgba(126, 87, 194, 1)"></path><path d="M770 50L770 110" stroke-width="3.33" stroke="rgba(126, 87, 194, 1)"></path><path d="M766.67 50 a3.33 3.33 0 1 0 6.66 0 a3.33 3.33 0 1 0 -6.66 0zM766.67 110 a3.33 3.33 0 1 0 6.66 0 a3.33 3.33 0 1 0 -6.66 0z" fill="rgba(126, 87, 194, 1)"></path><path d="M290 210L330 210" stroke-width="3.33" stroke="rgba(126, 87, 194, 1)"></path><path d="M286.67 210 a3.33 3.33 0 1 0 6.66 0 a3.33 3.33 0 1 0 -6.66 0zM326.67 210 a3.33 3.33 0 1 0 6.66 0 a3.33 3.33 0 1 0 -6.66 0z" fill="rgba(126, 87, 194, 1)"></path><path d="M1290 250L1310 230L1330 230" stroke-width="3.33" stroke="rgba(126, 87, 194, 1)"></path><path d="M1286.67 250 a3.33 3.33 0 1 0 6.66 0 a3.33 3.33 0 1 0 -6.66 0zM1326.67 230 a3.33 3.33 0 1 0 6.66 0 a3.33 3.33 0 1 0 -6.66 0z" fill="rgba(126, 87, 194, 1)"></path><path d="M470 70L490 70L510 50" stroke-width="3.33" stroke="rgba(126, 87, 194, 1)"></path><path d="M466.67 70 a3.33 3.33 0 1 0 6.66 0 a3.33 3.33 0 1 0 -6.66 0zM506.67 50 a3.33 3.33 0 1 0 6.66 0 a3.33 3.33 0 1 0 -6.66 0z" fill="rgba(126, 87, 194, 1)"></path><path d="M1390 250L1350 250" stroke-width="3.33" stroke="rgba(126, 87, 194, 1)"></path><path d="M1386.67 250 a3.33 3.33 0 1 0 6.66 0 a3.33 3.33 0 1 0 -6.66 0zM1346.67 250 a3.33 3.33 0 1 0 6.66 0 a3.33 3.33 0 1 0 -6.66 0z" fill="rgba(126, 87, 194, 1)"></path><path d="M1270 90L1290 110L1290 130" stroke-width="3.33" stroke="rgba(126, 87, 194, 1)"></path><path d="M1266.67 90 a3.33 3.33 0 1 0 6.66 0 a3.33 3.33 0 1 0 -6.66 0zM1286.67 130 a3.33 3.33 0 1 0 6.66 0 a3.33 3.33 0 1 0 -6.66 0z" fill="rgba(126, 87, 194, 1)"></path><path d="M510 470L510 490L530 510" stroke-width="3.33" stroke="rgba(126, 87, 194, 1)"></path><path d="M506.67 470 a3.33 3.33 0 1 0 6.66 0 a3.33 3.33 0 1 0 -6.66 0zM526.67 510 a3.33 3.33 0 1 0 6.66 0 a3.33 3.33 0 1 0 -6.66 0z" fill="rgba(126, 87, 194, 1)"></path><path d="M510 110L450 110" stroke-width="3.33" stroke="rgba(126, 87, 194, 1)"></path><path d="M506.67 110 a3.33 3.33 0 1 0 6.66 0 a3.33 3.33 0 1 0 -6.66 0zM446.67 110 a3.33 3.33 0 1 0 6.66 0 a3.33 3.33 0 1 0 -6.66 0z" fill="rgba(126, 87, 194, 1)"></path><path d="M1170 10L1130 10" stroke-width="3.33" stroke="rgba(126, 87, 194, 1)"></path><path d="M1166.67 10 a3.33 3.33 0 1 0 6.66 0 a3.33 3.33 0 1 0 -6.66 0zM1126.67 10 a3.33 3.33 0 1 0 6.66 0 a3.33 3.33 0 1 0 -6.66 0z" fill="rgba(126, 87, 194, 1)"></path><path d="M790 490L750 490" stroke-width="3.33" stroke="rgba(126, 87, 194, 1)"></path><path d="M786.67 490 a3.33 3.33 0 1 0 6.66 0 a3.33 3.33 0 1 0 -6.66 0zM746.67 490 a3.33 3.33 0 1 0 6.66 0 a3.33 3.33 0 1 0 -6.66 0z" fill="rgba(126, 87, 194, 1)"></path><path d="M270 410L230 410" stroke-width="3.33" stroke="rgba(126, 87, 194, 1)"></path><path d="M266.67 410 a3.33 3.33 0 1 0 6.66 0 a3.33 3.33 0 1 0 -6.66 0zM226.67 410 a3.33 3.33 0 1 0 6.66 0 a3.33 3.33 0 1 0 -6.66 0z" fill="rgba(126, 87, 194, 1)"></path><path d="M390 370L350 370" stroke-width="3.33" stroke="rgba(126, 87, 194, 1)"></path><path d="M386.67 370 a3.33 3.33 0 1 0 6.66 0 a3.33 3.33 0 1 0 -6.66 0zM346.67 370 a3.33 3.33 0 1 0 6.66 0 a3.33 3.33 0 1 0 -6.66 0z" fill="rgba(126, 87, 194, 1)"></path><path d="M90 250L50 250" stroke-width="3.33" stroke="rgba(126, 87, 194, 1)"></path><path d="M86.67 250 a3.33 3.33 0 1 0 6.66 0 a3.33 3.33 0 1 0 -6.66 0zM46.67 250 a3.33 3.33 0 1 0 6.66 0 a3.33 3.33 0 1 0 -6.66 0z" fill="rgba(126, 87, 194, 1)"></path><path d="M1190 470L1230 470" stroke-width="3.33" stroke="rgba(126, 87, 194, 1)"></path><path d="M1186.67 470 a3.33 3.33 0 1 0 6.66 0 a3.33 3.33 0 1 0 -6.66 0zM1226.67 470 a3.33 3.33 0 1 0 6.66 0 a3.33 3.33 0 1 0 -6.66 0z" fill="rgba(126, 87, 194, 1)"></path><path d="M290 230L330 230" stroke-width="3.33" stroke="rgba(126, 87, 194, 1)"></path><path d="M286.67 230 a3.33 3.33 0 1 0 6.66 0 a3.33 3.33 0 1 0 -6.66 0zM326.67 230 a3.33 3.33 0 1 0 6.66 0 a3.33 3.33 0 1 0 -6.66 0z" fill="rgba(126, 87, 194, 1)"></path><path d="M490 90L450 90" stroke-width="3.33" stroke="rgba(126, 87, 194, 1)"></path><path d="M486.67 90 a3.33 3.33 0 1 0 6.66 0 a3.33 3.33 0 1 0 -6.66 0zM446.67 90 a3.33 3.33 0 1 0 6.66 0 a3.33 3.33 0 1 0 -6.66 0z" fill="rgba(126, 87, 194, 1)"></path></g></g><defs><mask id="SvgjsMask1097"><rect width="1420" height="560" fill="#ffffff"></rect></mask></defs></svg>