<svg xmlns="http://www.w3.org/2000/svg" version="1.1" xmlns:xlink="http://www.w3.org/1999/xlink" xmlns:svgjs="http://svgjs.dev/svgjs" width="1420" height="560" preserveAspectRatio="none" viewBox="0 0 1420 560"><g mask="url(&quot;#SvgjsMask1109&quot;)" fill="none"><g mask="url(&quot;#SvgjsMask1110&quot;)"><path d="M1110 130L1410 430L1410 510" stroke-width="3.33" stroke="rgba(138, 43, 226, 1)"></path><path d="M1105 130 a5 5 0 1 0 10 0 a5 5 0 1 0 -10 0zM1405 510 a5 5 0 1 0 10 0 a5 5 0 1 0 -10 0z" fill="rgba(138, 43, 226, 1)"></path><path d="M910 350L1010 450L1170 450L1190 430L1190 330" stroke-width="3.33" stroke="rgba(138, 43, 226, 1)"></path><path d="M905 350 a5 5 0 1 0 10 0 a5 5 0 1 0 -10 0zM1185 330 a5 5 0 1 0 10 0 a5 5 0 1 0 -10 0z" fill="rgba(138, 43, 226, 1)"></path><path d="M770 430L770 370L730 330L730 50" stroke-width="3.33" stroke="rgba(138, 43, 226, 1)"></path><path d="M765 430 a5 5 0 1 0 10 0 a5 5 0 1 0 -10 0zM725 50 a5 5 0 1 0 10 0 a5 5 0 1 0 -10 0z" fill="rgba(138, 43, 226, 1)"></path><path d="M1090 50L1130 10L1230 10L1370 150L1410 150" stroke-width="3.33" stroke="rgba(138, 43, 226, 1)"></path><path d="M1085 50 a5 5 0 1 0 10 0 a5 5 0 1 0 -10 0zM1405 150 a5 5 0 1 0 10 0 a5 5 0 1 0 -10 0z" fill="rgba(138, 43, 226, 1)"></path><path d="M750 210L1110 210L1130 190" stroke-width="3.33" stroke="rgba(138, 43, 226, 1)"></path><path d="M745 210 a5 5 0 1 0 10 0 a5 5 0 1 0 -10 0zM1125 190 a5 5 0 1 0 10 0 a5 5 0 1 0 -10 0z" fill="rgba(138, 43, 226, 1)"></path><path d="M670 150L710 150" stroke-width="3.33" stroke="rgba(138, 43, 226, 1)"></path><path d="M665 150 a5 5 0 1 0 10 0 a5 5 0 1 0 -10 0zM705 150 a5 5 0 1 0 10 0 a5 5 0 1 0 -10 0z" fill="rgba(138, 43, 226, 1)"></path><path d="M1210 150L1150 150L1010 10L830 10" stroke-width="3.33" stroke="rgba(138, 43, 226, 1)"></path><path d="M1205 150 a5 5 0 1 0 10 0 a5 5 0 1 0 -10 0zM825 10 a5 5 0 1 0 10 0 a5 5 0 1 0 -10 0z" fill="rgba(138, 43, 226, 1)"></path><path d="M1290 390L1310 370L1330 370L1390 430L1390 550" stroke-width="3.33" stroke="rgba(138, 43, 226, 1)"></path><path d="M1285 390 a5 5 0 1 0 10 0 a5 5 0 1 0 -10 0zM1385 550 a5 5 0 1 0 10 0 a5 5 0 1 0 -10 0z" fill="rgba(138, 43, 226, 1)"></path><path d="M390 290L450 350L670 350L770 450" stroke-width="3.33" stroke="rgba(138, 43, 226, 1)"></path><path d="M385 290 a5 5 0 1 0 10 0 a5 5 0 1 0 -10 0zM765 450 a5 5 0 1 0 10 0 a5 5 0 1 0 -10 0z" fill="rgba(138, 43, 226, 1)"></path><path d="M570 290L470 190L470 10" stroke-width="3.33" stroke="rgba(138, 43, 226, 1)"></path><path d="M565 290 a5 5 0 1 0 10 0 a5 5 0 1 0 -10 0zM465 10 a5 5 0 1 0 10 0 a5 5 0 1 0 -10 0z" fill="rgba(138, 43, 226, 1)"></path><path d="M970 370L970 390L1010 430L1170 430" stroke-width="3.33" stroke="rgba(138, 43, 226, 1)"></path><path d="M965 370 a5 5 0 1 0 10 0 a5 5 0 1 0 -10 0zM1165 430 a5 5 0 1 0 10 0 a5 5 0 1 0 -10 0z" fill="rgba(138, 43, 226, 1)"></path><path d="M930 450L930 390L830 290L750 290" stroke-width="3.33" stroke="rgba(138, 43, 226, 1)"></path><path d="M925 450 a5 5 0 1 0 10 0 a5 5 0 1 0 -10 0zM745 290 a5 5 0 1 0 10 0 a5 5 0 1 0 -10 0z" fill="rgba(138, 43, 226, 1)"></path><path d="M990 70L990 30" stroke-width="3.33" stroke="rgba(138, 43, 226, 1)"></path><path d="M985 70 a5 5 0 1 0 10 0 a5 5 0 1 0 -10 0zM985 30 a5 5 0 1 0 10 0 a5 5 0 1 0 -10 0z" fill="rgba(138, 43, 226, 1)"></path><path d="M510 450L550 490L730 490L790 550L890 550" stroke-width="3.33" stroke="rgba(138, 43, 226, 1)"></path><path d="M505 450 a5 5 0 1 0 10 0 a5 5 0 1 0 -10 0zM885 550 a5 5 0 1 0 10 0 a5 5 0 1 0 -10 0z" fill="rgba(138, 43, 226, 1)"></path><path d="M470 290L470 230L310 70L150 70" stroke-width="3.33" stroke="rgba(138, 43, 226, 1)"></path><path d="M465 290 a5 5 0 1 0 10 0 a5 5 0 1 0 -10 0zM145 70 a5 5 0 1 0 10 0 a5 5 0 1 0 -10 0z" fill="rgba(138, 43, 226, 1)"></path><path d="M310 110L330 110L450 230L450 330" stroke-width="3.33" stroke="rgba(138, 43, 226, 1)"></path><path d="M305 110 a5 5 0 1 0 10 0 a5 5 0 1 0 -10 0zM445 330 a5 5 0 1 0 10 0 a5 5 0 1 0 -10 0z" fill="rgba(138, 43, 226, 1)"></path><path d="M1210 290L1150 350L1150 410" stroke-width="3.33" stroke="rgba(138, 43, 226, 1)"></path><path d="M1205 290 a5 5 0 1 0 10 0 a5 5 0 1 0 -10 0zM1145 410 a5 5 0 1 0 10 0 a5 5 0 1 0 -10 0z" fill="rgba(138, 43, 226, 1)"></path><path d="M310 150L310 130L270 90L150 90L70 10L10 10" stroke-width="3.33" stroke="rgba(138, 43, 226, 1)"></path><path d="M305 150 a5 5 0 1 0 10 0 a5 5 0 1 0 -10 0zM5 10 a5 5 0 1 0 10 0 a5 5 0 1 0 -10 0z" fill="rgba(138, 43, 226, 1)"></path><path d="M590 430L650 370L670 370L830 530L890 530L910 550L930 550L970 510" stroke-width="3.33" stroke="rgba(138, 43, 226, 1)"></path><path d="M585 430 a5 5 0 1 0 10 0 a5 5 0 1 0 -10 0zM965 510 a5 5 0 1 0 10 0 a5 5 0 1 0 -10 0z" fill="rgba(138, 43, 226, 1)"></path><path d="M870 110L950 30L970 30" stroke-width="3.33" stroke="rgba(138, 43, 226, 1)"></path><path d="M865 110 a5 5 0 1 0 10 0 a5 5 0 1 0 -10 0zM965 30 a5 5 0 1 0 10 0 a5 5 0 1 0 -10 0z" fill="rgba(138, 43, 226, 1)"></path><path d="M990 330L1070 410L1130 410" stroke-width="3.33" stroke="rgba(138, 43, 226, 1)"></path><path d="M985 330 a5 5 0 1 0 10 0 a5 5 0 1 0 -10 0zM1125 410 a5 5 0 1 0 10 0 a5 5 0 1 0 -10 0z" fill="rgba(138, 43, 226, 1)"></path><path d="M110 290L110 210L210 110L270 110L290 130L290 170L210 250" stroke-width="3.33" stroke="rgba(138, 43, 226, 1)"></path><path d="M105 290 a5 5 0 1 0 10 0 a5 5 0 1 0 -10 0zM205 250 a5 5 0 1 0 10 0 a5 5 0 1 0 -10 0z" fill="rgba(138, 43, 226, 1)"></path><path d="M1410 210L1230 30L1130 30L1090 70" stroke-width="3.33" stroke="rgba(138, 43, 226, 1)"></path><path d="M1405 210 a5 5 0 1 0 10 0 a5 5 0 1 0 -10 0zM1085 70 a5 5 0 1 0 10 0 a5 5 0 1 0 -10 0z" fill="rgba(138, 43, 226, 1)"></path><path d="M1410 50L1350 110" stroke-width="3.33" stroke="rgba(138, 43, 226, 1)"></path><path d="M1405 50 a5 5 0 1 0 10 0 a5 5 0 1 0 -10 0zM1345 110 a5 5 0 1 0 10 0 a5 5 0 1 0 -10 0z" fill="rgba(138, 43, 226, 1)"></path><path d="M750 390L750 370L490 110L490 90L530 50L530 10" stroke-width="3.33" stroke="rgba(138, 43, 226, 1)"></path><path d="M745 390 a5 5 0 1 0 10 0 a5 5 0 1 0 -10 0zM525 10 a5 5 0 1 0 10 0 a5 5 0 1 0 -10 0z" fill="rgba(138, 43, 226, 1)"></path><path d="M790 90L850 30L930 30" stroke-width="3.33" stroke="rgba(138, 43, 226, 1)"></path><path d="M785 90 a5 5 0 1 0 10 0 a5 5 0 1 0 -10 0zM925 30 a5 5 0 1 0 10 0 a5 5 0 1 0 -10 0z" fill="rgba(138, 43, 226, 1)"></path><path d="M1230 370L1230 270L1150 190" stroke-width="3.33" stroke="rgba(138, 43, 226, 1)"></path><path d="M1225 370 a5 5 0 1 0 10 0 a5 5 0 1 0 -10 0zM1145 190 a5 5 0 1 0 10 0 a5 5 0 1 0 -10 0z" fill="rgba(138, 43, 226, 1)"></path><path d="M610 510L630 530L750 530L770 550" stroke-width="3.33" stroke="rgba(138, 43, 226, 1)"></path><path d="M605 510 a5 5 0 1 0 10 0 a5 5 0 1 0 -10 0zM765 550 a5 5 0 1 0 10 0 a5 5 0 1 0 -10 0z" fill="rgba(138, 43, 226, 1)"></path><path d="M1250 370L1250 410L1370 530L1370 550" stroke-width="3.33" stroke="rgba(138, 43, 226, 1)"></path><path d="M1245 370 a5 5 0 1 0 10 0 a5 5 0 1 0 -10 0zM1365 550 a5 5 0 1 0 10 0 a5 5 0 1 0 -10 0z" fill="rgba(138, 43, 226, 1)"></path><path d="M390 210L390 270L330 330L70 330" stroke-width="3.33" stroke="rgba(138, 43, 226, 1)"></path><path d="M385 210 a5 5 0 1 0 10 0 a5 5 0 1 0 -10 0zM65 330 a5 5 0 1 0 10 0 a5 5 0 1 0 -10 0z" fill="rgba(138, 43, 226, 1)"></path><path d="M250 530L210 490L210 350" stroke-width="3.33" stroke="rgba(138, 43, 226, 1)"></path><path d="M245 530 a5 5 0 1 0 10 0 a5 5 0 1 0 -10 0zM205 350 a5 5 0 1 0 10 0 a5 5 0 1 0 -10 0z" fill="rgba(138, 43, 226, 1)"></path><path d="M850 230L1150 230L1190 270L1190 290L1170 310" stroke-width="3.33" stroke="rgba(138, 43, 226, 1)"></path><path d="M845 230 a5 5 0 1 0 10 0 a5 5 0 1 0 -10 0zM1165 310 a5 5 0 1 0 10 0 a5 5 0 1 0 -10 0z" fill="rgba(138, 43, 226, 1)"></path><path d="M690 410L690 430L650 470L550 470L390 310L370 310L330 350" stroke-width="3.33" stroke="rgba(138, 43, 226, 1)"></path><path d="M685 410 a5 5 0 1 0 10 0 a5 5 0 1 0 -10 0zM325 350 a5 5 0 1 0 10 0 a5 5 0 1 0 -10 0z" fill="rgba(138, 43, 226, 1)"></path><path d="M290 370L270 350L230 350" stroke-width="3.33" stroke="rgba(138, 43, 226, 1)"></path><path d="M285 370 a5 5 0 1 0 10 0 a5 5 0 1 0 -10 0zM225 350 a5 5 0 1 0 10 0 a5 5 0 1 0 -10 0z" fill="rgba(138, 43, 226, 1)"></path><path d="M1130 530L1110 550L950 550" stroke-width="3.33" stroke="rgba(138, 43, 226, 1)"></path><path d="M1125 530 a5 5 0 1 0 10 0 a5 5 0 1 0 -10 0zM945 550 a5 5 0 1 0 10 0 a5 5 0 1 0 -10 0z" fill="rgba(138, 43, 226, 1)"></path><path d="M1170 130L1150 130L1110 90L1110 70L1130 50L1230 50L1370 190L1370 230" stroke-width="3.33" stroke="rgba(138, 43, 226, 1)"></path><path d="M1165 130 a5 5 0 1 0 10 0 a5 5 0 1 0 -10 0zM1365 230 a5 5 0 1 0 10 0 a5 5 0 1 0 -10 0z" fill="rgba(138, 43, 226, 1)"></path><path d="M670 50L710 50L750 10L810 10L830 30" stroke-width="3.33" stroke="rgba(138, 43, 226, 1)"></path><path d="M665 50 a5 5 0 1 0 10 0 a5 5 0 1 0 -10 0zM825 30 a5 5 0 1 0 10 0 a5 5 0 1 0 -10 0z" fill="rgba(138, 43, 226, 1)"></path><path d="M410 530L470 470L490 470L570 550L750 550" stroke-width="3.33" stroke="rgba(138, 43, 226, 1)"></path><path d="M405 530 a5 5 0 1 0 10 0 a5 5 0 1 0 -10 0zM745 550 a5 5 0 1 0 10 0 a5 5 0 1 0 -10 0z" fill="rgba(138, 43, 226, 1)"></path><path d="M650 130L710 70" stroke-width="3.33" stroke="rgba(138, 43, 226, 1)"></path><path d="M645 130 a5 5 0 1 0 10 0 a5 5 0 1 0 -10 0zM705 70 a5 5 0 1 0 10 0 a5 5 0 1 0 -10 0z" fill="rgba(138, 43, 226, 1)"></path><path d="M90 190L110 170L130 170L190 110" stroke-width="3.33" stroke="rgba(138, 43, 226, 1)"></path><path d="M85 190 a5 5 0 1 0 10 0 a5 5 0 1 0 -10 0zM185 110 a5 5 0 1 0 10 0 a5 5 0 1 0 -10 0z" fill="rgba(138, 43, 226, 1)"></path><path d="M290 450L230 390L230 370" stroke-width="3.33" stroke="rgba(138, 43, 226, 1)"></path><path d="M285 450 a5 5 0 1 0 10 0 a5 5 0 1 0 -10 0zM225 370 a5 5 0 1 0 10 0 a5 5 0 1 0 -10 0z" fill="rgba(138, 43, 226, 1)"></path><path d="M1370 490L1350 490L1270 410L1270 350L1250 330L1250 290" stroke-width="3.33" stroke="rgba(138, 43, 226, 1)"></path><path d="M1365 490 a5 5 0 1 0 10 0 a5 5 0 1 0 -10 0zM1245 290 a5 5 0 1 0 10 0 a5 5 0 1 0 -10 0z" fill="rgba(138, 43, 226, 1)"></path><path d="M570 70L590 90L630 90L650 110" stroke-width="3.33" stroke="rgba(138, 43, 226, 1)"></path><path d="M565 70 a5 5 0 1 0 10 0 a5 5 0 1 0 -10 0zM645 110 a5 5 0 1 0 10 0 a5 5 0 1 0 -10 0z" fill="rgba(138, 43, 226, 1)"></path><path d="M70 70L110 70L150 110L170 110" stroke-width="3.33" stroke="rgba(138, 43, 226, 1)"></path><path d="M65 70 a5 5 0 1 0 10 0 a5 5 0 1 0 -10 0zM165 110 a5 5 0 1 0 10 0 a5 5 0 1 0 -10 0z" fill="rgba(138, 43, 226, 1)"></path><path d="M890 110L950 50L970 50" stroke-width="3.33" stroke="rgba(138, 43, 226, 1)"></path><path d="M885 110 a5 5 0 1 0 10 0 a5 5 0 1 0 -10 0zM965 50 a5 5 0 1 0 10 0 a5 5 0 1 0 -10 0z" fill="rgba(138, 43, 226, 1)"></path><path d="M1210 90L1410 290L1410 310L1390 330L1390 370L1410 390" stroke-width="3.33" stroke="rgba(138, 43, 226, 1)"></path><path d="M1205 90 a5 5 0 1 0 10 0 a5 5 0 1 0 -10 0zM1405 390 a5 5 0 1 0 10 0 a5 5 0 1 0 -10 0z" fill="rgba(138, 43, 226, 1)"></path><path d="M190 290L170 290L150 310L10 310" stroke-width="3.33" stroke="rgba(138, 43, 226, 1)"></path><path d="M185 290 a5 5 0 1 0 10 0 a5 5 0 1 0 -10 0zM5 310 a5 5 0 1 0 10 0 a5 5 0 1 0 -10 0z" fill="rgba(138, 43, 226, 1)"></path><path d="M590 110L550 70L530 70L510 90L510 110L710 310" stroke-width="3.33" stroke="rgba(138, 43, 226, 1)"></path><path d="M585 110 a5 5 0 1 0 10 0 a5 5 0 1 0 -10 0zM705 310 a5 5 0 1 0 10 0 a5 5 0 1 0 -10 0z" fill="rgba(138, 43, 226, 1)"></path><path d="M10 290L90 210" stroke-width="3.33" stroke="rgba(138, 43, 226, 1)"></path><path d="M5 290 a5 5 0 1 0 10 0 a5 5 0 1 0 -10 0zM85 210 a5 5 0 1 0 10 0 a5 5 0 1 0 -10 0z" fill="rgba(138, 43, 226, 1)"></path><path d="M390 410L350 450L310 450L250 510" stroke-width="3.33" stroke="rgba(138, 43, 226, 1)"></path><path d="M385 410 a5 5 0 1 0 10 0 a5 5 0 1 0 -10 0zM245 510 a5 5 0 1 0 10 0 a5 5 0 1 0 -10 0z" fill="rgba(138, 43, 226, 1)"></path><path d="M530 410L530 390L550 370L630 370" stroke-width="3.33" stroke="rgba(138, 43, 226, 1)"></path><path d="M525 410 a5 5 0 1 0 10 0 a5 5 0 1 0 -10 0zM625 370 a5 5 0 1 0 10 0 a5 5 0 1 0 -10 0z" fill="rgba(138, 43, 226, 1)"></path><path d="M1330 430L1370 470" stroke-width="3.33" stroke="rgba(138, 43, 226, 1)"></path><path d="M1325 430 a5 5 0 1 0 10 0 a5 5 0 1 0 -10 0zM1365 470 a5 5 0 1 0 10 0 a5 5 0 1 0 -10 0z" fill="rgba(138, 43, 226, 1)"></path><path d="M1070 270L950 270L930 250L830 250L810 230L750 230" stroke-width="3.33" stroke="rgba(138, 43, 226, 1)"></path><path d="M1065 270 a5 5 0 1 0 10 0 a5 5 0 1 0 -10 0zM745 230 a5 5 0 1 0 10 0 a5 5 0 1 0 -10 0z" fill="rgba(138, 43, 226, 1)"></path><path d="M430 30L450 50L450 130L430 150L410 150L390 130L390 90L410 70L410 30L390 10L310 10L290 30" stroke-width="3.33" stroke="rgba(138, 43, 226, 1)"></path><path d="M425 30 a5 5 0 1 0 10 0 a5 5 0 1 0 -10 0zM285 30 a5 5 0 1 0 10 0 a5 5 0 1 0 -10 0z" fill="rgba(138, 43, 226, 1)"></path><path d="M1110 310L1110 330L1130 350L1130 390" stroke-width="3.33" stroke="rgba(138, 43, 226, 1)"></path><path d="M1105 310 a5 5 0 1 0 10 0 a5 5 0 1 0 -10 0zM1125 390 a5 5 0 1 0 10 0 a5 5 0 1 0 -10 0z" fill="rgba(138, 43, 226, 1)"></path><path d="M970 290L850 290L810 250L750 250" stroke-width="3.33" stroke="rgba(138, 43, 226, 1)"></path><path d="M965 290 a5 5 0 1 0 10 0 a5 5 0 1 0 -10 0zM745 250 a5 5 0 1 0 10 0 a5 5 0 1 0 -10 0z" fill="rgba(138, 43, 226, 1)"></path><path d="M1230 510L1190 470L910 470L870 430L850 430" stroke-width="3.33" stroke="rgba(138, 43, 226, 1)"></path><path d="M1225 510 a5 5 0 1 0 10 0 a5 5 0 1 0 -10 0zM845 430 a5 5 0 1 0 10 0 a5 5 0 1 0 -10 0z" fill="rgba(138, 43, 226, 1)"></path><path d="M1010 30L1010 190" stroke-width="3.33" stroke="rgba(138, 43, 226, 1)"></path><path d="M1005 30 a5 5 0 1 0 10 0 a5 5 0 1 0 -10 0zM1005 190 a5 5 0 1 0 10 0 a5 5 0 1 0 -10 0z" fill="rgba(138, 43, 226, 1)"></path><path d="M330 230L290 190" stroke-width="3.33" stroke="rgba(138, 43, 226, 1)"></path><path d="M325 230 a5 5 0 1 0 10 0 a5 5 0 1 0 -10 0zM285 190 a5 5 0 1 0 10 0 a5 5 0 1 0 -10 0z" fill="rgba(138, 43, 226, 1)"></path><path d="M1050 110L1110 170L1130 170" stroke-width="3.33" stroke="rgba(138, 43, 226, 1)"></path><path d="M1045 110 a5 5 0 1 0 10 0 a5 5 0 1 0 -10 0zM1125 170 a5 5 0 1 0 10 0 a5 5 0 1 0 -10 0z" fill="rgba(138, 43, 226, 1)"></path><path d="M370 470L450 470L490 430" stroke-width="3.33" stroke="rgba(138, 43, 226, 1)"></path><path d="M365 470 a5 5 0 1 0 10 0 a5 5 0 1 0 -10 0zM485 430 a5 5 0 1 0 10 0 a5 5 0 1 0 -10 0z" fill="rgba(138, 43, 226, 1)"></path><path d="M30 150L130 150L150 130" stroke-width="3.33" stroke="rgba(138, 43, 226, 1)"></path><path d="M25 150 a5 5 0 1 0 10 0 a5 5 0 1 0 -10 0zM145 130 a5 5 0 1 0 10 0 a5 5 0 1 0 -10 0z" fill="rgba(138, 43, 226, 1)"></path><path d="M190 270L190 150L210 130L270 130" stroke-width="3.33" stroke="rgba(138, 43, 226, 1)"></path><path d="M185 270 a5 5 0 1 0 10 0 a5 5 0 1 0 -10 0zM265 130 a5 5 0 1 0 10 0 a5 5 0 1 0 -10 0z" fill="rgba(138, 43, 226, 1)"></path><path d="M830 470L830 350L790 310L750 310" stroke-width="3.33" stroke="rgba(138, 43, 226, 1)"></path><path d="M825 470 a5 5 0 1 0 10 0 a5 5 0 1 0 -10 0zM745 310 a5 5 0 1 0 10 0 a5 5 0 1 0 -10 0z" fill="rgba(138, 43, 226, 1)"></path><path d="M30 210L10 190L10 50" stroke-width="3.33" stroke="rgba(138, 43, 226, 1)"></path><path d="M25 210 a5 5 0 1 0 10 0 a5 5 0 1 0 -10 0zM5 50 a5 5 0 1 0 10 0 a5 5 0 1 0 -10 0z" fill="rgba(138, 43, 226, 1)"></path><path d="M750 110L750 190" stroke-width="3.33" stroke="rgba(138, 43, 226, 1)"></path><path d="M745 110 a5 5 0 1 0 10 0 a5 5 0 1 0 -10 0zM745 190 a5 5 0 1 0 10 0 a5 5 0 1 0 -10 0z" fill="rgba(138, 43, 226, 1)"></path><path d="M130 210L150 190L170 190" stroke-width="3.33" stroke="rgba(138, 43, 226, 1)"></path><path d="M125 210 a5 5 0 1 0 10 0 a5 5 0 1 0 -10 0zM165 190 a5 5 0 1 0 10 0 a5 5 0 1 0 -10 0z" fill="rgba(138, 43, 226, 1)"></path><path d="M770 50L790 30L810 30" stroke-width="3.33" stroke="rgba(138, 43, 226, 1)"></path><path d="M765 50 a5 5 0 1 0 10 0 a5 5 0 1 0 -10 0zM805 30 a5 5 0 1 0 10 0 a5 5 0 1 0 -10 0z" fill="rgba(138, 43, 226, 1)"></path><path d="M130 450L70 450L10 390L10 330" stroke-width="3.33" stroke="rgba(138, 43, 226, 1)"></path><path d="M125 450 a5 5 0 1 0 10 0 a5 5 0 1 0 -10 0zM5 330 a5 5 0 1 0 10 0 a5 5 0 1 0 -10 0z" fill="rgba(138, 43, 226, 1)"></path><path d="M70 510L70 550" stroke-width="3.33" stroke="rgba(138, 43, 226, 1)"></path><path d="M65 510 a5 5 0 1 0 10 0 a5 5 0 1 0 -10 0zM65 550 a5 5 0 1 0 10 0 a5 5 0 1 0 -10 0z" fill="rgba(138, 43, 226, 1)"></path><path d="M610 330L690 330L730 370L730 390" stroke-width="3.33" stroke="rgba(138, 43, 226, 1)"></path><path d="M605 330 a5 5 0 1 0 10 0 a5 5 0 1 0 -10 0zM725 390 a5 5 0 1 0 10 0 a5 5 0 1 0 -10 0z" fill="rgba(138, 43, 226, 1)"></path><path d="M1330 290L1330 230L1250 150L1230 150L1170 90L1150 90" stroke-width="3.33" stroke="rgba(138, 43, 226, 1)"></path><path d="M1325 290 a5 5 0 1 0 10 0 a5 5 0 1 0 -10 0zM1145 90 a5 5 0 1 0 10 0 a5 5 0 1 0 -10 0z" fill="rgba(138, 43, 226, 1)"></path><path d="M110 490L190 490L250 550L370 550L430 490" stroke-width="3.33" stroke="rgba(138, 43, 226, 1)"></path><path d="M105 490 a5 5 0 1 0 10 0 a5 5 0 1 0 -10 0zM425 490 a5 5 0 1 0 10 0 a5 5 0 1 0 -10 0z" fill="rgba(138, 43, 226, 1)"></path><path d="M370 530L270 530" stroke-width="3.33" stroke="rgba(138, 43, 226, 1)"></path><path d="M365 530 a5 5 0 1 0 10 0 a5 5 0 1 0 -10 0zM265 530 a5 5 0 1 0 10 0 a5 5 0 1 0 -10 0z" fill="rgba(138, 43, 226, 1)"></path><path d="M810 150L910 50" stroke-width="3.33" stroke="rgba(138, 43, 226, 1)"></path><path d="M805 150 a5 5 0 1 0 10 0 a5 5 0 1 0 -10 0zM905 50 a5 5 0 1 0 10 0 a5 5 0 1 0 -10 0z" fill="rgba(138, 43, 226, 1)"></path><path d="M130 250L130 290" stroke-width="3.33" stroke="rgba(138, 43, 226, 1)"></path><path d="M125 250 a5 5 0 1 0 10 0 a5 5 0 1 0 -10 0zM125 290 a5 5 0 1 0 10 0 a5 5 0 1 0 -10 0z" fill="rgba(138, 43, 226, 1)"></path><path d="M310 290L290 310L170 310" stroke-width="3.33" stroke="rgba(138, 43, 226, 1)"></path><path d="M305 290 a5 5 0 1 0 10 0 a5 5 0 1 0 -10 0zM165 310 a5 5 0 1 0 10 0 a5 5 0 1 0 -10 0z" fill="rgba(138, 43, 226, 1)"></path><path d="M230 470L250 450L250 430L230 410" stroke-width="3.33" stroke="rgba(138, 43, 226, 1)"></path><path d="M225 470 a5 5 0 1 0 10 0 a5 5 0 1 0 -10 0zM225 410 a5 5 0 1 0 10 0 a5 5 0 1 0 -10 0z" fill="rgba(138, 43, 226, 1)"></path><path d="M530 290L510 290L470 330" stroke-width="3.33" stroke="rgba(138, 43, 226, 1)"></path><path d="M525 290 a5 5 0 1 0 10 0 a5 5 0 1 0 -10 0zM465 330 a5 5 0 1 0 10 0 a5 5 0 1 0 -10 0z" fill="rgba(138, 43, 226, 1)"></path><path d="M430 530L410 550L390 550" stroke-width="3.33" stroke="rgba(138, 43, 226, 1)"></path><path d="M425 530 a5 5 0 1 0 10 0 a5 5 0 1 0 -10 0zM385 550 a5 5 0 1 0 10 0 a5 5 0 1 0 -10 0z" fill="rgba(138, 43, 226, 1)"></path><path d="M650 390L590 450L550 450L530 430" stroke-width="3.33" stroke="rgba(138, 43, 226, 1)"></path><path d="M645 390 a5 5 0 1 0 10 0 a5 5 0 1 0 -10 0zM525 430 a5 5 0 1 0 10 0 a5 5 0 1 0 -10 0z" fill="rgba(138, 43, 226, 1)"></path><path d="M130 430L170 470L190 470" stroke-width="3.33" stroke="rgba(138, 43, 226, 1)"></path><path d="M125 430 a5 5 0 1 0 10 0 a5 5 0 1 0 -10 0zM185 470 a5 5 0 1 0 10 0 a5 5 0 1 0 -10 0z" fill="rgba(138, 43, 226, 1)"></path><path d="M830 490L790 450L790 330" stroke-width="3.33" stroke="rgba(138, 43, 226, 1)"></path><path d="M825 490 a5 5 0 1 0 10 0 a5 5 0 1 0 -10 0zM785 330 a5 5 0 1 0 10 0 a5 5 0 1 0 -10 0z" fill="rgba(138, 43, 226, 1)"></path><path d="M1290 130L1230 70L1210 70L1190 90" stroke-width="3.33" stroke="rgba(138, 43, 226, 1)"></path><path d="M1285 130 a5 5 0 1 0 10 0 a5 5 0 1 0 -10 0zM1185 90 a5 5 0 1 0 10 0 a5 5 0 1 0 -10 0z" fill="rgba(138, 43, 226, 1)"></path><path d="M630 130L590 170" stroke-width="3.33" stroke="rgba(138, 43, 226, 1)"></path><path d="M625 130 a5 5 0 1 0 10 0 a5 5 0 1 0 -10 0zM585 170 a5 5 0 1 0 10 0 a5 5 0 1 0 -10 0z" fill="rgba(138, 43, 226, 1)"></path><path d="M930 110L910 110L830 190L770 190" stroke-width="3.33" stroke="rgba(138, 43, 226, 1)"></path><path d="M925 110 a5 5 0 1 0 10 0 a5 5 0 1 0 -10 0zM765 190 a5 5 0 1 0 10 0 a5 5 0 1 0 -10 0z" fill="rgba(138, 43, 226, 1)"></path><path d="M290 430L330 430L410 350" stroke-width="3.33" stroke="rgba(138, 43, 226, 1)"></path><path d="M285 430 a5 5 0 1 0 10 0 a5 5 0 1 0 -10 0zM405 350 a5 5 0 1 0 10 0 a5 5 0 1 0 -10 0z" fill="rgba(138, 43, 226, 1)"></path><path d="M390 490L290 490L270 510" stroke-width="3.33" stroke="rgba(138, 43, 226, 1)"></path><path d="M385 490 a5 5 0 1 0 10 0 a5 5 0 1 0 -10 0zM265 510 a5 5 0 1 0 10 0 a5 5 0 1 0 -10 0z" fill="rgba(138, 43, 226, 1)"></path><path d="M290 510L390 510" stroke-width="3.33" stroke="rgba(138, 43, 226, 1)"></path><path d="M285 510 a5 5 0 1 0 10 0 a5 5 0 1 0 -10 0zM385 510 a5 5 0 1 0 10 0 a5 5 0 1 0 -10 0z" fill="rgba(138, 43, 226, 1)"></path><path d="M1270 490L1210 550L1130 550" stroke-width="3.33" stroke="rgba(138, 43, 226, 1)"></path><path d="M1265 490 a5 5 0 1 0 10 0 a5 5 0 1 0 -10 0zM1125 550 a5 5 0 1 0 10 0 a5 5 0 1 0 -10 0z" fill="rgba(138, 43, 226, 1)"></path><path d="M1210 450L1250 490" stroke-width="3.33" stroke="rgba(138, 43, 226, 1)"></path><path d="M1205 450 a5 5 0 1 0 10 0 a5 5 0 1 0 -10 0zM1245 490 a5 5 0 1 0 10 0 a5 5 0 1 0 -10 0z" fill="rgba(138, 43, 226, 1)"></path><path d="M330 310L370 270L370 250L310 190L310 170L330 150L350 150L390 190" stroke-width="3.33" stroke="rgba(138, 43, 226, 1)"></path><path d="M325 310 a5 5 0 1 0 10 0 a5 5 0 1 0 -10 0zM385 190 a5 5 0 1 0 10 0 a5 5 0 1 0 -10 0z" fill="rgba(138, 43, 226, 1)"></path><path d="M1030 330L1030 290" stroke-width="3.33" stroke="rgba(138, 43, 226, 1)"></path><path d="M1025 330 a5 5 0 1 0 10 0 a5 5 0 1 0 -10 0zM1025 290 a5 5 0 1 0 10 0 a5 5 0 1 0 -10 0z" fill="rgba(138, 43, 226, 1)"></path><path d="M50 170L90 170" stroke-width="3.33" stroke="rgba(138, 43, 226, 1)"></path><path d="M45 170 a5 5 0 1 0 10 0 a5 5 0 1 0 -10 0zM85 170 a5 5 0 1 0 10 0 a5 5 0 1 0 -10 0z" fill="rgba(138, 43, 226, 1)"></path><path d="M570 10L550 30L550 50" stroke-width="3.33" stroke="rgba(138, 43, 226, 1)"></path><path d="M565 10 a5 5 0 1 0 10 0 a5 5 0 1 0 -10 0zM545 50 a5 5 0 1 0 10 0 a5 5 0 1 0 -10 0z" fill="rgba(138, 43, 226, 1)"></path><path d="M410 90L430 110L430 130" stroke-width="3.33" stroke="rgba(138, 43, 226, 1)"></path><path d="M405 90 a5 5 0 1 0 10 0 a5 5 0 1 0 -10 0zM425 130 a5 5 0 1 0 10 0 a5 5 0 1 0 -10 0z" fill="rgba(138, 43, 226, 1)"></path><path d="M1090 350L1090 390" stroke-width="3.33" stroke="rgba(138, 43, 226, 1)"></path><path d="M1085 350 a5 5 0 1 0 10 0 a5 5 0 1 0 -10 0zM1085 390 a5 5 0 1 0 10 0 a5 5 0 1 0 -10 0z" fill="rgba(138, 43, 226, 1)"></path><path d="M630 70L650 90L670 90L690 70" stroke-width="3.33" stroke="rgba(138, 43, 226, 1)"></path><path d="M625 70 a5 5 0 1 0 10 0 a5 5 0 1 0 -10 0zM685 70 a5 5 0 1 0 10 0 a5 5 0 1 0 -10 0z" fill="rgba(138, 43, 226, 1)"></path><path d="M30 330L50 330L70 350L90 350L190 450" stroke-width="3.33" stroke="rgba(138, 43, 226, 1)"></path><path d="M25 330 a5 5 0 1 0 10 0 a5 5 0 1 0 -10 0zM185 450 a5 5 0 1 0 10 0 a5 5 0 1 0 -10 0z" fill="rgba(138, 43, 226, 1)"></path><path d="M910 330L890 330L870 310" stroke-width="3.33" stroke="rgba(138, 43, 226, 1)"></path><path d="M905 330 a5 5 0 1 0 10 0 a5 5 0 1 0 -10 0zM865 310 a5 5 0 1 0 10 0 a5 5 0 1 0 -10 0z" fill="rgba(138, 43, 226, 1)"></path><path d="M190 350L190 370L170 390L170 410L190 430" stroke-width="3.33" stroke="rgba(138, 43, 226, 1)"></path><path d="M185 350 a5 5 0 1 0 10 0 a5 5 0 1 0 -10 0zM185 430 a5 5 0 1 0 10 0 a5 5 0 1 0 -10 0z" fill="rgba(138, 43, 226, 1)"></path><path d="M1290 550L1270 530L1270 510L1290 490L1290 470L1210 390L1210 310" stroke-width="3.33" stroke="rgba(138, 43, 226, 1)"></path><path d="M1285 550 a5 5 0 1 0 10 0 a5 5 0 1 0 -10 0zM1205 310 a5 5 0 1 0 10 0 a5 5 0 1 0 -10 0z" fill="rgba(138, 43, 226, 1)"></path><path d="M1090 250L1150 250L1170 270L1170 290L1130 330" stroke-width="3.33" stroke="rgba(138, 43, 226, 1)"></path><path d="M1085 250 a5 5 0 1 0 10 0 a5 5 0 1 0 -10 0zM1125 330 a5 5 0 1 0 10 0 a5 5 0 1 0 -10 0z" fill="rgba(138, 43, 226, 1)"></path><path d="M1090 10L1030 10" stroke-width="3.33" stroke="rgba(138, 43, 226, 1)"></path><path d="M1085 10 a5 5 0 1 0 10 0 a5 5 0 1 0 -10 0zM1025 10 a5 5 0 1 0 10 0 a5 5 0 1 0 -10 0z" fill="rgba(138, 43, 226, 1)"></path><path d="M690 10L630 10L590 50L570 50" stroke-width="3.33" stroke="rgba(138, 43, 226, 1)"></path><path d="M685 10 a5 5 0 1 0 10 0 a5 5 0 1 0 -10 0zM565 50 a5 5 0 1 0 10 0 a5 5 0 1 0 -10 0z" fill="rgba(138, 43, 226, 1)"></path><path d="M710 290L630 210L630 150" stroke-width="3.33" stroke="rgba(138, 43, 226, 1)"></path><path d="M705 290 a5 5 0 1 0 10 0 a5 5 0 1 0 -10 0zM625 150 a5 5 0 1 0 10 0 a5 5 0 1 0 -10 0z" fill="rgba(138, 43, 226, 1)"></path><path d="M1110 510L1210 510" stroke-width="3.33" stroke="rgba(138, 43, 226, 1)"></path><path d="M1105 510 a5 5 0 1 0 10 0 a5 5 0 1 0 -10 0zM1205 510 a5 5 0 1 0 10 0 a5 5 0 1 0 -10 0z" fill="rgba(138, 43, 226, 1)"></path><path d="M590 250L590 330" stroke-width="3.33" stroke="rgba(138, 43, 226, 1)"></path><path d="M585 250 a5 5 0 1 0 10 0 a5 5 0 1 0 -10 0zM585 330 a5 5 0 1 0 10 0 a5 5 0 1 0 -10 0z" fill="rgba(138, 43, 226, 1)"></path><path d="M390 30L390 70L370 90L370 110" stroke-width="3.33" stroke="rgba(138, 43, 226, 1)"></path><path d="M385 30 a5 5 0 1 0 10 0 a5 5 0 1 0 -10 0zM365 110 a5 5 0 1 0 10 0 a5 5 0 1 0 -10 0z" fill="rgba(138, 43, 226, 1)"></path><path d="M110 390L90 370L30 370" stroke-width="3.33" stroke="rgba(138, 43, 226, 1)"></path><path d="M105 390 a5 5 0 1 0 10 0 a5 5 0 1 0 -10 0zM25 370 a5 5 0 1 0 10 0 a5 5 0 1 0 -10 0z" fill="rgba(138, 43, 226, 1)"></path><path d="M270 370L290 390L290 410" stroke-width="3.33" stroke="rgba(138, 43, 226, 1)"></path><path d="M265 370 a5 5 0 1 0 10 0 a5 5 0 1 0 -10 0zM285 410 a5 5 0 1 0 10 0 a5 5 0 1 0 -10 0z" fill="rgba(138, 43, 226, 1)"></path><path d="M1090 110L1030 50" stroke-width="3.33" stroke="rgba(138, 43, 226, 1)"></path><path d="M1085 110 a5 5 0 1 0 10 0 a5 5 0 1 0 -10 0zM1025 50 a5 5 0 1 0 10 0 a5 5 0 1 0 -10 0z" fill="rgba(138, 43, 226, 1)"></path><path d="M490 170L490 130" stroke-width="3.33" stroke="rgba(138, 43, 226, 1)"></path><path d="M485 170 a5 5 0 1 0 10 0 a5 5 0 1 0 -10 0zM485 130 a5 5 0 1 0 10 0 a5 5 0 1 0 -10 0z" fill="rgba(138, 43, 226, 1)"></path><path d="M950 170L950 70" stroke-width="3.33" stroke="rgba(138, 43, 226, 1)"></path><path d="M945 170 a5 5 0 1 0 10 0 a5 5 0 1 0 -10 0zM945 70 a5 5 0 1 0 10 0 a5 5 0 1 0 -10 0z" fill="rgba(138, 43, 226, 1)"></path><path d="M850 450L870 450L930 510L930 530" stroke-width="3.33" stroke="rgba(138, 43, 226, 1)"></path><path d="M845 450 a5 5 0 1 0 10 0 a5 5 0 1 0 -10 0zM925 530 a5 5 0 1 0 10 0 a5 5 0 1 0 -10 0z" fill="rgba(138, 43, 226, 1)"></path><path d="M770 170L770 70L790 50L810 50" stroke-width="3.33" stroke="rgba(138, 43, 226, 1)"></path><path d="M765 170 a5 5 0 1 0 10 0 a5 5 0 1 0 -10 0zM805 50 a5 5 0 1 0 10 0 a5 5 0 1 0 -10 0z" fill="rgba(138, 43, 226, 1)"></path><path d="M230 250L270 290L290 290L330 250L350 250" stroke-width="3.33" stroke="rgba(138, 43, 226, 1)"></path><path d="M225 250 a5 5 0 1 0 10 0 a5 5 0 1 0 -10 0zM345 250 a5 5 0 1 0 10 0 a5 5 0 1 0 -10 0z" fill="rgba(138, 43, 226, 1)"></path><path d="M1310 30L1410 30" stroke-width="3.33" stroke="rgba(138, 43, 226, 1)"></path><path d="M1305 30 a5 5 0 1 0 10 0 a5 5 0 1 0 -10 0zM1405 30 a5 5 0 1 0 10 0 a5 5 0 1 0 -10 0z" fill="rgba(138, 43, 226, 1)"></path><path d="M450 550L530 550" stroke-width="3.33" stroke="rgba(138, 43, 226, 1)"></path><path d="M445 550 a5 5 0 1 0 10 0 a5 5 0 1 0 -10 0zM525 550 a5 5 0 1 0 10 0 a5 5 0 1 0 -10 0z" fill="rgba(138, 43, 226, 1)"></path><path d="M1050 410L1010 410L990 390L990 350L950 310L890 310" stroke-width="3.33" stroke="rgba(138, 43, 226, 1)"></path><path d="M1045 410 a5 5 0 1 0 10 0 a5 5 0 1 0 -10 0zM885 310 a5 5 0 1 0 10 0 a5 5 0 1 0 -10 0z" fill="rgba(138, 43, 226, 1)"></path><path d="M50 390L90 390L110 410L110 430" stroke-width="3.33" stroke="rgba(138, 43, 226, 1)"></path><path d="M45 390 a5 5 0 1 0 10 0 a5 5 0 1 0 -10 0zM105 430 a5 5 0 1 0 10 0 a5 5 0 1 0 -10 0z" fill="rgba(138, 43, 226, 1)"></path><path d="M890 510L850 470" stroke-width="3.33" stroke="rgba(138, 43, 226, 1)"></path><path d="M885 510 a5 5 0 1 0 10 0 a5 5 0 1 0 -10 0zM845 470 a5 5 0 1 0 10 0 a5 5 0 1 0 -10 0z" fill="rgba(138, 43, 226, 1)"></path><path d="M290 50L250 50" stroke-width="3.33" stroke="rgba(138, 43, 226, 1)"></path><path d="M285 50 a5 5 0 1 0 10 0 a5 5 0 1 0 -10 0zM245 50 a5 5 0 1 0 10 0 a5 5 0 1 0 -10 0z" fill="rgba(138, 43, 226, 1)"></path><path d="M50 130L90 130L110 110L110 90" stroke-width="3.33" stroke="rgba(138, 43, 226, 1)"></path><path d="M45 130 a5 5 0 1 0 10 0 a5 5 0 1 0 -10 0zM105 90 a5 5 0 1 0 10 0 a5 5 0 1 0 -10 0z" fill="rgba(138, 43, 226, 1)"></path><path d="M750 270L810 270" stroke-width="3.33" stroke="rgba(138, 43, 226, 1)"></path><path d="M745 270 a5 5 0 1 0 10 0 a5 5 0 1 0 -10 0zM805 270 a5 5 0 1 0 10 0 a5 5 0 1 0 -10 0z" fill="rgba(138, 43, 226, 1)"></path><path d="M870 350L830 310L810 310" stroke-width="3.33" stroke="rgba(138, 43, 226, 1)"></path><path d="M865 350 a5 5 0 1 0 10 0 a5 5 0 1 0 -10 0zM805 310 a5 5 0 1 0 10 0 a5 5 0 1 0 -10 0z" fill="rgba(138, 43, 226, 1)"></path><path d="M110 470L90 490L90 530L110 550L130 550L150 530L150 510" stroke-width="3.33" stroke="rgba(138, 43, 226, 1)"></path><path d="M105 470 a5 5 0 1 0 10 0 a5 5 0 1 0 -10 0zM145 510 a5 5 0 1 0 10 0 a5 5 0 1 0 -10 0z" fill="rgba(138, 43, 226, 1)"></path><path d="M970 70L990 90L990 130L970 150L970 190" stroke-width="3.33" stroke="rgba(138, 43, 226, 1)"></path><path d="M965 70 a5 5 0 1 0 10 0 a5 5 0 1 0 -10 0zM965 190 a5 5 0 1 0 10 0 a5 5 0 1 0 -10 0z" fill="rgba(138, 43, 226, 1)"></path><path d="M50 510L10 510" stroke-width="3.33" stroke="rgba(138, 43, 226, 1)"></path><path d="M45 510 a5 5 0 1 0 10 0 a5 5 0 1 0 -10 0zM5 510 a5 5 0 1 0 10 0 a5 5 0 1 0 -10 0z" fill="rgba(138, 43, 226, 1)"></path><path d="M1050 350L1050 370L1070 390" stroke-width="3.33" stroke="rgba(138, 43, 226, 1)"></path><path d="M1045 350 a5 5 0 1 0 10 0 a5 5 0 1 0 -10 0zM1065 390 a5 5 0 1 0 10 0 a5 5 0 1 0 -10 0z" fill="rgba(138, 43, 226, 1)"></path><path d="M430 430L410 450L370 450" stroke-width="3.33" stroke="rgba(138, 43, 226, 1)"></path><path d="M425 430 a5 5 0 1 0 10 0 a5 5 0 1 0 -10 0zM365 450 a5 5 0 1 0 10 0 a5 5 0 1 0 -10 0z" fill="rgba(138, 43, 226, 1)"></path><path d="M950 250L1070 250" stroke-width="3.33" stroke="rgba(138, 43, 226, 1)"></path><path d="M945 250 a5 5 0 1 0 10 0 a5 5 0 1 0 -10 0zM1065 250 a5 5 0 1 0 10 0 a5 5 0 1 0 -10 0z" fill="rgba(138, 43, 226, 1)"></path><path d="M310 390L310 350" stroke-width="3.33" stroke="rgba(138, 43, 226, 1)"></path><path d="M305 390 a5 5 0 1 0 10 0 a5 5 0 1 0 -10 0zM305 350 a5 5 0 1 0 10 0 a5 5 0 1 0 -10 0z" fill="rgba(138, 43, 226, 1)"></path><path d="M510 50L510 10" stroke-width="3.33" stroke="rgba(138, 43, 226, 1)"></path><path d="M505 50 a5 5 0 1 0 10 0 a5 5 0 1 0 -10 0zM505 10 a5 5 0 1 0 10 0 a5 5 0 1 0 -10 0z" fill="rgba(138, 43, 226, 1)"></path><path d="M490 330L570 330" stroke-width="3.33" stroke="rgba(138, 43, 226, 1)"></path><path d="M485 330 a5 5 0 1 0 10 0 a5 5 0 1 0 -10 0zM565 330 a5 5 0 1 0 10 0 a5 5 0 1 0 -10 0z" fill="rgba(138, 43, 226, 1)"></path><path d="M610 450L670 390" stroke-width="3.33" stroke="rgba(138, 43, 226, 1)"></path><path d="M605 450 a5 5 0 1 0 10 0 a5 5 0 1 0 -10 0zM665 390 a5 5 0 1 0 10 0 a5 5 0 1 0 -10 0z" fill="rgba(138, 43, 226, 1)"></path><path d="M610 110L570 150" stroke-width="3.33" stroke="rgba(138, 43, 226, 1)"></path><path d="M605 110 a5 5 0 1 0 10 0 a5 5 0 1 0 -10 0zM565 150 a5 5 0 1 0 10 0 a5 5 0 1 0 -10 0z" fill="rgba(138, 43, 226, 1)"></path><path d="M830 70L790 110L790 170" stroke-width="3.33" stroke="rgba(138, 43, 226, 1)"></path><path d="M825 70 a5 5 0 1 0 10 0 a5 5 0 1 0 -10 0zM785 170 a5 5 0 1 0 10 0 a5 5 0 1 0 -10 0z" fill="rgba(138, 43, 226, 1)"></path><path d="M490 190L570 270" stroke-width="3.33" stroke="rgba(138, 43, 226, 1)"></path><path d="M485 190 a5 5 0 1 0 10 0 a5 5 0 1 0 -10 0zM565 270 a5 5 0 1 0 10 0 a5 5 0 1 0 -10 0z" fill="rgba(138, 43, 226, 1)"></path><path d="M270 230L290 250L290 270" stroke-width="3.33" stroke="rgba(138, 43, 226, 1)"></path><path d="M265 230 a5 5 0 1 0 10 0 a5 5 0 1 0 -10 0zM285 270 a5 5 0 1 0 10 0 a5 5 0 1 0 -10 0z" fill="rgba(138, 43, 226, 1)"></path><path d="M1070 190L1030 150L1030 70" stroke-width="3.33" stroke="rgba(138, 43, 226, 1)"></path><path d="M1065 190 a5 5 0 1 0 10 0 a5 5 0 1 0 -10 0zM1025 70 a5 5 0 1 0 10 0 a5 5 0 1 0 -10 0z" fill="rgba(138, 43, 226, 1)"></path><path d="M1270 550L1230 550" stroke-width="3.33" stroke="rgba(138, 43, 226, 1)"></path><path d="M1265 550 a5 5 0 1 0 10 0 a5 5 0 1 0 -10 0zM1225 550 a5 5 0 1 0 10 0 a5 5 0 1 0 -10 0z" fill="rgba(138, 43, 226, 1)"></path><path d="M170 10L210 50" stroke-width="3.33" stroke="rgba(138, 43, 226, 1)"></path><path d="M165 10 a5 5 0 1 0 10 0 a5 5 0 1 0 -10 0zM205 50 a5 5 0 1 0 10 0 a5 5 0 1 0 -10 0z" fill="rgba(138, 43, 226, 1)"></path><path d="M710 450L790 530L810 530" stroke-width="3.33" stroke="rgba(138, 43, 226, 1)"></path><path d="M705 450 a5 5 0 1 0 10 0 a5 5 0 1 0 -10 0zM805 530 a5 5 0 1 0 10 0 a5 5 0 1 0 -10 0z" fill="rgba(138, 43, 226, 1)"></path><path d="M810 170L830 170L870 130" stroke-width="3.33" stroke="rgba(138, 43, 226, 1)"></path><path d="M805 170 a5 5 0 1 0 10 0 a5 5 0 1 0 -10 0zM865 130 a5 5 0 1 0 10 0 a5 5 0 1 0 -10 0z" fill="rgba(138, 43, 226, 1)"></path><path d="M1230 210L1350 330L1370 330" stroke-width="3.33" stroke="rgba(138, 43, 226, 1)"></path><path d="M1225 210 a5 5 0 1 0 10 0 a5 5 0 1 0 -10 0zM1365 330 a5 5 0 1 0 10 0 a5 5 0 1 0 -10 0z" fill="rgba(138, 43, 226, 1)"></path><path d="M1090 30L1050 30" stroke-width="3.33" stroke="rgba(138, 43, 226, 1)"></path><path d="M1085 30 a5 5 0 1 0 10 0 a5 5 0 1 0 -10 0zM1045 30 a5 5 0 1 0 10 0 a5 5 0 1 0 -10 0z" fill="rgba(138, 43, 226, 1)"></path><path d="M550 210L550 190L510 150" stroke-width="3.33" stroke="rgba(138, 43, 226, 1)"></path><path d="M545 210 a5 5 0 1 0 10 0 a5 5 0 1 0 -10 0zM505 150 a5 5 0 1 0 10 0 a5 5 0 1 0 -10 0z" fill="rgba(138, 43, 226, 1)"></path><path d="M270 150L210 210L210 230" stroke-width="3.33" stroke="rgba(138, 43, 226, 1)"></path><path d="M265 150 a5 5 0 1 0 10 0 a5 5 0 1 0 -10 0zM205 230 a5 5 0 1 0 10 0 a5 5 0 1 0 -10 0z" fill="rgba(138, 43, 226, 1)"></path><path d="M1110 490L930 490" stroke-width="3.33" stroke="rgba(138, 43, 226, 1)"></path><path d="M1105 490 a5 5 0 1 0 10 0 a5 5 0 1 0 -10 0zM925 490 a5 5 0 1 0 10 0 a5 5 0 1 0 -10 0z" fill="rgba(138, 43, 226, 1)"></path><path d="M1110 270L1110 290L1130 310" stroke-width="3.33" stroke="rgba(138, 43, 226, 1)"></path><path d="M1105 270 a5 5 0 1 0 10 0 a5 5 0 1 0 -10 0zM1125 310 a5 5 0 1 0 10 0 a5 5 0 1 0 -10 0z" fill="rgba(138, 43, 226, 1)"></path><path d="M670 190L650 170L650 150" stroke-width="3.33" stroke="rgba(138, 43, 226, 1)"></path><path d="M665 190 a5 5 0 1 0 10 0 a5 5 0 1 0 -10 0zM645 150 a5 5 0 1 0 10 0 a5 5 0 1 0 -10 0z" fill="rgba(138, 43, 226, 1)"></path><path d="M350 350L390 350" stroke-width="3.33" stroke="rgba(138, 43, 226, 1)"></path><path d="M345 350 a5 5 0 1 0 10 0 a5 5 0 1 0 -10 0zM385 350 a5 5 0 1 0 10 0 a5 5 0 1 0 -10 0z" fill="rgba(138, 43, 226, 1)"></path><path d="M530 90L550 90L570 110L570 130" stroke-width="3.33" stroke="rgba(138, 43, 226, 1)"></path><path d="M525 90 a5 5 0 1 0 10 0 a5 5 0 1 0 -10 0zM565 130 a5 5 0 1 0 10 0 a5 5 0 1 0 -10 0z" fill="rgba(138, 43, 226, 1)"></path><path d="M610 270L610 310" stroke-width="3.33" stroke="rgba(138, 43, 226, 1)"></path><path d="M605 270 a5 5 0 1 0 10 0 a5 5 0 1 0 -10 0zM605 310 a5 5 0 1 0 10 0 a5 5 0 1 0 -10 0z" fill="rgba(138, 43, 226, 1)"></path><path d="M1050 330L1090 330" stroke-width="3.33" stroke="rgba(138, 43, 226, 1)"></path><path d="M1045 330 a5 5 0 1 0 10 0 a5 5 0 1 0 -10 0zM1085 330 a5 5 0 1 0 10 0 a5 5 0 1 0 -10 0z" fill="rgba(138, 43, 226, 1)"></path><path d="M310 50L350 90" stroke-width="3.33" stroke="rgba(138, 43, 226, 1)"></path><path d="M305 50 a5 5 0 1 0 10 0 a5 5 0 1 0 -10 0zM345 90 a5 5 0 1 0 10 0 a5 5 0 1 0 -10 0z" fill="rgba(138, 43, 226, 1)"></path><path d="M410 430L410 370" stroke-width="3.33" stroke="rgba(138, 43, 226, 1)"></path><path d="M405 430 a5 5 0 1 0 10 0 a5 5 0 1 0 -10 0zM405 370 a5 5 0 1 0 10 0 a5 5 0 1 0 -10 0z" fill="rgba(138, 43, 226, 1)"></path><path d="M1010 330L990 310L970 310" stroke-width="3.33" stroke="rgba(138, 43, 226, 1)"></path><path d="M1005 330 a5 5 0 1 0 10 0 a5 5 0 1 0 -10 0zM965 310 a5 5 0 1 0 10 0 a5 5 0 1 0 -10 0z" fill="rgba(138, 43, 226, 1)"></path><path d="M890 190L890 170L910 150" stroke-width="3.33" stroke="rgba(138, 43, 226, 1)"></path><path d="M885 190 a5 5 0 1 0 10 0 a5 5 0 1 0 -10 0zM905 150 a5 5 0 1 0 10 0 a5 5 0 1 0 -10 0z" fill="rgba(138, 43, 226, 1)"></path><path d="M370 370L330 370" stroke-width="3.33" stroke="rgba(138, 43, 226, 1)"></path><path d="M365 370 a5 5 0 1 0 10 0 a5 5 0 1 0 -10 0zM325 370 a5 5 0 1 0 10 0 a5 5 0 1 0 -10 0z" fill="rgba(138, 43, 226, 1)"></path><path d="M510 370L470 370" stroke-width="3.33" stroke="rgba(138, 43, 226, 1)"></path><path d="M505 370 a5 5 0 1 0 10 0 a5 5 0 1 0 -10 0zM465 370 a5 5 0 1 0 10 0 a5 5 0 1 0 -10 0z" fill="rgba(138, 43, 226, 1)"></path><path d="M10 230L10 270" stroke-width="3.33" stroke="rgba(138, 43, 226, 1)"></path><path d="M5 230 a5 5 0 1 0 10 0 a5 5 0 1 0 -10 0zM5 270 a5 5 0 1 0 10 0 a5 5 0 1 0 -10 0z" fill="rgba(138, 43, 226, 1)"></path><path d="M1150 490L1190 490" stroke-width="3.33" stroke="rgba(138, 43, 226, 1)"></path><path d="M1145 490 a5 5 0 1 0 10 0 a5 5 0 1 0 -10 0zM1185 490 a5 5 0 1 0 10 0 a5 5 0 1 0 -10 0z" fill="rgba(138, 43, 226, 1)"></path><path d="M430 90L430 50" stroke-width="3.33" stroke="rgba(138, 43, 226, 1)"></path><path d="M425 90 a5 5 0 1 0 10 0 a5 5 0 1 0 -10 0zM425 50 a5 5 0 1 0 10 0 a5 5 0 1 0 -10 0z" fill="rgba(138, 43, 226, 1)"></path><path d="M550 430L550 390" stroke-width="3.33" stroke="rgba(138, 43, 226, 1)"></path><path d="M545 430 a5 5 0 1 0 10 0 a5 5 0 1 0 -10 0zM545 390 a5 5 0 1 0 10 0 a5 5 0 1 0 -10 0z" fill="rgba(138, 43, 226, 1)"></path><path d="M670 130L710 90" stroke-width="3.33" stroke="rgba(138, 43, 226, 1)"></path><path d="M665 130 a5 5 0 1 0 10 0 a5 5 0 1 0 -10 0zM705 90 a5 5 0 1 0 10 0 a5 5 0 1 0 -10 0z" fill="rgba(138, 43, 226, 1)"></path><path d="M690 230L690 170" stroke-width="3.33" stroke="rgba(138, 43, 226, 1)"></path><path d="M685 230 a5 5 0 1 0 10 0 a5 5 0 1 0 -10 0zM685 170 a5 5 0 1 0 10 0 a5 5 0 1 0 -10 0z" fill="rgba(138, 43, 226, 1)"></path><path d="M210 550L150 550" stroke-width="3.33" stroke="rgba(138, 43, 226, 1)"></path><path d="M205 550 a5 5 0 1 0 10 0 a5 5 0 1 0 -10 0zM145 550 a5 5 0 1 0 10 0 a5 5 0 1 0 -10 0z" fill="rgba(138, 43, 226, 1)"></path><path d="M10 470L90 470" stroke-width="3.33" stroke="rgba(138, 43, 226, 1)"></path><path d="M5 470 a5 5 0 1 0 10 0 a5 5 0 1 0 -10 0zM85 470 a5 5 0 1 0 10 0 a5 5 0 1 0 -10 0z" fill="rgba(138, 43, 226, 1)"></path><path d="M1290 10L1410 10" stroke-width="3.33" stroke="rgba(138, 43, 226, 1)"></path><path d="M1285 10 a5 5 0 1 0 10 0 a5 5 0 1 0 -10 0zM1405 10 a5 5 0 1 0 10 0 a5 5 0 1 0 -10 0z" fill="rgba(138, 43, 226, 1)"></path><path d="M550 510L590 510L610 530" stroke-width="3.33" stroke="rgba(138, 43, 226, 1)"></path><path d="M545 510 a5 5 0 1 0 10 0 a5 5 0 1 0 -10 0zM605 530 a5 5 0 1 0 10 0 a5 5 0 1 0 -10 0z" fill="rgba(138, 43, 226, 1)"></path><path d="M710 230L710 170" stroke-width="3.33" stroke="rgba(138, 43, 226, 1)"></path><path d="M705 230 a5 5 0 1 0 10 0 a5 5 0 1 0 -10 0zM705 170 a5 5 0 1 0 10 0 a5 5 0 1 0 -10 0z" fill="rgba(138, 43, 226, 1)"></path><path d="M1070 170L1090 170L1110 190" stroke-width="3.33" stroke="rgba(138, 43, 226, 1)"></path><path d="M1065 170 a5 5 0 1 0 10 0 a5 5 0 1 0 -10 0zM1105 190 a5 5 0 1 0 10 0 a5 5 0 1 0 -10 0z" fill="rgba(138, 43, 226, 1)"></path><path d="M490 230L530 270" stroke-width="3.33" stroke="rgba(138, 43, 226, 1)"></path><path d="M485 230 a5 5 0 1 0 10 0 a5 5 0 1 0 -10 0zM525 270 a5 5 0 1 0 10 0 a5 5 0 1 0 -10 0z" fill="rgba(138, 43, 226, 1)"></path><path d="M70 290L30 290" stroke-width="3.33" stroke="rgba(138, 43, 226, 1)"></path><path d="M65 290 a5 5 0 1 0 10 0 a5 5 0 1 0 -10 0zM25 290 a5 5 0 1 0 10 0 a5 5 0 1 0 -10 0z" fill="rgba(138, 43, 226, 1)"></path><path d="M1330 410L1350 430L1370 430" stroke-width="3.33" stroke="rgba(138, 43, 226, 1)"></path><path d="M1325 410 a5 5 0 1 0 10 0 a5 5 0 1 0 -10 0zM1365 430 a5 5 0 1 0 10 0 a5 5 0 1 0 -10 0z" fill="rgba(138, 43, 226, 1)"></path><path d="M130 10L150 30L150 50" stroke-width="3.33" stroke="rgba(138, 43, 226, 1)"></path><path d="M125 10 a5 5 0 1 0 10 0 a5 5 0 1 0 -10 0zM145 50 a5 5 0 1 0 10 0 a5 5 0 1 0 -10 0z" fill="rgba(138, 43, 226, 1)"></path><path d="M10 490L70 490" stroke-width="3.33" stroke="rgba(138, 43, 226, 1)"></path><path d="M5 490 a5 5 0 1 0 10 0 a5 5 0 1 0 -10 0zM65 490 a5 5 0 1 0 10 0 a5 5 0 1 0 -10 0z" fill="rgba(138, 43, 226, 1)"></path><path d="M310 410L330 390L350 390" stroke-width="3.33" stroke="rgba(138, 43, 226, 1)"></path><path d="M305 410 a5 5 0 1 0 10 0 a5 5 0 1 0 -10 0zM345 390 a5 5 0 1 0 10 0 a5 5 0 1 0 -10 0z" fill="rgba(138, 43, 226, 1)"></path><path d="M1290 370L1290 330" stroke-width="3.33" stroke="rgba(138, 43, 226, 1)"></path><path d="M1285 370 a5 5 0 1 0 10 0 a5 5 0 1 0 -10 0zM1285 330 a5 5 0 1 0 10 0 a5 5 0 1 0 -10 0z" fill="rgba(138, 43, 226, 1)"></path><path d="M1330 510L1310 530L1290 530" stroke-width="3.33" stroke="rgba(138, 43, 226, 1)"></path><path d="M1325 510 a5 5 0 1 0 10 0 a5 5 0 1 0 -10 0zM1285 530 a5 5 0 1 0 10 0 a5 5 0 1 0 -10 0z" fill="rgba(138, 43, 226, 1)"></path><path d="M250 290L230 270L210 270" stroke-width="3.33" stroke="rgba(138, 43, 226, 1)"></path><path d="M245 290 a5 5 0 1 0 10 0 a5 5 0 1 0 -10 0zM205 270 a5 5 0 1 0 10 0 a5 5 0 1 0 -10 0z" fill="rgba(138, 43, 226, 1)"></path><path d="M230 10L250 30L270 30L290 10" stroke-width="3.33" stroke="rgba(138, 43, 226, 1)"></path><path d="M225 10 a5 5 0 1 0 10 0 a5 5 0 1 0 -10 0zM285 10 a5 5 0 1 0 10 0 a5 5 0 1 0 -10 0z" fill="rgba(138, 43, 226, 1)"></path><path d="M50 270L90 270" stroke-width="3.33" stroke="rgba(138, 43, 226, 1)"></path><path d="M45 270 a5 5 0 1 0 10 0 a5 5 0 1 0 -10 0zM85 270 a5 5 0 1 0 10 0 a5 5 0 1 0 -10 0z" fill="rgba(138, 43, 226, 1)"></path><path d="M650 50L670 30L690 30" stroke-width="3.33" stroke="rgba(138, 43, 226, 1)"></path><path d="M645 50 a5 5 0 1 0 10 0 a5 5 0 1 0 -10 0zM685 30 a5 5 0 1 0 10 0 a5 5 0 1 0 -10 0z" fill="rgba(138, 43, 226, 1)"></path><path d="M810 450L810 390" stroke-width="3.33" stroke="rgba(138, 43, 226, 1)"></path><path d="M805 450 a5 5 0 1 0 10 0 a5 5 0 1 0 -10 0zM805 390 a5 5 0 1 0 10 0 a5 5 0 1 0 -10 0z" fill="rgba(138, 43, 226, 1)"></path><path d="M630 290L650 310L670 310" stroke-width="3.33" stroke="rgba(138, 43, 226, 1)"></path><path d="M625 290 a5 5 0 1 0 10 0 a5 5 0 1 0 -10 0zM665 310 a5 5 0 1 0 10 0 a5 5 0 1 0 -10 0z" fill="rgba(138, 43, 226, 1)"></path><path d="M270 470L250 470L230 490" stroke-width="3.33" stroke="rgba(138, 43, 226, 1)"></path><path d="M265 470 a5 5 0 1 0 10 0 a5 5 0 1 0 -10 0zM225 490 a5 5 0 1 0 10 0 a5 5 0 1 0 -10 0z" fill="rgba(138, 43, 226, 1)"></path><path d="M610 50L630 30L650 30" stroke-width="3.33" stroke="rgba(138, 43, 226, 1)"></path><path d="M605 50 a5 5 0 1 0 10 0 a5 5 0 1 0 -10 0zM645 30 a5 5 0 1 0 10 0 a5 5 0 1 0 -10 0z" fill="rgba(138, 43, 226, 1)"></path><path d="M1370 310L1350 290L1350 270" stroke-width="3.33" stroke="rgba(138, 43, 226, 1)"></path><path d="M1365 310 a5 5 0 1 0 10 0 a5 5 0 1 0 -10 0zM1345 270 a5 5 0 1 0 10 0 a5 5 0 1 0 -10 0z" fill="rgba(138, 43, 226, 1)"></path><path d="M1190 170L1230 170" stroke-width="3.33" stroke="rgba(138, 43, 226, 1)"></path><path d="M1185 170 a5 5 0 1 0 10 0 a5 5 0 1 0 -10 0zM1225 170 a5 5 0 1 0 10 0 a5 5 0 1 0 -10 0z" fill="rgba(138, 43, 226, 1)"></path><path d="M90 50L70 50L50 30" stroke-width="3.33" stroke="rgba(138, 43, 226, 1)"></path><path d="M85 50 a5 5 0 1 0 10 0 a5 5 0 1 0 -10 0zM45 30 a5 5 0 1 0 10 0 a5 5 0 1 0 -10 0z" fill="rgba(138, 43, 226, 1)"></path><path d="M1410 330L1410 370" stroke-width="3.33" stroke="rgba(138, 43, 226, 1)"></path><path d="M1405 330 a5 5 0 1 0 10 0 a5 5 0 1 0 -10 0zM1405 370 a5 5 0 1 0 10 0 a5 5 0 1 0 -10 0z" fill="rgba(138, 43, 226, 1)"></path><path d="M950 370L950 350L930 330" stroke-width="3.33" stroke="rgba(138, 43, 226, 1)"></path><path d="M945 370 a5 5 0 1 0 10 0 a5 5 0 1 0 -10 0zM925 330 a5 5 0 1 0 10 0 a5 5 0 1 0 -10 0z" fill="rgba(138, 43, 226, 1)"></path></g></g><defs><mask id="SvgjsMask1109"><rect width="1420" height="560" fill="#ffffff"></rect></mask><mask id="SvgjsMask1110"><rect width="1420" height="560" fill="white"></rect><path d="M1107.5 130 a2.5 2.5 0 1 0 5 0 a2.5 2.5 0 1 0 -5 0zM1407.5 510 a2.5 2.5 0 1 0 5 0 a2.5 2.5 0 1 0 -5 0z" fill="black"></path><path d="M907.5 350 a2.5 2.5 0 1 0 5 0 a2.5 2.5 0 1 0 -5 0zM1187.5 330 a2.5 2.5 0 1 0 5 0 a2.5 2.5 0 1 0 -5 0z" fill="black"></path><path d="M767.5 430 a2.5 2.5 0 1 0 5 0 a2.5 2.5 0 1 0 -5 0zM727.5 50 a2.5 2.5 0 1 0 5 0 a2.5 2.5 0 1 0 -5 0z" fill="black"></path><path d="M1087.5 50 a2.5 2.5 0 1 0 5 0 a2.5 2.5 0 1 0 -5 0zM1407.5 150 a2.5 2.5 0 1 0 5 0 a2.5 2.5 0 1 0 -5 0z" fill="black"></path><path d="M747.5 210 a2.5 2.5 0 1 0 5 0 a2.5 2.5 0 1 0 -5 0zM1127.5 190 a2.5 2.5 0 1 0 5 0 a2.5 2.5 0 1 0 -5 0z" fill="black"></path><path d="M667.5 150 a2.5 2.5 0 1 0 5 0 a2.5 2.5 0 1 0 -5 0zM707.5 150 a2.5 2.5 0 1 0 5 0 a2.5 2.5 0 1 0 -5 0z" fill="black"></path><path d="M1207.5 150 a2.5 2.5 0 1 0 5 0 a2.5 2.5 0 1 0 -5 0zM827.5 10 a2.5 2.5 0 1 0 5 0 a2.5 2.5 0 1 0 -5 0z" fill="black"></path><path d="M1287.5 390 a2.5 2.5 0 1 0 5 0 a2.5 2.5 0 1 0 -5 0zM1387.5 550 a2.5 2.5 0 1 0 5 0 a2.5 2.5 0 1 0 -5 0z" fill="black"></path><path d="M387.5 290 a2.5 2.5 0 1 0 5 0 a2.5 2.5 0 1 0 -5 0zM767.5 450 a2.5 2.5 0 1 0 5 0 a2.5 2.5 0 1 0 -5 0z" fill="black"></path><path d="M567.5 290 a2.5 2.5 0 1 0 5 0 a2.5 2.5 0 1 0 -5 0zM467.5 10 a2.5 2.5 0 1 0 5 0 a2.5 2.5 0 1 0 -5 0z" fill="black"></path><path d="M967.5 370 a2.5 2.5 0 1 0 5 0 a2.5 2.5 0 1 0 -5 0zM1167.5 430 a2.5 2.5 0 1 0 5 0 a2.5 2.5 0 1 0 -5 0z" fill="black"></path><path d="M927.5 450 a2.5 2.5 0 1 0 5 0 a2.5 2.5 0 1 0 -5 0zM747.5 290 a2.5 2.5 0 1 0 5 0 a2.5 2.5 0 1 0 -5 0z" fill="black"></path><path d="M987.5 70 a2.5 2.5 0 1 0 5 0 a2.5 2.5 0 1 0 -5 0zM987.5 30 a2.5 2.5 0 1 0 5 0 a2.5 2.5 0 1 0 -5 0z" fill="black"></path><path d="M507.5 450 a2.5 2.5 0 1 0 5 0 a2.5 2.5 0 1 0 -5 0zM887.5 550 a2.5 2.5 0 1 0 5 0 a2.5 2.5 0 1 0 -5 0z" fill="black"></path><path d="M467.5 290 a2.5 2.5 0 1 0 5 0 a2.5 2.5 0 1 0 -5 0zM147.5 70 a2.5 2.5 0 1 0 5 0 a2.5 2.5 0 1 0 -5 0z" fill="black"></path><path d="M307.5 110 a2.5 2.5 0 1 0 5 0 a2.5 2.5 0 1 0 -5 0zM447.5 330 a2.5 2.5 0 1 0 5 0 a2.5 2.5 0 1 0 -5 0z" fill="black"></path><path d="M1207.5 290 a2.5 2.5 0 1 0 5 0 a2.5 2.5 0 1 0 -5 0zM1147.5 410 a2.5 2.5 0 1 0 5 0 a2.5 2.5 0 1 0 -5 0z" fill="black"></path><path d="M307.5 150 a2.5 2.5 0 1 0 5 0 a2.5 2.5 0 1 0 -5 0zM7.5 10 a2.5 2.5 0 1 0 5 0 a2.5 2.5 0 1 0 -5 0z" fill="black"></path><path d="M587.5 430 a2.5 2.5 0 1 0 5 0 a2.5 2.5 0 1 0 -5 0zM967.5 510 a2.5 2.5 0 1 0 5 0 a2.5 2.5 0 1 0 -5 0z" fill="black"></path><path d="M867.5 110 a2.5 2.5 0 1 0 5 0 a2.5 2.5 0 1 0 -5 0zM967.5 30 a2.5 2.5 0 1 0 5 0 a2.5 2.5 0 1 0 -5 0z" fill="black"></path><path d="M987.5 330 a2.5 2.5 0 1 0 5 0 a2.5 2.5 0 1 0 -5 0zM1127.5 410 a2.5 2.5 0 1 0 5 0 a2.5 2.5 0 1 0 -5 0z" fill="black"></path><path d="M107.5 290 a2.5 2.5 0 1 0 5 0 a2.5 2.5 0 1 0 -5 0zM207.5 250 a2.5 2.5 0 1 0 5 0 a2.5 2.5 0 1 0 -5 0z" fill="black"></path><path d="M1407.5 210 a2.5 2.5 0 1 0 5 0 a2.5 2.5 0 1 0 -5 0zM1087.5 70 a2.5 2.5 0 1 0 5 0 a2.5 2.5 0 1 0 -5 0z" fill="black"></path><path d="M1407.5 50 a2.5 2.5 0 1 0 5 0 a2.5 2.5 0 1 0 -5 0zM1347.5 110 a2.5 2.5 0 1 0 5 0 a2.5 2.5 0 1 0 -5 0z" fill="black"></path><path d="M747.5 390 a2.5 2.5 0 1 0 5 0 a2.5 2.5 0 1 0 -5 0zM527.5 10 a2.5 2.5 0 1 0 5 0 a2.5 2.5 0 1 0 -5 0z" fill="black"></path><path d="M787.5 90 a2.5 2.5 0 1 0 5 0 a2.5 2.5 0 1 0 -5 0zM927.5 30 a2.5 2.5 0 1 0 5 0 a2.5 2.5 0 1 0 -5 0z" fill="black"></path><path d="M1227.5 370 a2.5 2.5 0 1 0 5 0 a2.5 2.5 0 1 0 -5 0zM1147.5 190 a2.5 2.5 0 1 0 5 0 a2.5 2.5 0 1 0 -5 0z" fill="black"></path><path d="M607.5 510 a2.5 2.5 0 1 0 5 0 a2.5 2.5 0 1 0 -5 0zM767.5 550 a2.5 2.5 0 1 0 5 0 a2.5 2.5 0 1 0 -5 0z" fill="black"></path><path d="M1247.5 370 a2.5 2.5 0 1 0 5 0 a2.5 2.5 0 1 0 -5 0zM1367.5 550 a2.5 2.5 0 1 0 5 0 a2.5 2.5 0 1 0 -5 0z" fill="black"></path><path d="M387.5 210 a2.5 2.5 0 1 0 5 0 a2.5 2.5 0 1 0 -5 0zM67.5 330 a2.5 2.5 0 1 0 5 0 a2.5 2.5 0 1 0 -5 0z" fill="black"></path><path d="M247.5 530 a2.5 2.5 0 1 0 5 0 a2.5 2.5 0 1 0 -5 0zM207.5 350 a2.5 2.5 0 1 0 5 0 a2.5 2.5 0 1 0 -5 0z" fill="black"></path><path d="M847.5 230 a2.5 2.5 0 1 0 5 0 a2.5 2.5 0 1 0 -5 0zM1167.5 310 a2.5 2.5 0 1 0 5 0 a2.5 2.5 0 1 0 -5 0z" fill="black"></path><path d="M687.5 410 a2.5 2.5 0 1 0 5 0 a2.5 2.5 0 1 0 -5 0zM327.5 350 a2.5 2.5 0 1 0 5 0 a2.5 2.5 0 1 0 -5 0z" fill="black"></path><path d="M287.5 370 a2.5 2.5 0 1 0 5 0 a2.5 2.5 0 1 0 -5 0zM227.5 350 a2.5 2.5 0 1 0 5 0 a2.5 2.5 0 1 0 -5 0z" fill="black"></path><path d="M1127.5 530 a2.5 2.5 0 1 0 5 0 a2.5 2.5 0 1 0 -5 0zM947.5 550 a2.5 2.5 0 1 0 5 0 a2.5 2.5 0 1 0 -5 0z" fill="black"></path><path d="M1167.5 130 a2.5 2.5 0 1 0 5 0 a2.5 2.5 0 1 0 -5 0zM1367.5 230 a2.5 2.5 0 1 0 5 0 a2.5 2.5 0 1 0 -5 0z" fill="black"></path><path d="M667.5 50 a2.5 2.5 0 1 0 5 0 a2.5 2.5 0 1 0 -5 0zM827.5 30 a2.5 2.5 0 1 0 5 0 a2.5 2.5 0 1 0 -5 0z" fill="black"></path><path d="M407.5 530 a2.5 2.5 0 1 0 5 0 a2.5 2.5 0 1 0 -5 0zM747.5 550 a2.5 2.5 0 1 0 5 0 a2.5 2.5 0 1 0 -5 0z" fill="black"></path><path d="M647.5 130 a2.5 2.5 0 1 0 5 0 a2.5 2.5 0 1 0 -5 0zM707.5 70 a2.5 2.5 0 1 0 5 0 a2.5 2.5 0 1 0 -5 0z" fill="black"></path><path d="M87.5 190 a2.5 2.5 0 1 0 5 0 a2.5 2.5 0 1 0 -5 0zM187.5 110 a2.5 2.5 0 1 0 5 0 a2.5 2.5 0 1 0 -5 0z" fill="black"></path><path d="M287.5 450 a2.5 2.5 0 1 0 5 0 a2.5 2.5 0 1 0 -5 0zM227.5 370 a2.5 2.5 0 1 0 5 0 a2.5 2.5 0 1 0 -5 0z" fill="black"></path><path d="M1367.5 490 a2.5 2.5 0 1 0 5 0 a2.5 2.5 0 1 0 -5 0zM1247.5 290 a2.5 2.5 0 1 0 5 0 a2.5 2.5 0 1 0 -5 0z" fill="black"></path><path d="M567.5 70 a2.5 2.5 0 1 0 5 0 a2.5 2.5 0 1 0 -5 0zM647.5 110 a2.5 2.5 0 1 0 5 0 a2.5 2.5 0 1 0 -5 0z" fill="black"></path><path d="M67.5 70 a2.5 2.5 0 1 0 5 0 a2.5 2.5 0 1 0 -5 0zM167.5 110 a2.5 2.5 0 1 0 5 0 a2.5 2.5 0 1 0 -5 0z" fill="black"></path><path d="M887.5 110 a2.5 2.5 0 1 0 5 0 a2.5 2.5 0 1 0 -5 0zM967.5 50 a2.5 2.5 0 1 0 5 0 a2.5 2.5 0 1 0 -5 0z" fill="black"></path><path d="M1207.5 90 a2.5 2.5 0 1 0 5 0 a2.5 2.5 0 1 0 -5 0zM1407.5 390 a2.5 2.5 0 1 0 5 0 a2.5 2.5 0 1 0 -5 0z" fill="black"></path><path d="M187.5 290 a2.5 2.5 0 1 0 5 0 a2.5 2.5 0 1 0 -5 0zM7.5 310 a2.5 2.5 0 1 0 5 0 a2.5 2.5 0 1 0 -5 0z" fill="black"></path><path d="M587.5 110 a2.5 2.5 0 1 0 5 0 a2.5 2.5 0 1 0 -5 0zM707.5 310 a2.5 2.5 0 1 0 5 0 a2.5 2.5 0 1 0 -5 0z" fill="black"></path><path d="M7.5 290 a2.5 2.5 0 1 0 5 0 a2.5 2.5 0 1 0 -5 0zM87.5 210 a2.5 2.5 0 1 0 5 0 a2.5 2.5 0 1 0 -5 0z" fill="black"></path><path d="M387.5 410 a2.5 2.5 0 1 0 5 0 a2.5 2.5 0 1 0 -5 0zM247.5 510 a2.5 2.5 0 1 0 5 0 a2.5 2.5 0 1 0 -5 0z" fill="black"></path><path d="M527.5 410 a2.5 2.5 0 1 0 5 0 a2.5 2.5 0 1 0 -5 0zM627.5 370 a2.5 2.5 0 1 0 5 0 a2.5 2.5 0 1 0 -5 0z" fill="black"></path><path d="M1327.5 430 a2.5 2.5 0 1 0 5 0 a2.5 2.5 0 1 0 -5 0zM1367.5 470 a2.5 2.5 0 1 0 5 0 a2.5 2.5 0 1 0 -5 0z" fill="black"></path><path d="M1067.5 270 a2.5 2.5 0 1 0 5 0 a2.5 2.5 0 1 0 -5 0zM747.5 230 a2.5 2.5 0 1 0 5 0 a2.5 2.5 0 1 0 -5 0z" fill="black"></path><path d="M427.5 30 a2.5 2.5 0 1 0 5 0 a2.5 2.5 0 1 0 -5 0zM287.5 30 a2.5 2.5 0 1 0 5 0 a2.5 2.5 0 1 0 -5 0z" fill="black"></path><path d="M1107.5 310 a2.5 2.5 0 1 0 5 0 a2.5 2.5 0 1 0 -5 0zM1127.5 390 a2.5 2.5 0 1 0 5 0 a2.5 2.5 0 1 0 -5 0z" fill="black"></path><path d="M967.5 290 a2.5 2.5 0 1 0 5 0 a2.5 2.5 0 1 0 -5 0zM747.5 250 a2.5 2.5 0 1 0 5 0 a2.5 2.5 0 1 0 -5 0z" fill="black"></path><path d="M1227.5 510 a2.5 2.5 0 1 0 5 0 a2.5 2.5 0 1 0 -5 0zM847.5 430 a2.5 2.5 0 1 0 5 0 a2.5 2.5 0 1 0 -5 0z" fill="black"></path><path d="M1007.5 30 a2.5 2.5 0 1 0 5 0 a2.5 2.5 0 1 0 -5 0zM1007.5 190 a2.5 2.5 0 1 0 5 0 a2.5 2.5 0 1 0 -5 0z" fill="black"></path><path d="M327.5 230 a2.5 2.5 0 1 0 5 0 a2.5 2.5 0 1 0 -5 0zM287.5 190 a2.5 2.5 0 1 0 5 0 a2.5 2.5 0 1 0 -5 0z" fill="black"></path><path d="M1047.5 110 a2.5 2.5 0 1 0 5 0 a2.5 2.5 0 1 0 -5 0zM1127.5 170 a2.5 2.5 0 1 0 5 0 a2.5 2.5 0 1 0 -5 0z" fill="black"></path><path d="M367.5 470 a2.5 2.5 0 1 0 5 0 a2.5 2.5 0 1 0 -5 0zM487.5 430 a2.5 2.5 0 1 0 5 0 a2.5 2.5 0 1 0 -5 0z" fill="black"></path><path d="M27.5 150 a2.5 2.5 0 1 0 5 0 a2.5 2.5 0 1 0 -5 0zM147.5 130 a2.5 2.5 0 1 0 5 0 a2.5 2.5 0 1 0 -5 0z" fill="black"></path><path d="M187.5 270 a2.5 2.5 0 1 0 5 0 a2.5 2.5 0 1 0 -5 0zM267.5 130 a2.5 2.5 0 1 0 5 0 a2.5 2.5 0 1 0 -5 0z" fill="black"></path><path d="M827.5 470 a2.5 2.5 0 1 0 5 0 a2.5 2.5 0 1 0 -5 0zM747.5 310 a2.5 2.5 0 1 0 5 0 a2.5 2.5 0 1 0 -5 0z" fill="black"></path><path d="M27.5 210 a2.5 2.5 0 1 0 5 0 a2.5 2.5 0 1 0 -5 0zM7.5 50 a2.5 2.5 0 1 0 5 0 a2.5 2.5 0 1 0 -5 0z" fill="black"></path><path d="M747.5 110 a2.5 2.5 0 1 0 5 0 a2.5 2.5 0 1 0 -5 0zM747.5 190 a2.5 2.5 0 1 0 5 0 a2.5 2.5 0 1 0 -5 0z" fill="black"></path><path d="M127.5 210 a2.5 2.5 0 1 0 5 0 a2.5 2.5 0 1 0 -5 0zM167.5 190 a2.5 2.5 0 1 0 5 0 a2.5 2.5 0 1 0 -5 0z" fill="black"></path><path d="M767.5 50 a2.5 2.5 0 1 0 5 0 a2.5 2.5 0 1 0 -5 0zM807.5 30 a2.5 2.5 0 1 0 5 0 a2.5 2.5 0 1 0 -5 0z" fill="black"></path><path d="M127.5 450 a2.5 2.5 0 1 0 5 0 a2.5 2.5 0 1 0 -5 0zM7.5 330 a2.5 2.5 0 1 0 5 0 a2.5 2.5 0 1 0 -5 0z" fill="black"></path><path d="M67.5 510 a2.5 2.5 0 1 0 5 0 a2.5 2.5 0 1 0 -5 0zM67.5 550 a2.5 2.5 0 1 0 5 0 a2.5 2.5 0 1 0 -5 0z" fill="black"></path><path d="M607.5 330 a2.5 2.5 0 1 0 5 0 a2.5 2.5 0 1 0 -5 0zM727.5 390 a2.5 2.5 0 1 0 5 0 a2.5 2.5 0 1 0 -5 0z" fill="black"></path><path d="M1327.5 290 a2.5 2.5 0 1 0 5 0 a2.5 2.5 0 1 0 -5 0zM1147.5 90 a2.5 2.5 0 1 0 5 0 a2.5 2.5 0 1 0 -5 0z" fill="black"></path><path d="M107.5 490 a2.5 2.5 0 1 0 5 0 a2.5 2.5 0 1 0 -5 0zM427.5 490 a2.5 2.5 0 1 0 5 0 a2.5 2.5 0 1 0 -5 0z" fill="black"></path><path d="M367.5 530 a2.5 2.5 0 1 0 5 0 a2.5 2.5 0 1 0 -5 0zM267.5 530 a2.5 2.5 0 1 0 5 0 a2.5 2.5 0 1 0 -5 0z" fill="black"></path><path d="M807.5 150 a2.5 2.5 0 1 0 5 0 a2.5 2.5 0 1 0 -5 0zM907.5 50 a2.5 2.5 0 1 0 5 0 a2.5 2.5 0 1 0 -5 0z" fill="black"></path><path d="M127.5 250 a2.5 2.5 0 1 0 5 0 a2.5 2.5 0 1 0 -5 0zM127.5 290 a2.5 2.5 0 1 0 5 0 a2.5 2.5 0 1 0 -5 0z" fill="black"></path><path d="M307.5 290 a2.5 2.5 0 1 0 5 0 a2.5 2.5 0 1 0 -5 0zM167.5 310 a2.5 2.5 0 1 0 5 0 a2.5 2.5 0 1 0 -5 0z" fill="black"></path><path d="M227.5 470 a2.5 2.5 0 1 0 5 0 a2.5 2.5 0 1 0 -5 0zM227.5 410 a2.5 2.5 0 1 0 5 0 a2.5 2.5 0 1 0 -5 0z" fill="black"></path><path d="M527.5 290 a2.5 2.5 0 1 0 5 0 a2.5 2.5 0 1 0 -5 0zM467.5 330 a2.5 2.5 0 1 0 5 0 a2.5 2.5 0 1 0 -5 0z" fill="black"></path><path d="M427.5 530 a2.5 2.5 0 1 0 5 0 a2.5 2.5 0 1 0 -5 0zM387.5 550 a2.5 2.5 0 1 0 5 0 a2.5 2.5 0 1 0 -5 0z" fill="black"></path><path d="M647.5 390 a2.5 2.5 0 1 0 5 0 a2.5 2.5 0 1 0 -5 0zM527.5 430 a2.5 2.5 0 1 0 5 0 a2.5 2.5 0 1 0 -5 0z" fill="black"></path><path d="M127.5 430 a2.5 2.5 0 1 0 5 0 a2.5 2.5 0 1 0 -5 0zM187.5 470 a2.5 2.5 0 1 0 5 0 a2.5 2.5 0 1 0 -5 0z" fill="black"></path><path d="M827.5 490 a2.5 2.5 0 1 0 5 0 a2.5 2.5 0 1 0 -5 0zM787.5 330 a2.5 2.5 0 1 0 5 0 a2.5 2.5 0 1 0 -5 0z" fill="black"></path><path d="M1287.5 130 a2.5 2.5 0 1 0 5 0 a2.5 2.5 0 1 0 -5 0zM1187.5 90 a2.5 2.5 0 1 0 5 0 a2.5 2.5 0 1 0 -5 0z" fill="black"></path><path d="M627.5 130 a2.5 2.5 0 1 0 5 0 a2.5 2.5 0 1 0 -5 0zM587.5 170 a2.5 2.5 0 1 0 5 0 a2.5 2.5 0 1 0 -5 0z" fill="black"></path><path d="M927.5 110 a2.5 2.5 0 1 0 5 0 a2.5 2.5 0 1 0 -5 0zM767.5 190 a2.5 2.5 0 1 0 5 0 a2.5 2.5 0 1 0 -5 0z" fill="black"></path><path d="M287.5 430 a2.5 2.5 0 1 0 5 0 a2.5 2.5 0 1 0 -5 0zM407.5 350 a2.5 2.5 0 1 0 5 0 a2.5 2.5 0 1 0 -5 0z" fill="black"></path><path d="M387.5 490 a2.5 2.5 0 1 0 5 0 a2.5 2.5 0 1 0 -5 0zM267.5 510 a2.5 2.5 0 1 0 5 0 a2.5 2.5 0 1 0 -5 0z" fill="black"></path><path d="M287.5 510 a2.5 2.5 0 1 0 5 0 a2.5 2.5 0 1 0 -5 0zM387.5 510 a2.5 2.5 0 1 0 5 0 a2.5 2.5 0 1 0 -5 0z" fill="black"></path><path d="M1267.5 490 a2.5 2.5 0 1 0 5 0 a2.5 2.5 0 1 0 -5 0zM1127.5 550 a2.5 2.5 0 1 0 5 0 a2.5 2.5 0 1 0 -5 0z" fill="black"></path><path d="M1207.5 450 a2.5 2.5 0 1 0 5 0 a2.5 2.5 0 1 0 -5 0zM1247.5 490 a2.5 2.5 0 1 0 5 0 a2.5 2.5 0 1 0 -5 0z" fill="black"></path><path d="M327.5 310 a2.5 2.5 0 1 0 5 0 a2.5 2.5 0 1 0 -5 0zM387.5 190 a2.5 2.5 0 1 0 5 0 a2.5 2.5 0 1 0 -5 0z" fill="black"></path><path d="M1027.5 330 a2.5 2.5 0 1 0 5 0 a2.5 2.5 0 1 0 -5 0zM1027.5 290 a2.5 2.5 0 1 0 5 0 a2.5 2.5 0 1 0 -5 0z" fill="black"></path><path d="M47.5 170 a2.5 2.5 0 1 0 5 0 a2.5 2.5 0 1 0 -5 0zM87.5 170 a2.5 2.5 0 1 0 5 0 a2.5 2.5 0 1 0 -5 0z" fill="black"></path><path d="M567.5 10 a2.5 2.5 0 1 0 5 0 a2.5 2.5 0 1 0 -5 0zM547.5 50 a2.5 2.5 0 1 0 5 0 a2.5 2.5 0 1 0 -5 0z" fill="black"></path><path d="M407.5 90 a2.5 2.5 0 1 0 5 0 a2.5 2.5 0 1 0 -5 0zM427.5 130 a2.5 2.5 0 1 0 5 0 a2.5 2.5 0 1 0 -5 0z" fill="black"></path><path d="M1087.5 350 a2.5 2.5 0 1 0 5 0 a2.5 2.5 0 1 0 -5 0zM1087.5 390 a2.5 2.5 0 1 0 5 0 a2.5 2.5 0 1 0 -5 0z" fill="black"></path><path d="M627.5 70 a2.5 2.5 0 1 0 5 0 a2.5 2.5 0 1 0 -5 0zM687.5 70 a2.5 2.5 0 1 0 5 0 a2.5 2.5 0 1 0 -5 0z" fill="black"></path><path d="M27.5 330 a2.5 2.5 0 1 0 5 0 a2.5 2.5 0 1 0 -5 0zM187.5 450 a2.5 2.5 0 1 0 5 0 a2.5 2.5 0 1 0 -5 0z" fill="black"></path><path d="M907.5 330 a2.5 2.5 0 1 0 5 0 a2.5 2.5 0 1 0 -5 0zM867.5 310 a2.5 2.5 0 1 0 5 0 a2.5 2.5 0 1 0 -5 0z" fill="black"></path><path d="M187.5 350 a2.5 2.5 0 1 0 5 0 a2.5 2.5 0 1 0 -5 0zM187.5 430 a2.5 2.5 0 1 0 5 0 a2.5 2.5 0 1 0 -5 0z" fill="black"></path><path d="M1287.5 550 a2.5 2.5 0 1 0 5 0 a2.5 2.5 0 1 0 -5 0zM1207.5 310 a2.5 2.5 0 1 0 5 0 a2.5 2.5 0 1 0 -5 0z" fill="black"></path><path d="M1087.5 250 a2.5 2.5 0 1 0 5 0 a2.5 2.5 0 1 0 -5 0zM1127.5 330 a2.5 2.5 0 1 0 5 0 a2.5 2.5 0 1 0 -5 0z" fill="black"></path><path d="M1087.5 10 a2.5 2.5 0 1 0 5 0 a2.5 2.5 0 1 0 -5 0zM1027.5 10 a2.5 2.5 0 1 0 5 0 a2.5 2.5 0 1 0 -5 0z" fill="black"></path><path d="M687.5 10 a2.5 2.5 0 1 0 5 0 a2.5 2.5 0 1 0 -5 0zM567.5 50 a2.5 2.5 0 1 0 5 0 a2.5 2.5 0 1 0 -5 0z" fill="black"></path><path d="M707.5 290 a2.5 2.5 0 1 0 5 0 a2.5 2.5 0 1 0 -5 0zM627.5 150 a2.5 2.5 0 1 0 5 0 a2.5 2.5 0 1 0 -5 0z" fill="black"></path><path d="M1107.5 510 a2.5 2.5 0 1 0 5 0 a2.5 2.5 0 1 0 -5 0zM1207.5 510 a2.5 2.5 0 1 0 5 0 a2.5 2.5 0 1 0 -5 0z" fill="black"></path><path d="M587.5 250 a2.5 2.5 0 1 0 5 0 a2.5 2.5 0 1 0 -5 0zM587.5 330 a2.5 2.5 0 1 0 5 0 a2.5 2.5 0 1 0 -5 0z" fill="black"></path><path d="M387.5 30 a2.5 2.5 0 1 0 5 0 a2.5 2.5 0 1 0 -5 0zM367.5 110 a2.5 2.5 0 1 0 5 0 a2.5 2.5 0 1 0 -5 0z" fill="black"></path><path d="M107.5 390 a2.5 2.5 0 1 0 5 0 a2.5 2.5 0 1 0 -5 0zM27.5 370 a2.5 2.5 0 1 0 5 0 a2.5 2.5 0 1 0 -5 0z" fill="black"></path><path d="M267.5 370 a2.5 2.5 0 1 0 5 0 a2.5 2.5 0 1 0 -5 0zM287.5 410 a2.5 2.5 0 1 0 5 0 a2.5 2.5 0 1 0 -5 0z" fill="black"></path><path d="M1087.5 110 a2.5 2.5 0 1 0 5 0 a2.5 2.5 0 1 0 -5 0zM1027.5 50 a2.5 2.5 0 1 0 5 0 a2.5 2.5 0 1 0 -5 0z" fill="black"></path><path d="M487.5 170 a2.5 2.5 0 1 0 5 0 a2.5 2.5 0 1 0 -5 0zM487.5 130 a2.5 2.5 0 1 0 5 0 a2.5 2.5 0 1 0 -5 0z" fill="black"></path><path d="M947.5 170 a2.5 2.5 0 1 0 5 0 a2.5 2.5 0 1 0 -5 0zM947.5 70 a2.5 2.5 0 1 0 5 0 a2.5 2.5 0 1 0 -5 0z" fill="black"></path><path d="M847.5 450 a2.5 2.5 0 1 0 5 0 a2.5 2.5 0 1 0 -5 0zM927.5 530 a2.5 2.5 0 1 0 5 0 a2.5 2.5 0 1 0 -5 0z" fill="black"></path><path d="M767.5 170 a2.5 2.5 0 1 0 5 0 a2.5 2.5 0 1 0 -5 0zM807.5 50 a2.5 2.5 0 1 0 5 0 a2.5 2.5 0 1 0 -5 0z" fill="black"></path><path d="M227.5 250 a2.5 2.5 0 1 0 5 0 a2.5 2.5 0 1 0 -5 0zM347.5 250 a2.5 2.5 0 1 0 5 0 a2.5 2.5 0 1 0 -5 0z" fill="black"></path><path d="M1307.5 30 a2.5 2.5 0 1 0 5 0 a2.5 2.5 0 1 0 -5 0zM1407.5 30 a2.5 2.5 0 1 0 5 0 a2.5 2.5 0 1 0 -5 0z" fill="black"></path><path d="M447.5 550 a2.5 2.5 0 1 0 5 0 a2.5 2.5 0 1 0 -5 0zM527.5 550 a2.5 2.5 0 1 0 5 0 a2.5 2.5 0 1 0 -5 0z" fill="black"></path><path d="M1047.5 410 a2.5 2.5 0 1 0 5 0 a2.5 2.5 0 1 0 -5 0zM887.5 310 a2.5 2.5 0 1 0 5 0 a2.5 2.5 0 1 0 -5 0z" fill="black"></path><path d="M47.5 390 a2.5 2.5 0 1 0 5 0 a2.5 2.5 0 1 0 -5 0zM107.5 430 a2.5 2.5 0 1 0 5 0 a2.5 2.5 0 1 0 -5 0z" fill="black"></path><path d="M887.5 510 a2.5 2.5 0 1 0 5 0 a2.5 2.5 0 1 0 -5 0zM847.5 470 a2.5 2.5 0 1 0 5 0 a2.5 2.5 0 1 0 -5 0z" fill="black"></path><path d="M287.5 50 a2.5 2.5 0 1 0 5 0 a2.5 2.5 0 1 0 -5 0zM247.5 50 a2.5 2.5 0 1 0 5 0 a2.5 2.5 0 1 0 -5 0z" fill="black"></path><path d="M47.5 130 a2.5 2.5 0 1 0 5 0 a2.5 2.5 0 1 0 -5 0zM107.5 90 a2.5 2.5 0 1 0 5 0 a2.5 2.5 0 1 0 -5 0z" fill="black"></path><path d="M747.5 270 a2.5 2.5 0 1 0 5 0 a2.5 2.5 0 1 0 -5 0zM807.5 270 a2.5 2.5 0 1 0 5 0 a2.5 2.5 0 1 0 -5 0z" fill="black"></path><path d="M867.5 350 a2.5 2.5 0 1 0 5 0 a2.5 2.5 0 1 0 -5 0zM807.5 310 a2.5 2.5 0 1 0 5 0 a2.5 2.5 0 1 0 -5 0z" fill="black"></path><path d="M107.5 470 a2.5 2.5 0 1 0 5 0 a2.5 2.5 0 1 0 -5 0zM147.5 510 a2.5 2.5 0 1 0 5 0 a2.5 2.5 0 1 0 -5 0z" fill="black"></path><path d="M967.5 70 a2.5 2.5 0 1 0 5 0 a2.5 2.5 0 1 0 -5 0zM967.5 190 a2.5 2.5 0 1 0 5 0 a2.5 2.5 0 1 0 -5 0z" fill="black"></path><path d="M47.5 510 a2.5 2.5 0 1 0 5 0 a2.5 2.5 0 1 0 -5 0zM7.5 510 a2.5 2.5 0 1 0 5 0 a2.5 2.5 0 1 0 -5 0z" fill="black"></path><path d="M1047.5 350 a2.5 2.5 0 1 0 5 0 a2.5 2.5 0 1 0 -5 0zM1067.5 390 a2.5 2.5 0 1 0 5 0 a2.5 2.5 0 1 0 -5 0z" fill="black"></path><path d="M427.5 430 a2.5 2.5 0 1 0 5 0 a2.5 2.5 0 1 0 -5 0zM367.5 450 a2.5 2.5 0 1 0 5 0 a2.5 2.5 0 1 0 -5 0z" fill="black"></path><path d="M947.5 250 a2.5 2.5 0 1 0 5 0 a2.5 2.5 0 1 0 -5 0zM1067.5 250 a2.5 2.5 0 1 0 5 0 a2.5 2.5 0 1 0 -5 0z" fill="black"></path><path d="M307.5 390 a2.5 2.5 0 1 0 5 0 a2.5 2.5 0 1 0 -5 0zM307.5 350 a2.5 2.5 0 1 0 5 0 a2.5 2.5 0 1 0 -5 0z" fill="black"></path><path d="M507.5 50 a2.5 2.5 0 1 0 5 0 a2.5 2.5 0 1 0 -5 0zM507.5 10 a2.5 2.5 0 1 0 5 0 a2.5 2.5 0 1 0 -5 0z" fill="black"></path><path d="M487.5 330 a2.5 2.5 0 1 0 5 0 a2.5 2.5 0 1 0 -5 0zM567.5 330 a2.5 2.5 0 1 0 5 0 a2.5 2.5 0 1 0 -5 0z" fill="black"></path><path d="M607.5 450 a2.5 2.5 0 1 0 5 0 a2.5 2.5 0 1 0 -5 0zM667.5 390 a2.5 2.5 0 1 0 5 0 a2.5 2.5 0 1 0 -5 0z" fill="black"></path><path d="M607.5 110 a2.5 2.5 0 1 0 5 0 a2.5 2.5 0 1 0 -5 0zM567.5 150 a2.5 2.5 0 1 0 5 0 a2.5 2.5 0 1 0 -5 0z" fill="black"></path><path d="M827.5 70 a2.5 2.5 0 1 0 5 0 a2.5 2.5 0 1 0 -5 0zM787.5 170 a2.5 2.5 0 1 0 5 0 a2.5 2.5 0 1 0 -5 0z" fill="black"></path><path d="M487.5 190 a2.5 2.5 0 1 0 5 0 a2.5 2.5 0 1 0 -5 0zM567.5 270 a2.5 2.5 0 1 0 5 0 a2.5 2.5 0 1 0 -5 0z" fill="black"></path><path d="M267.5 230 a2.5 2.5 0 1 0 5 0 a2.5 2.5 0 1 0 -5 0zM287.5 270 a2.5 2.5 0 1 0 5 0 a2.5 2.5 0 1 0 -5 0z" fill="black"></path><path d="M1067.5 190 a2.5 2.5 0 1 0 5 0 a2.5 2.5 0 1 0 -5 0zM1027.5 70 a2.5 2.5 0 1 0 5 0 a2.5 2.5 0 1 0 -5 0z" fill="black"></path><path d="M1267.5 550 a2.5 2.5 0 1 0 5 0 a2.5 2.5 0 1 0 -5 0zM1227.5 550 a2.5 2.5 0 1 0 5 0 a2.5 2.5 0 1 0 -5 0z" fill="black"></path><path d="M167.5 10 a2.5 2.5 0 1 0 5 0 a2.5 2.5 0 1 0 -5 0zM207.5 50 a2.5 2.5 0 1 0 5 0 a2.5 2.5 0 1 0 -5 0z" fill="black"></path><path d="M707.5 450 a2.5 2.5 0 1 0 5 0 a2.5 2.5 0 1 0 -5 0zM807.5 530 a2.5 2.5 0 1 0 5 0 a2.5 2.5 0 1 0 -5 0z" fill="black"></path><path d="M807.5 170 a2.5 2.5 0 1 0 5 0 a2.5 2.5 0 1 0 -5 0zM867.5 130 a2.5 2.5 0 1 0 5 0 a2.5 2.5 0 1 0 -5 0z" fill="black"></path><path d="M1227.5 210 a2.5 2.5 0 1 0 5 0 a2.5 2.5 0 1 0 -5 0zM1367.5 330 a2.5 2.5 0 1 0 5 0 a2.5 2.5 0 1 0 -5 0z" fill="black"></path><path d="M1087.5 30 a2.5 2.5 0 1 0 5 0 a2.5 2.5 0 1 0 -5 0zM1047.5 30 a2.5 2.5 0 1 0 5 0 a2.5 2.5 0 1 0 -5 0z" fill="black"></path><path d="M547.5 210 a2.5 2.5 0 1 0 5 0 a2.5 2.5 0 1 0 -5 0zM507.5 150 a2.5 2.5 0 1 0 5 0 a2.5 2.5 0 1 0 -5 0z" fill="black"></path><path d="M267.5 150 a2.5 2.5 0 1 0 5 0 a2.5 2.5 0 1 0 -5 0zM207.5 230 a2.5 2.5 0 1 0 5 0 a2.5 2.5 0 1 0 -5 0z" fill="black"></path><path d="M1107.5 490 a2.5 2.5 0 1 0 5 0 a2.5 2.5 0 1 0 -5 0zM927.5 490 a2.5 2.5 0 1 0 5 0 a2.5 2.5 0 1 0 -5 0z" fill="black"></path><path d="M1107.5 270 a2.5 2.5 0 1 0 5 0 a2.5 2.5 0 1 0 -5 0zM1127.5 310 a2.5 2.5 0 1 0 5 0 a2.5 2.5 0 1 0 -5 0z" fill="black"></path><path d="M667.5 190 a2.5 2.5 0 1 0 5 0 a2.5 2.5 0 1 0 -5 0zM647.5 150 a2.5 2.5 0 1 0 5 0 a2.5 2.5 0 1 0 -5 0z" fill="black"></path><path d="M347.5 350 a2.5 2.5 0 1 0 5 0 a2.5 2.5 0 1 0 -5 0zM387.5 350 a2.5 2.5 0 1 0 5 0 a2.5 2.5 0 1 0 -5 0z" fill="black"></path><path d="M527.5 90 a2.5 2.5 0 1 0 5 0 a2.5 2.5 0 1 0 -5 0zM567.5 130 a2.5 2.5 0 1 0 5 0 a2.5 2.5 0 1 0 -5 0z" fill="black"></path><path d="M607.5 270 a2.5 2.5 0 1 0 5 0 a2.5 2.5 0 1 0 -5 0zM607.5 310 a2.5 2.5 0 1 0 5 0 a2.5 2.5 0 1 0 -5 0z" fill="black"></path><path d="M1047.5 330 a2.5 2.5 0 1 0 5 0 a2.5 2.5 0 1 0 -5 0zM1087.5 330 a2.5 2.5 0 1 0 5 0 a2.5 2.5 0 1 0 -5 0z" fill="black"></path><path d="M307.5 50 a2.5 2.5 0 1 0 5 0 a2.5 2.5 0 1 0 -5 0zM347.5 90 a2.5 2.5 0 1 0 5 0 a2.5 2.5 0 1 0 -5 0z" fill="black"></path><path d="M407.5 430 a2.5 2.5 0 1 0 5 0 a2.5 2.5 0 1 0 -5 0zM407.5 370 a2.5 2.5 0 1 0 5 0 a2.5 2.5 0 1 0 -5 0z" fill="black"></path><path d="M1007.5 330 a2.5 2.5 0 1 0 5 0 a2.5 2.5 0 1 0 -5 0zM967.5 310 a2.5 2.5 0 1 0 5 0 a2.5 2.5 0 1 0 -5 0z" fill="black"></path><path d="M887.5 190 a2.5 2.5 0 1 0 5 0 a2.5 2.5 0 1 0 -5 0zM907.5 150 a2.5 2.5 0 1 0 5 0 a2.5 2.5 0 1 0 -5 0z" fill="black"></path><path d="M367.5 370 a2.5 2.5 0 1 0 5 0 a2.5 2.5 0 1 0 -5 0zM327.5 370 a2.5 2.5 0 1 0 5 0 a2.5 2.5 0 1 0 -5 0z" fill="black"></path><path d="M507.5 370 a2.5 2.5 0 1 0 5 0 a2.5 2.5 0 1 0 -5 0zM467.5 370 a2.5 2.5 0 1 0 5 0 a2.5 2.5 0 1 0 -5 0z" fill="black"></path><path d="M7.5 230 a2.5 2.5 0 1 0 5 0 a2.5 2.5 0 1 0 -5 0zM7.5 270 a2.5 2.5 0 1 0 5 0 a2.5 2.5 0 1 0 -5 0z" fill="black"></path><path d="M1147.5 490 a2.5 2.5 0 1 0 5 0 a2.5 2.5 0 1 0 -5 0zM1187.5 490 a2.5 2.5 0 1 0 5 0 a2.5 2.5 0 1 0 -5 0z" fill="black"></path><path d="M427.5 90 a2.5 2.5 0 1 0 5 0 a2.5 2.5 0 1 0 -5 0zM427.5 50 a2.5 2.5 0 1 0 5 0 a2.5 2.5 0 1 0 -5 0z" fill="black"></path><path d="M547.5 430 a2.5 2.5 0 1 0 5 0 a2.5 2.5 0 1 0 -5 0zM547.5 390 a2.5 2.5 0 1 0 5 0 a2.5 2.5 0 1 0 -5 0z" fill="black"></path><path d="M667.5 130 a2.5 2.5 0 1 0 5 0 a2.5 2.5 0 1 0 -5 0zM707.5 90 a2.5 2.5 0 1 0 5 0 a2.5 2.5 0 1 0 -5 0z" fill="black"></path><path d="M687.5 230 a2.5 2.5 0 1 0 5 0 a2.5 2.5 0 1 0 -5 0zM687.5 170 a2.5 2.5 0 1 0 5 0 a2.5 2.5 0 1 0 -5 0z" fill="black"></path><path d="M207.5 550 a2.5 2.5 0 1 0 5 0 a2.5 2.5 0 1 0 -5 0zM147.5 550 a2.5 2.5 0 1 0 5 0 a2.5 2.5 0 1 0 -5 0z" fill="black"></path><path d="M7.5 470 a2.5 2.5 0 1 0 5 0 a2.5 2.5 0 1 0 -5 0zM87.5 470 a2.5 2.5 0 1 0 5 0 a2.5 2.5 0 1 0 -5 0z" fill="black"></path><path d="M1287.5 10 a2.5 2.5 0 1 0 5 0 a2.5 2.5 0 1 0 -5 0zM1407.5 10 a2.5 2.5 0 1 0 5 0 a2.5 2.5 0 1 0 -5 0z" fill="black"></path><path d="M547.5 510 a2.5 2.5 0 1 0 5 0 a2.5 2.5 0 1 0 -5 0zM607.5 530 a2.5 2.5 0 1 0 5 0 a2.5 2.5 0 1 0 -5 0z" fill="black"></path><path d="M707.5 230 a2.5 2.5 0 1 0 5 0 a2.5 2.5 0 1 0 -5 0zM707.5 170 a2.5 2.5 0 1 0 5 0 a2.5 2.5 0 1 0 -5 0z" fill="black"></path><path d="M1067.5 170 a2.5 2.5 0 1 0 5 0 a2.5 2.5 0 1 0 -5 0zM1107.5 190 a2.5 2.5 0 1 0 5 0 a2.5 2.5 0 1 0 -5 0z" fill="black"></path><path d="M487.5 230 a2.5 2.5 0 1 0 5 0 a2.5 2.5 0 1 0 -5 0zM527.5 270 a2.5 2.5 0 1 0 5 0 a2.5 2.5 0 1 0 -5 0z" fill="black"></path><path d="M67.5 290 a2.5 2.5 0 1 0 5 0 a2.5 2.5 0 1 0 -5 0zM27.5 290 a2.5 2.5 0 1 0 5 0 a2.5 2.5 0 1 0 -5 0z" fill="black"></path><path d="M1327.5 410 a2.5 2.5 0 1 0 5 0 a2.5 2.5 0 1 0 -5 0zM1367.5 430 a2.5 2.5 0 1 0 5 0 a2.5 2.5 0 1 0 -5 0z" fill="black"></path><path d="M127.5 10 a2.5 2.5 0 1 0 5 0 a2.5 2.5 0 1 0 -5 0zM147.5 50 a2.5 2.5 0 1 0 5 0 a2.5 2.5 0 1 0 -5 0z" fill="black"></path><path d="M7.5 490 a2.5 2.5 0 1 0 5 0 a2.5 2.5 0 1 0 -5 0zM67.5 490 a2.5 2.5 0 1 0 5 0 a2.5 2.5 0 1 0 -5 0z" fill="black"></path><path d="M307.5 410 a2.5 2.5 0 1 0 5 0 a2.5 2.5 0 1 0 -5 0zM347.5 390 a2.5 2.5 0 1 0 5 0 a2.5 2.5 0 1 0 -5 0z" fill="black"></path><path d="M1287.5 370 a2.5 2.5 0 1 0 5 0 a2.5 2.5 0 1 0 -5 0zM1287.5 330 a2.5 2.5 0 1 0 5 0 a2.5 2.5 0 1 0 -5 0z" fill="black"></path><path d="M1327.5 510 a2.5 2.5 0 1 0 5 0 a2.5 2.5 0 1 0 -5 0zM1287.5 530 a2.5 2.5 0 1 0 5 0 a2.5 2.5 0 1 0 -5 0z" fill="black"></path><path d="M247.5 290 a2.5 2.5 0 1 0 5 0 a2.5 2.5 0 1 0 -5 0zM207.5 270 a2.5 2.5 0 1 0 5 0 a2.5 2.5 0 1 0 -5 0z" fill="black"></path><path d="M227.5 10 a2.5 2.5 0 1 0 5 0 a2.5 2.5 0 1 0 -5 0zM287.5 10 a2.5 2.5 0 1 0 5 0 a2.5 2.5 0 1 0 -5 0z" fill="black"></path><path d="M47.5 270 a2.5 2.5 0 1 0 5 0 a2.5 2.5 0 1 0 -5 0zM87.5 270 a2.5 2.5 0 1 0 5 0 a2.5 2.5 0 1 0 -5 0z" fill="black"></path><path d="M647.5 50 a2.5 2.5 0 1 0 5 0 a2.5 2.5 0 1 0 -5 0zM687.5 30 a2.5 2.5 0 1 0 5 0 a2.5 2.5 0 1 0 -5 0z" fill="black"></path><path d="M807.5 450 a2.5 2.5 0 1 0 5 0 a2.5 2.5 0 1 0 -5 0zM807.5 390 a2.5 2.5 0 1 0 5 0 a2.5 2.5 0 1 0 -5 0z" fill="black"></path><path d="M627.5 290 a2.5 2.5 0 1 0 5 0 a2.5 2.5 0 1 0 -5 0zM667.5 310 a2.5 2.5 0 1 0 5 0 a2.5 2.5 0 1 0 -5 0z" fill="black"></path><path d="M267.5 470 a2.5 2.5 0 1 0 5 0 a2.5 2.5 0 1 0 -5 0zM227.5 490 a2.5 2.5 0 1 0 5 0 a2.5 2.5 0 1 0 -5 0z" fill="black"></path><path d="M607.5 50 a2.5 2.5 0 1 0 5 0 a2.5 2.5 0 1 0 -5 0zM647.5 30 a2.5 2.5 0 1 0 5 0 a2.5 2.5 0 1 0 -5 0z" fill="black"></path><path d="M1367.5 310 a2.5 2.5 0 1 0 5 0 a2.5 2.5 0 1 0 -5 0zM1347.5 270 a2.5 2.5 0 1 0 5 0 a2.5 2.5 0 1 0 -5 0z" fill="black"></path><path d="M1187.5 170 a2.5 2.5 0 1 0 5 0 a2.5 2.5 0 1 0 -5 0zM1227.5 170 a2.5 2.5 0 1 0 5 0 a2.5 2.5 0 1 0 -5 0z" fill="black"></path><path d="M87.5 50 a2.5 2.5 0 1 0 5 0 a2.5 2.5 0 1 0 -5 0zM47.5 30 a2.5 2.5 0 1 0 5 0 a2.5 2.5 0 1 0 -5 0z" fill="black"></path><path d="M1407.5 330 a2.5 2.5 0 1 0 5 0 a2.5 2.5 0 1 0 -5 0zM1407.5 370 a2.5 2.5 0 1 0 5 0 a2.5 2.5 0 1 0 -5 0z" fill="black"></path><path d="M947.5 370 a2.5 2.5 0 1 0 5 0 a2.5 2.5 0 1 0 -5 0zM927.5 330 a2.5 2.5 0 1 0 5 0 a2.5 2.5 0 1 0 -5 0z" fill="black"></path></mask></defs></svg>